<svg width="104" height="99" viewBox="0 0 104 99" fill="none" xmlns="http://www.w3.org/2000/svg">
<path d="M58.3762 74.4139L57.0998 74.1551C54.4852 73.6251 52.4534 71.5931 51.9233 68.9785L51.6645 67.7019C51.366 66.2309 50.1096 65.2034 48.6084 65.2034C47.1072 65.2034 45.8508 66.2307 45.5523 67.7021L45.2935 68.9785C44.7636 71.5931 42.7316 73.6251 40.117 74.1551L38.8406 74.4141C37.3695 74.7124 36.3418 75.969 36.3418 77.4702C36.3418 78.9712 37.3693 80.2277 38.8406 80.5262L40.117 80.785C42.7316 81.315 44.7636 83.347 45.2935 85.9616L45.5523 87.2382C45.8508 88.7092 47.1072 89.7368 48.6084 89.7368C50.1096 89.7368 51.366 88.7094 51.6645 87.2382L51.9233 85.9616C52.4532 83.347 54.4852 81.315 57.0998 80.785L58.3762 80.5262C59.8473 80.2279 60.875 78.9714 60.875 77.4702C60.875 75.9692 59.8475 74.7122 58.3762 74.4139ZM57.7896 77.4979C57.7833 77.5001 57.7748 77.5024 57.7638 77.5048L56.4874 77.7636C52.6563 78.5404 49.6791 81.5177 48.9022 85.3488L48.6434 86.6252C48.6412 86.6361 48.6392 86.6444 48.6371 86.6509C48.6205 86.6546 48.5973 86.6546 48.5806 86.6509C48.5788 86.6448 48.5764 86.6363 48.5744 86.6252L48.3156 85.3486C47.5387 81.5175 44.5614 78.54 40.7302 77.7634L39.4538 77.5046C39.4428 77.5024 39.4345 77.5001 39.428 77.4983C39.4244 77.4817 39.4244 77.4584 39.428 77.4418C39.4341 77.4398 39.4426 77.4376 39.4538 77.4355L40.7302 77.1765C44.5614 76.3999 47.5387 73.4224 48.3156 69.5913L48.5744 68.3149C48.5766 68.304 48.5788 68.2955 48.5806 68.2892C48.5973 68.2856 48.6205 68.2856 48.6371 68.2892C48.639 68.2953 48.6414 68.3038 48.6434 68.3149L48.9022 69.5913C49.6791 73.4224 52.6563 76.3999 56.4874 77.1765L57.7638 77.4353C57.7748 77.4376 57.7831 77.4398 57.7896 77.4416C57.7932 77.458 57.7932 77.4813 57.7896 77.4979Z" fill="#A49E8C"/>
<path d="M79.2416 80.0232C78.3905 80.0232 77.7003 80.7133 77.7003 81.5645V85.738C77.7003 86.5892 78.3905 87.2793 79.2416 87.2793C80.0928 87.2793 80.7829 86.5892 80.7829 85.738V81.5645C80.7829 80.7133 80.0928 80.0232 79.2416 80.0232Z" fill="#A49E8C"/>
<path d="M79.2416 91.2593C78.3905 91.2593 77.7003 91.9494 77.7003 92.8006V96.9741C77.7003 97.8252 78.3905 98.5154 79.2416 98.5154C80.0928 98.5154 80.7829 97.8252 80.7829 96.9741V92.8006C80.7829 91.9494 80.0928 91.2593 79.2416 91.2593Z" fill="#A49E8C"/>
<path d="M86.9462 87.7278H82.7727C81.9215 87.7278 81.2314 88.4179 81.2314 89.2691C81.2314 90.1202 81.9215 90.8104 82.7727 90.8104H86.9462C87.7973 90.8104 88.4875 90.1202 88.4875 89.2691C88.4875 88.4179 87.7973 87.7278 86.9462 87.7278Z" fill="#A49E8C"/>
<path d="M75.7106 87.7278H71.5371C70.6859 87.7278 69.9958 88.4179 69.9958 89.2691C69.9958 90.1202 70.6859 90.8104 71.5371 90.8104H75.7106C76.5617 90.8104 77.2519 90.1202 77.2519 89.2691C77.2519 88.4179 76.5617 87.7278 75.7106 87.7278Z" fill="#A49E8C"/>
<path d="M9.24589 60.6018C8.39474 60.6018 7.70459 61.292 7.70459 62.1431V66.3166C7.70459 67.168 8.39474 67.8579 9.24589 67.8579C10.097 67.8579 10.7872 67.1678 10.7872 66.3166V62.1431C10.7872 61.292 10.0972 60.6018 9.24589 60.6018Z" fill="#A49E8C"/>
<path d="M9.24589 71.8379C8.39474 71.8379 7.70459 72.528 7.70459 73.3792V77.5527C7.70459 78.4041 8.39474 79.094 9.24589 79.094C10.097 79.094 10.7872 78.4038 10.7872 77.5527V73.3792C10.7872 72.528 10.0972 71.8379 9.24589 71.8379Z" fill="#A49E8C"/>
<path d="M16.9509 68.3066H12.7774C11.926 68.3066 11.2361 68.9968 11.2361 69.8479C11.2361 70.6991 11.9262 71.3892 12.7774 71.3892H16.9509C17.802 71.3892 18.4922 70.6991 18.4922 69.8479C18.4922 68.9968 17.802 68.3066 16.9509 68.3066Z" fill="#A49E8C"/>
<path d="M5.71481 68.3066H1.5413C0.689949 68.3066 0 68.9968 0 69.8479C0 70.6991 0.690152 71.3892 1.5413 71.3892H5.71481C6.56616 71.3892 7.25611 70.6991 7.25611 69.8479C7.25611 68.9968 6.56596 68.3066 5.71481 68.3066Z" fill="#A49E8C"/>
<path d="M79.4409 0.345703C78.5898 0.345703 77.8996 1.03585 77.8996 1.887V6.06051C77.8996 6.91166 78.5898 7.60181 79.4409 7.60181C80.2921 7.60181 80.9822 6.91166 80.9822 6.06051V1.8872C80.9824 1.03585 80.2923 0.345703 79.4409 0.345703Z" fill="#A49E8C"/>
<path d="M79.4409 11.5818C78.5898 11.5818 77.8996 12.2719 77.8996 13.1231V17.2966C77.8996 18.1477 78.5898 18.8377 79.4409 18.8377C80.2921 18.8377 80.9822 18.1475 80.9822 17.2964V13.1233C80.9824 12.2719 80.2923 11.5818 79.4409 11.5818Z" fill="#A49E8C"/>
<path d="M87.1459 8.05029H82.9724C82.1211 8.05029 81.4311 8.74044 81.4311 9.59159C81.4311 10.4427 82.1213 11.1329 82.9724 11.1329H87.1459C87.9973 11.1329 88.6872 10.4427 88.6872 9.59159C88.6872 8.74044 87.9971 8.05029 87.1459 8.05029Z" fill="#A49E8C"/>
<path d="M75.9098 8.05029H71.7363C70.885 8.05029 70.195 8.74044 70.195 9.59159C70.195 10.4427 70.8852 11.1329 71.7363 11.1329H75.9098C76.761 11.1329 77.4511 10.4427 77.4511 9.59159C77.4511 8.74044 76.7612 8.05029 75.9098 8.05029Z" fill="#A49E8C"/>
<path d="M58.7607 21.4897L52.6508 20.2509C47.225 19.1509 43.0082 14.934 41.9081 9.50821L40.6694 3.39851C40.2573 1.36572 38.587 0 36.5129 0C34.439 0 32.7683 1.36592 32.3562 3.39851L31.1174 9.50821C30.0174 14.934 25.8005 19.1509 20.3747 20.2509L14.265 21.4897C12.2322 21.9018 10.8665 23.5723 10.8665 25.6462C10.8665 27.7203 12.2324 29.3908 14.265 29.8027L20.3747 31.0412C25.8005 32.1413 30.0174 36.3581 31.1174 41.7839L32.3562 47.8936C32.7683 49.9264 34.4388 51.2922 36.5129 51.2922C38.587 51.2922 40.2573 49.9262 40.6694 47.8936L41.9081 41.7839C43.0082 36.3581 47.225 32.1411 52.6508 31.0412L58.7607 29.8027C60.7935 29.3906 62.1593 27.7201 62.1593 25.6462C62.1593 23.5725 60.7935 21.902 58.7607 21.4897ZM58.1484 26.7816L52.0387 28.0204C45.3962 29.3671 40.2338 34.5292 38.8871 41.172L37.6483 47.2817C37.4736 48.1429 36.7352 48.21 36.5131 48.21C36.2909 48.21 35.5524 48.1429 35.3778 47.2817L34.1391 41.172C32.7924 34.5294 27.6302 29.3671 20.9875 28.0204L14.8778 26.7816C14.0165 26.6069 13.9495 25.8685 13.9495 25.6464C13.9495 25.4242 14.0165 24.6857 14.8778 24.5109L20.9875 23.2724C27.63 21.9257 32.7924 16.7633 34.1391 10.121L35.3778 4.0113C35.5526 3.15003 36.2909 3.083 36.5131 3.083C36.7352 3.083 37.4736 3.15003 37.6483 4.0113L38.8871 10.121C40.2338 16.7635 45.3962 21.9259 52.0387 23.2724L58.1484 24.5109C59.0096 24.6857 59.0767 25.424 59.0767 25.6464C59.0767 25.8687 59.0096 26.6071 58.1484 26.7816Z" fill="#A49E8C"/>
<path d="M100.788 44.2642L96.0962 43.3128C92.0703 42.4965 88.9415 39.3679 88.1254 35.342L87.174 30.6499C86.8283 28.9446 85.3715 27.7534 83.6315 27.7534C81.8913 27.7534 80.4345 28.9446 80.0888 30.6499L79.1374 35.342C78.3213 39.3679 75.1927 42.4965 71.1667 43.3128L66.4745 44.2642C64.7692 44.6099 63.578 46.0667 63.578 47.8069C63.578 49.5471 64.769 51.0037 66.4745 51.3496L71.1667 52.301C75.1925 53.1171 78.3213 56.2459 79.1374 60.2715L80.0888 64.9637C80.4347 66.669 81.8913 67.8602 83.6317 67.8602C85.3719 67.8602 86.8285 66.669 87.1742 64.9637L88.1256 60.2715C88.9417 56.2457 92.0705 53.1171 96.0964 52.301L100.789 51.3496C102.494 51.0037 103.685 49.5471 103.685 47.8069C103.685 46.0667 102.494 44.6101 100.788 44.2642ZM100.176 48.3282L95.4834 49.2795C90.241 50.3425 86.1667 54.4166 85.104 59.659L84.1526 64.3511C84.0953 64.6338 83.9199 64.7774 83.6311 64.7774C83.3423 64.7774 83.167 64.634 83.1096 64.3511L82.1583 59.659C81.0955 54.4164 77.0212 50.3423 71.7788 49.2795L67.0867 48.3282C66.804 48.2708 66.6604 48.0953 66.6604 47.8067C66.6604 47.5181 66.8038 47.3425 67.0867 47.2852L71.7788 46.3338C77.0214 45.2709 81.0955 41.1968 82.1583 35.9544L83.1096 31.2623C83.167 30.9796 83.3425 30.836 83.6311 30.836C83.9197 30.836 84.0953 30.9794 84.1526 31.2623L85.104 35.9544C86.1669 41.1968 90.241 45.2711 95.4834 46.3338L100.176 47.2852C100.458 47.3425 100.602 47.5181 100.602 47.8067C100.602 48.0953 100.459 48.2708 100.176 48.3282Z" fill="#A49E8C"/>
</svg>
