<svg width="1155" height="1096" viewBox="0 0 1155 1096" fill="none" xmlns="http://www.w3.org/2000/svg">
<path fill-rule="evenodd" clip-rule="evenodd" d="M176.235 632.327L102.233 623.672L124.701 737.506L176.235 632.327Z" fill="#C0B79B"/>
<path fill-rule="evenodd" clip-rule="evenodd" d="M102.233 623.672L43.9079 687.042L117.457 701.162L102.233 623.672Z" fill="#ECE2C2"/>
<path fill-rule="evenodd" clip-rule="evenodd" d="M320.692 679.855L176.235 632.327L124.701 737.506L320.692 679.855Z" fill="#A49E8C"/>
<path fill-rule="evenodd" clip-rule="evenodd" d="M124.701 737.506L194.958 799.75L320.692 679.855L124.701 737.506Z" fill="#DFDFC4"/>
<path d="M194.807 783.774L186.774 775.741L188.146 774.369L196.178 782.402L194.807 783.774Z" fill="#050000"/>
<path d="M198.626 779.955L190.593 771.922L191.724 770.791L203.222 771.965L202.699 772.488L196.363 766.152L197.735 764.781L205.767 772.813L204.636 773.945L193.124 772.785L193.662 772.248L199.997 778.583L198.626 779.955Z" fill="#050000"/>
<path d="M209.66 768.921L202.758 762.02L200.015 764.763L198.883 763.632L205.742 756.773L206.874 757.904L204.13 760.648L211.031 767.549L209.66 768.921Z" fill="#050000"/>
<path d="M211.43 757.874L215.658 753.645L216.775 754.763L212.547 758.991L211.43 757.874ZM215.149 761.141L219.802 756.488L220.947 757.633L214.923 763.658L206.89 755.625L212.759 749.756L213.89 750.888L209.393 755.385L215.149 761.141Z" fill="#050000"/>
<path d="M222.705 755.875L214.673 747.843L217.954 744.562C218.661 743.855 219.382 743.36 220.117 743.077C220.843 742.784 221.56 742.709 222.267 742.85C222.965 742.982 223.615 743.35 224.219 743.954C224.803 744.538 225.166 745.184 225.308 745.891C225.449 746.598 225.378 747.319 225.095 748.055C224.803 748.781 224.303 749.497 223.596 750.204L221.079 752.722L221.065 751.491L224.077 754.504L222.705 755.875ZM228.079 750.501L223.073 749.681L224.558 748.196L229.564 749.016L228.079 750.501ZM221.22 751.647L220.047 751.52L222.394 749.172C223.092 748.474 223.474 747.8 223.54 747.15C223.615 746.49 223.379 745.886 222.833 745.339C222.286 744.793 221.682 744.557 221.022 744.632C220.372 744.698 219.698 745.08 219 745.778L216.653 748.125L216.525 746.952L221.22 751.647Z" fill="#050000"/>
<path d="M233.636 744.945L222.039 740.476L223.51 739.005L234.074 743.149L233.24 743.983L229.153 733.363L230.538 731.977L234.993 743.587L233.636 744.945Z" fill="#050000"/>
<path d="M239.776 738.805L231.743 730.772L233.115 729.4L241.148 737.433L239.776 738.805Z" fill="#050000"/>
<path d="M240.102 729.202L244.33 724.973L245.447 726.09L241.219 730.319L240.102 729.202ZM243.821 732.469L248.474 727.816L249.619 728.961L243.595 734.986L235.562 726.953L241.431 721.084L242.562 722.215L238.065 726.713L243.821 732.469Z" fill="#050000"/>
<path d="M253.105 725.476L242.357 720.158L243.771 718.744L253.558 723.637L252.851 724.344L248.042 714.473L249.329 713.186L259.144 718.051L258.465 718.73L253.6 708.915L254.929 707.586L260.247 718.334L258.79 719.79L249.782 715.364L250.164 714.982L254.576 724.005L253.105 725.476Z" fill="#050000"/>
<path fill-rule="evenodd" clip-rule="evenodd" d="M194.958 799.75L445.114 561.078L388.493 896.89L194.958 799.75Z" fill="#C0B79B"/>
<path d="M347.992 812.289C348.551 813.521 348.968 814.85 349.243 816.276C349.482 817.693 349.57 819.166 349.508 820.696C349.41 822.215 349.163 823.715 348.767 825.193C347.897 828.439 346.434 831.158 344.378 833.351C342.322 835.544 339.905 837.061 337.129 837.902C334.326 838.697 331.429 838.694 328.435 837.892C325.37 837.07 322.859 835.624 320.901 833.554C318.918 831.438 317.574 828.952 316.87 826.096C316.176 823.205 316.259 820.154 317.119 816.945C317.834 814.276 318.869 812.003 320.222 810.124C321.576 808.245 323.253 806.819 325.253 805.848L327.762 810.115C326.181 810.967 324.899 812.072 323.916 813.432C322.907 814.747 322.165 816.287 321.692 818.054C321.103 820.254 321.058 822.368 321.558 824.396C322.032 826.378 322.981 828.101 324.405 829.565C325.839 830.993 327.656 832.001 329.856 832.591C331.984 833.161 334.048 833.173 336.05 832.627C338.015 832.071 339.721 831.04 341.168 829.534C342.615 828.028 343.639 826.157 344.238 823.921C344.701 822.191 344.874 820.536 344.756 818.958C344.601 817.371 344.13 815.815 343.34 814.289L347.992 812.289ZM346.684 817.388L334.622 814.156L335.984 809.071L347.992 812.289L346.684 817.388Z" fill="#050000"/>
<path d="M357.902 791.099C357.052 794.273 355.604 796.938 353.557 799.095C351.51 801.252 349.099 802.751 346.322 803.592C343.52 804.387 340.604 804.378 337.575 803.567C334.582 802.765 332.088 801.324 330.095 799.244C328.111 797.127 326.772 794.623 326.078 791.732C325.384 788.841 325.462 785.808 326.313 782.635C327.173 779.425 328.621 776.76 330.658 774.639C332.705 772.482 335.112 771.001 337.878 770.196C340.654 769.355 343.539 769.336 346.532 770.138C349.561 770.95 352.086 772.418 354.106 774.544C356.099 776.625 357.443 779.11 358.137 782.002C358.84 784.857 358.762 787.89 357.902 791.099ZM353.359 789.882C353.948 787.682 353.983 785.604 353.463 783.648C352.954 781.657 351.982 779.947 350.548 778.519C349.087 777.045 347.293 776.024 345.166 775.454C342.966 774.864 340.901 774.852 338.972 775.417C337.016 775.937 335.32 776.932 333.882 778.402C332.454 779.836 331.446 781.652 330.856 783.852C330.277 786.016 330.242 788.094 330.752 790.085C331.225 792.068 332.174 793.791 333.599 795.254C335.033 796.682 336.85 797.691 339.049 798.28C341.177 798.85 343.237 798.881 345.228 798.371C347.194 797.815 348.895 796.802 350.333 795.332C351.77 793.862 352.779 792.045 353.359 789.882Z" fill="#050000"/>
<path d="M362.141 773.55L335.185 751.254L336.576 746.061L371.084 740.175L369.663 745.476L338.408 750.262L338.886 748.477L363.518 768.411L362.141 773.55ZM356.563 765.156L352.775 762.634L357.297 745.757L361.839 745.467L356.563 765.156Z" fill="#050000"/>
<path d="M372.188 736.052L341.464 727.819L342.87 722.572L369.213 729.631L373.634 713.133L378.015 714.307L372.188 736.052Z" fill="#050000"/>
<path d="M376.137 686.265C378.012 686.768 379.499 687.707 380.599 689.084C381.709 690.425 382.391 692.134 382.646 694.212C382.91 696.255 382.69 698.592 381.984 701.224C381.347 703.604 380.399 705.843 379.141 707.941C377.857 709.993 376.486 711.501 375.03 712.463L371.47 709.306C372.772 708.341 373.994 707.026 375.136 705.361C376.242 703.686 377.066 701.839 377.607 699.819C378.302 697.223 378.376 695.291 377.826 694.023C377.241 692.745 376.372 691.952 375.218 691.642C374.208 691.372 373.323 691.502 372.562 692.032C371.775 692.517 371.07 693.275 370.446 694.306C369.785 695.327 369.132 696.467 368.486 697.723C367.85 698.944 367.173 700.174 366.455 701.411C365.746 702.613 364.936 703.69 364.023 704.644C363.12 705.562 362.054 706.223 360.825 706.628C359.559 707.023 358.115 707.003 356.492 706.569C354.653 706.076 353.184 705.141 352.084 703.764C350.984 702.387 350.302 700.678 350.038 698.636C349.773 696.594 349.984 694.292 350.67 691.732C351.172 689.857 351.886 688.058 352.812 686.335C353.701 684.602 354.794 683.194 356.089 682.111L359.801 685.134C358.551 686.191 357.543 687.428 356.777 688.846C356.02 690.228 355.449 691.64 355.062 693.083C354.405 695.535 354.359 697.436 354.925 698.786C355.465 700.09 356.348 700.906 357.574 701.235C358.583 701.505 359.487 701.38 360.283 700.859C361.044 700.329 361.749 699.571 362.4 698.586C363.024 697.555 363.659 696.411 364.305 695.154C364.951 693.897 365.628 692.667 366.337 691.466C367.045 690.264 367.856 689.187 368.768 688.233C369.681 687.279 370.747 686.618 371.967 686.249C373.16 685.835 374.55 685.84 376.137 686.265Z" fill="#050000"/>
<path fill-rule="evenodd" clip-rule="evenodd" d="M445.114 561.079L773.502 381.299L681.462 770.446L445.114 561.079Z" fill="#A49E8C"/>
<path d="M513.756 585.116C511.9 586.123 510.016 586.627 508.104 586.627C506.193 586.626 504.437 586.159 502.838 585.225C501.227 584.269 499.947 582.916 498.997 581.166C498.024 579.373 497.587 577.562 497.686 575.733C497.775 573.883 498.34 572.156 499.381 570.553C500.423 568.95 501.871 567.645 503.728 566.638C505.268 565.802 506.754 565.296 508.187 565.119C509.62 564.942 511.006 565.104 512.344 565.607L511.464 568.665C510.388 568.293 509.337 568.167 508.31 568.288C507.271 568.387 506.257 568.706 505.265 569.244C503.978 569.942 502.973 570.857 502.248 571.987C501.533 573.085 501.15 574.29 501.097 575.602C501.066 576.902 501.399 578.196 502.097 579.483C502.773 580.727 503.67 581.701 504.789 582.405C505.918 583.076 507.143 583.421 508.464 583.441C509.807 583.45 511.122 583.105 512.409 582.406C513.4 581.868 514.22 581.191 514.869 580.375C515.519 579.558 515.98 578.598 516.255 577.493L519.298 578.422C518.991 579.817 518.367 581.084 517.428 582.222C516.499 583.327 515.275 584.291 513.756 585.116Z" fill="#050000"/>
<path d="M524.199 579.121L514.445 561.149L521.786 557.165C523.368 556.306 524.866 555.821 526.279 555.709C527.682 555.576 528.957 555.813 530.105 556.418C531.241 557.003 532.176 557.97 532.909 559.32C533.618 560.628 533.914 561.928 533.797 563.221C533.679 564.514 533.188 565.722 532.324 566.847C531.448 567.95 530.219 568.931 528.637 569.79L523.005 572.846L523.61 570.716L527.268 577.455L524.199 579.121ZM536.222 572.595L528.002 568.619L531.324 566.816L539.544 570.792L536.222 572.595ZM523.799 571.064L521.838 570.244L527.091 567.393C528.652 566.546 529.655 565.578 530.102 564.489C530.57 563.389 530.472 562.227 529.808 561.003C529.144 559.78 528.223 559.064 527.046 558.857C525.889 558.638 524.53 558.952 522.969 559.799L517.717 562.65L518.098 560.559L523.799 571.064Z" fill="#050000"/>
<path d="M540.426 556.879L549.887 551.745L551.243 554.244L541.783 559.379L540.426 556.879ZM545.174 564.419L555.584 558.77L556.975 561.333L543.496 568.648L533.742 550.676L546.873 543.55L548.247 546.081L538.185 551.542L545.174 564.419Z" fill="#050000"/>
<path d="M557.807 560.881L556.28 538.444L559.317 536.796L577.329 550.286L574.229 551.969L558.168 539.509L559.212 538.942L560.813 559.25L557.807 560.881ZM559.254 554.566L558.755 551.683L568.626 546.326L570.771 548.315L559.254 554.566Z" fill="#050000"/>
<path d="M581.825 547.846L573.445 532.406L567.307 535.737L565.933 533.206L581.279 524.877L582.652 527.409L576.514 530.74L584.894 546.18L581.825 547.846Z" fill="#050000"/>
<path d="M593.6 541.455L583.847 523.484L586.916 521.818L596.669 539.79L593.6 541.455Z" fill="#050000"/>
<path d="M610.382 532.675C608.526 533.683 606.642 534.186 604.73 534.186C602.818 534.186 601.052 533.725 599.432 532.802C597.821 531.846 596.535 530.483 595.574 528.711C594.623 526.96 594.192 525.16 594.281 523.31C594.39 521.448 594.965 519.716 596.007 518.113C597.048 516.51 598.497 515.205 600.353 514.197C602.231 513.179 604.115 512.675 606.005 512.687C607.917 512.687 609.672 513.154 611.272 514.088C612.892 515.011 614.177 516.348 615.127 518.099C616.089 519.871 616.521 521.698 616.423 523.58C616.335 525.431 615.77 527.157 614.728 528.76C613.708 530.351 612.259 531.657 610.382 532.675ZM608.939 530.018C610.226 529.319 611.211 528.416 611.893 527.309C612.596 526.19 612.964 524.98 612.995 523.68C613.036 522.346 612.719 521.058 612.044 519.813C611.345 518.526 610.438 517.558 609.32 516.908C608.213 516.226 606.998 515.875 605.677 515.855C604.376 515.823 603.083 516.157 601.796 516.855C600.53 517.542 599.546 518.445 598.842 519.564C598.127 520.662 597.744 521.867 597.691 523.179C597.66 524.479 597.993 525.773 598.691 527.06C599.367 528.304 600.264 529.278 601.383 529.982C602.512 530.652 603.737 530.998 605.059 531.018C606.38 531.038 607.674 530.705 608.939 530.018Z" fill="#050000"/>
<path d="M623.852 525.038L614.098 507.066L616.629 505.692L635.871 513.599L634.7 514.235L627.007 500.06L630.077 498.394L639.83 516.366L637.299 517.739L618.025 509.849L619.228 509.197L626.921 523.372L623.852 525.038Z" fill="#050000"/>
<path d="M662.986 497.163C663.582 498.26 663.802 499.369 663.646 500.491C663.511 501.602 663.016 502.677 662.159 503.715C661.324 504.742 660.136 505.673 658.597 506.509C657.204 507.264 655.741 507.813 654.206 508.154C652.681 508.463 651.371 508.491 650.278 508.238L650.175 505.181C651.202 505.361 652.356 505.349 653.638 505.145C654.908 504.92 656.134 504.486 657.315 503.845C658.834 503.021 659.767 502.2 660.116 501.383C660.453 500.545 660.438 499.788 660.072 499.113C659.751 498.523 659.299 498.167 658.715 498.047C658.141 497.895 657.475 497.901 656.718 498.066C655.95 498.21 655.13 498.41 654.258 498.664C653.407 498.908 652.534 499.136 651.639 499.348C650.765 499.55 649.904 499.648 649.055 499.645C648.228 499.629 647.448 499.425 646.715 499.031C645.971 498.615 645.341 497.933 644.826 496.984C644.242 495.908 644.028 494.809 644.183 493.687C644.339 492.565 644.835 491.49 645.67 490.464C646.505 489.437 647.672 488.517 649.169 487.704C650.266 487.109 651.421 486.646 652.635 486.315C653.836 485.963 654.976 485.85 656.054 485.975L656.286 489.044C655.241 488.928 654.218 489.006 653.217 489.276C652.238 489.534 651.326 489.892 650.483 490.35C649.048 491.129 648.141 491.948 647.762 492.81C647.393 493.638 647.403 494.411 647.792 495.128C648.112 495.719 648.57 496.085 649.166 496.226C649.75 496.346 650.415 496.34 651.163 496.207C651.92 496.042 652.734 495.832 653.606 495.577C654.478 495.322 655.351 495.094 656.225 494.893C657.099 494.692 657.96 494.593 658.809 494.597C659.657 494.601 660.437 494.805 661.149 495.211C661.87 495.584 662.483 496.235 662.986 497.163Z" fill="#050000"/>
<path d="M672.27 498.76L663.89 483.32L657.752 486.651L656.378 484.12L671.724 475.791L673.097 478.323L666.959 481.654L675.339 497.095L672.27 498.76Z" fill="#050000"/>
<path d="M679.832 494.656L678.305 472.219L681.343 470.571L699.355 484.061L696.254 485.744L680.193 473.284L681.238 472.717L682.838 493.025L679.832 494.656ZM681.279 488.341L680.78 485.458L690.652 480.101L692.796 482.09L681.279 488.341Z" fill="#050000"/>
<path d="M715.497 472.638C715.17 473.443 714.734 474.226 714.191 474.985C713.636 475.723 712.988 476.416 712.247 477.064C711.495 477.691 710.686 478.239 709.822 478.708C707.923 479.738 706.008 480.259 704.075 480.27C702.142 480.282 700.366 479.826 698.745 478.903C697.135 477.948 695.854 476.595 694.904 474.844C693.931 473.051 693.494 471.24 693.594 469.411C693.703 467.549 694.268 465.823 695.288 464.231C696.33 462.628 697.789 461.317 699.667 460.299C701.228 459.451 702.746 458.928 704.221 458.728C705.696 458.528 707.103 458.679 708.441 459.182L707.561 462.24C706.464 461.88 705.381 461.771 704.312 461.914C703.252 462.025 702.206 462.361 701.172 462.922C699.886 463.62 698.88 464.535 698.156 465.665C697.441 466.763 697.057 467.968 697.004 469.28C696.973 470.581 697.306 471.874 698.005 473.161C698.68 474.405 699.588 475.374 700.728 476.066C701.857 476.736 703.092 477.076 704.435 477.085C705.778 477.093 707.103 476.743 708.411 476.033C709.423 475.484 710.271 474.832 710.955 474.079C711.627 473.305 712.144 472.396 712.506 471.353L715.497 472.638ZM712.54 474.283L708.711 467.228L711.685 465.613L715.497 472.638L712.54 474.283Z" fill="#050000"/>
<path d="M718.458 460.258L727.918 455.124L729.275 457.624L719.814 462.758L718.458 460.258ZM723.205 467.799L733.615 462.149L735.006 464.712L721.527 472.028L711.774 454.056L724.904 446.929L726.278 449.461L716.216 454.921L723.205 467.799Z" fill="#050000"/>
<path d="M150.783 716.785L147.036 702.5L153.247 700.871C154.857 700.448 156.326 700.377 157.653 700.656C158.997 700.93 160.129 701.52 161.048 702.426C161.983 703.328 162.64 704.499 163.018 705.941C163.396 707.383 163.399 708.726 163.027 709.971C162.671 711.211 161.975 712.281 160.939 713.18C159.919 714.074 158.605 714.733 156.995 715.155L150.783 716.785ZM152.688 714.108L156.36 713.144C157.534 712.837 158.478 712.374 159.194 711.756C159.906 711.121 160.379 710.361 160.612 709.475C160.846 708.59 160.826 707.627 160.553 706.588C160.276 705.531 159.821 704.683 159.187 704.043C158.549 703.386 157.764 702.956 156.832 702.752C155.901 702.549 154.848 702.601 153.675 702.909L150.003 703.872L152.688 714.108Z" fill="#050000"/>
<path d="M167.939 712.284L164.191 698L166.63 697.36L170.378 711.644L167.939 712.284Z" fill="#050000"/>
<path d="M183.645 703.809C183.874 704.681 183.837 705.497 183.535 706.257C183.249 707.013 182.717 707.681 181.937 708.262C181.174 708.839 180.181 709.287 178.957 709.609C177.851 709.899 176.73 710.032 175.594 710.007C174.471 709.961 173.548 709.755 172.825 709.389L173.279 707.227C173.968 707.531 174.779 707.721 175.714 707.798C176.644 707.859 177.578 707.766 178.517 707.52C179.724 707.203 180.52 706.788 180.905 706.275C181.286 705.745 181.406 705.212 181.265 704.675C181.142 704.206 180.886 703.879 180.497 703.694C180.12 703.488 179.652 703.378 179.093 703.364C178.529 703.332 177.92 703.331 177.264 703.36C176.625 703.384 175.974 703.393 175.309 703.389C174.662 703.379 174.041 703.3 173.446 703.152C172.869 702.999 172.357 702.721 171.911 702.318C171.46 701.899 171.136 701.312 170.938 700.557C170.714 699.702 170.753 698.894 171.055 698.134C171.357 697.374 171.89 696.706 172.652 696.129C173.415 695.553 174.392 695.108 175.582 694.796C176.454 694.567 177.344 694.442 178.252 694.418C179.155 694.378 179.974 694.495 180.709 694.768L180.343 696.961C179.63 696.7 178.899 696.578 178.151 696.595C177.419 696.608 176.718 696.702 176.048 696.878C174.907 697.177 174.13 697.596 173.716 698.135C173.314 698.652 173.188 699.196 173.338 699.766C173.461 700.236 173.719 700.571 174.112 700.773C174.501 700.957 174.969 701.068 175.516 701.103C176.076 701.118 176.683 701.111 177.339 701.082C177.994 701.054 178.646 701.044 179.293 701.053C179.941 701.063 180.562 701.142 181.156 701.29C181.751 701.439 182.263 701.717 182.692 702.124C183.134 702.51 183.452 703.071 183.645 703.809Z" fill="#050000"/>
<path d="M194.053 705.648C192.577 706.035 191.169 706.064 189.829 705.735C188.488 705.406 187.337 704.776 186.376 703.845C185.411 702.898 184.746 701.728 184.38 700.337C184.007 698.912 184.012 697.566 184.397 696.301C184.777 695.018 185.471 693.904 186.477 692.959C187.483 692.014 188.724 691.348 190.2 690.961C191.424 690.64 192.554 690.541 193.589 690.663C194.625 690.786 195.569 691.139 196.42 691.722L195.277 693.715C194.586 693.269 193.871 693 193.13 692.907C192.384 692.798 191.618 692.847 190.829 693.054C189.807 693.322 188.944 693.791 188.241 694.459C187.551 695.106 187.074 695.885 186.812 696.796C186.566 697.703 186.577 698.668 186.845 699.69C187.105 700.679 187.566 701.517 188.23 702.203C188.906 702.868 189.706 703.321 190.63 703.563C191.57 703.8 192.551 703.784 193.574 703.516C194.362 703.309 195.054 702.975 195.65 702.514C196.246 702.053 196.735 701.459 197.118 700.732L199.092 701.907C198.637 702.833 197.981 703.614 197.127 704.25C196.285 704.866 195.26 705.332 194.053 705.648Z" fill="#050000"/>
<path d="M208.532 701.85C207.056 702.237 205.648 702.266 204.308 701.937C202.967 701.607 201.808 700.98 200.83 700.053C199.865 699.106 199.197 697.928 198.828 696.52C198.463 695.128 198.47 693.791 198.851 692.509C199.248 691.222 199.949 690.106 200.956 689.161C201.962 688.216 203.203 687.55 204.679 687.163C206.171 686.771 207.579 686.742 208.903 687.076C210.244 687.405 211.395 688.035 212.356 688.966C213.333 689.892 214.005 691.051 214.37 692.442C214.739 693.851 214.728 695.207 214.335 696.51C213.955 697.793 213.261 698.907 212.255 699.852C211.265 700.792 210.024 701.458 208.532 701.85ZM207.978 699.737C209 699.469 209.846 699.005 210.516 698.346C211.202 697.682 211.668 696.897 211.914 695.99C212.172 695.062 212.171 694.103 211.912 693.114C211.643 692.091 211.173 691.256 210.502 690.608C209.842 689.939 209.051 689.483 208.127 689.242C207.22 688.996 206.256 689.007 205.233 689.275C204.227 689.539 203.381 690.003 202.695 690.667C202.005 691.314 201.528 692.093 201.265 693.004C201.019 693.911 201.031 694.876 201.299 695.898C201.558 696.888 202.02 697.725 202.684 698.411C203.36 699.076 204.16 699.529 205.083 699.771C206.007 700.012 206.972 700.001 207.978 699.737Z" fill="#050000"/>
<path d="M222.853 697.878L212.768 685.256L215.384 684.569L224.524 696.149L223.04 696.538L225.418 681.937L227.883 681.29L225.268 697.244L222.853 697.878Z" fill="#050000"/>
<path d="M233.646 686.23L241.165 684.257L241.687 686.244L234.167 688.216L233.646 686.23ZM235.678 692.336L243.952 690.165L244.486 692.202L233.773 695.013L230.025 680.728L240.462 677.99L240.99 680.002L232.993 682.1L235.678 692.336Z" fill="#050000"/>
<path d="M247.613 691.382L243.865 677.097L249.7 675.567C250.957 675.237 252.091 675.154 253.102 675.319C254.109 675.467 254.962 675.853 255.663 676.475C256.36 677.081 256.849 677.92 257.13 678.993C257.403 680.033 257.387 680.996 257.082 681.882C256.777 682.769 256.224 683.532 255.425 684.172C254.62 684.795 253.59 685.271 252.332 685.601L247.856 686.776L248.647 685.385L250.052 690.742L247.613 691.382ZM257.169 688.875L252.088 684.671L254.729 683.978L259.81 688.182L257.169 688.875ZM248.719 685.662L247.485 684.749L251.66 683.654C252.901 683.329 253.771 682.822 254.272 682.135C254.79 681.444 254.921 680.612 254.666 679.64C254.411 678.667 253.888 678.007 253.098 677.659C252.324 677.306 251.317 677.293 250.077 677.618L245.902 678.714L246.529 677.313L248.719 685.662Z" fill="#050000"/>
<path d="M266.175 686.512L264.724 680.979L265.617 682.438L256.568 673.765L259.159 673.085L266.593 680.113L265.26 680.462L268.237 670.704L270.752 670.044L267.152 682.036L267.163 680.339L268.615 685.872L266.175 686.512Z" fill="#050000"/>
<path fill-rule="evenodd" clip-rule="evenodd" d="M573.87 879.227L388.493 896.89L445.115 561.078L573.87 879.227Z" fill="#DFDFC4"/>
<path d="M479.887 874.19L465.168 875.403L464.673 869.391C464.567 868.095 464.682 866.964 465.02 865.997C465.34 865.032 465.868 864.258 466.603 863.675C467.32 863.094 468.232 862.759 469.337 862.667C470.408 862.579 471.354 862.762 472.174 863.216C472.994 863.671 473.65 864.347 474.141 865.246C474.615 866.146 474.906 867.244 475.012 868.539L475.392 873.152L474.16 872.131L479.68 871.677L479.887 874.19ZM479.076 864.344L474.054 868.618L473.829 865.898L478.851 861.623L479.076 864.344ZM474.445 872.108L473.332 873.165L472.978 868.863C472.873 867.585 472.525 866.64 471.936 866.027C471.345 865.398 470.548 865.124 469.546 865.207C468.544 865.289 467.803 865.69 467.323 866.407C466.842 867.108 466.654 868.097 466.759 869.376L467.113 873.677L465.842 872.817L474.445 872.108Z" fill="#050000"/>
<path d="M469.913 856.988L469.275 849.24L471.322 849.072L471.96 856.819L469.913 856.988ZM476.279 856.046L475.577 847.521L477.676 847.348L478.585 858.387L463.867 859.599L462.981 848.846L465.054 848.675L465.733 856.915L476.279 856.046Z" fill="#050000"/>
<path d="M472.365 834.186C473.264 834.112 474.061 834.29 474.757 834.719C475.452 835.131 476.018 835.772 476.455 836.64C476.89 837.491 477.16 838.548 477.263 839.809C477.357 840.949 477.294 842.076 477.072 843.19C476.832 844.288 476.469 845.161 475.984 845.81L473.933 844.987C474.351 844.362 474.68 843.595 474.918 842.689C475.139 841.784 475.21 840.847 475.13 839.88C475.028 838.636 474.757 837.78 474.319 837.312C473.863 836.845 473.358 836.634 472.806 836.68C472.322 836.72 471.955 836.915 471.706 837.266C471.438 837.601 471.248 838.043 471.137 838.591C471.008 839.141 470.901 839.741 470.816 840.392C470.729 841.025 470.625 841.668 470.505 842.322C470.383 842.958 470.198 843.556 469.948 844.116C469.697 844.658 469.335 845.114 468.861 845.483C468.37 845.854 467.735 846.072 466.958 846.136C466.077 846.208 465.288 846.03 464.592 845.6C463.896 845.171 463.33 844.53 462.895 843.679C462.459 842.828 462.191 841.789 462.09 840.563C462.016 839.664 462.047 838.766 462.181 837.868C462.299 836.971 462.556 836.185 462.952 835.509L465.048 836.249C464.667 836.907 464.421 837.605 464.308 838.345C464.193 839.068 464.164 839.774 464.221 840.465C464.318 841.64 464.596 842.478 465.055 842.979C465.495 843.465 466.008 843.684 466.596 843.635C467.079 843.595 467.454 843.399 467.721 843.047C467.97 842.696 468.16 842.254 468.29 841.722C468.402 841.173 468.5 840.574 468.586 839.923C468.671 839.273 468.775 838.629 468.896 837.993C469.018 837.357 469.203 836.759 469.453 836.2C469.702 835.64 470.065 835.184 470.54 834.832C470.997 834.464 471.605 834.248 472.365 834.186Z" fill="#050000"/>
<path d="M467.647 829.481L467.009 821.733L469.056 821.564L469.694 829.312L467.647 829.481ZM474.013 828.539L473.311 820.014L475.41 819.841L476.319 830.879L461.601 832.092L460.715 821.338L462.788 821.167L463.467 829.407L474.013 828.539Z" fill="#050000"/>
<path d="M475.354 819.159L460.081 813.634L459.876 811.146L474.037 803.171L474.246 805.711L461.334 812.696L461.264 811.841L475.151 816.697L475.354 819.159ZM471.602 816.364L469.551 815.854L468.885 807.77L470.825 806.932L471.602 816.364Z" fill="#050000"/>
<path d="M473.874 801.196L459.156 802.408L458.661 796.396C458.554 795.101 458.67 793.969 459.008 793.002C459.328 792.037 459.856 791.263 460.59 790.681C461.308 790.1 462.219 789.764 463.325 789.673C464.396 789.585 465.342 789.768 466.162 790.222C466.982 790.676 467.637 791.352 468.129 792.251C468.603 793.151 468.893 794.249 469 795.545L469.38 800.157L468.148 799.137L473.667 798.682L473.874 801.196ZM473.063 791.349L468.041 795.624L467.817 792.903L472.839 788.628L473.063 791.349ZM468.433 799.113L467.32 800.17L466.966 795.869C466.861 794.591 466.513 793.645 465.924 793.033C465.333 792.403 464.536 792.13 463.534 792.212C462.532 792.295 461.791 792.695 461.311 793.413C460.83 794.113 460.642 795.103 460.747 796.381L461.101 800.683L459.83 799.822L468.433 799.113Z" fill="#050000"/>
<path d="M472.236 778.768C472.361 780.288 472.145 781.68 471.588 782.943C471.032 784.206 470.212 785.23 469.128 786.015C468.028 786.801 466.761 787.254 465.327 787.372C463.858 787.493 462.534 787.254 461.355 786.655C460.158 786.058 459.181 785.182 458.425 784.027C457.669 782.872 457.228 781.534 457.103 780.014C456.999 778.753 457.097 777.623 457.398 776.624C457.698 775.626 458.209 774.757 458.931 774.02L460.696 775.492C460.137 776.094 459.748 776.753 459.528 777.466C459.291 778.182 459.206 778.945 459.273 779.757C459.36 780.811 459.672 781.742 460.208 782.55C460.725 783.342 461.41 783.946 462.262 784.363C463.112 784.763 464.064 784.919 465.118 784.832C466.137 784.748 467.042 784.439 467.833 783.904C468.605 783.354 469.19 782.645 469.588 781.777C469.985 780.892 470.14 779.923 470.053 778.869C469.986 778.057 469.777 777.318 469.427 776.651C469.076 775.984 468.576 775.399 467.926 774.896L469.426 773.155C470.259 773.765 470.914 774.546 471.393 775.498C471.852 776.434 472.133 777.524 472.236 778.768Z" fill="#050000"/>
<path d="M471.315 770.12L456.597 771.333L456.39 768.819L462.609 768.307L461.945 760.248L455.726 760.76L455.519 758.247L470.237 757.035L470.444 759.548L464.018 760.077L464.682 768.136L471.108 767.607L471.315 770.12Z" fill="#050000"/>
<path d="M465.616 742.42L454.266 743.355L454.087 741.179L465.437 740.244L465.616 742.42ZM461.366 747.519L459.319 747.687L458.363 736.078L460.41 735.91L461.366 747.519Z" fill="#050000"/>
<path d="M467.814 727.615L452.541 722.09L452.336 719.602L466.497 711.627L466.706 714.166L453.794 721.152L453.724 720.297L467.611 725.153L467.814 727.615ZM464.062 724.819L462.011 724.31L461.345 716.225L463.285 715.387L464.062 724.819Z" fill="#050000"/>
<path d="M466.334 709.652L451.616 710.864L451.446 708.791L462.275 698.377L462.354 699.336L450.746 700.292L450.539 697.778L465.257 696.566L465.427 698.639L454.6 709.079L454.519 708.094L466.127 707.138L466.334 709.652Z" fill="#050000"/>
<path d="M465.094 694.591L449.821 689.066L449.616 686.578L463.777 678.603L463.986 681.142L451.074 688.128L451.004 687.273L464.891 692.129L465.094 694.591ZM461.342 691.795L459.291 691.286L458.625 683.201L460.565 682.363L461.342 691.795Z" fill="#050000"/>
<path d="M463.614 676.628L448.896 677.84L448.689 675.326L461.309 674.287L460.658 666.384L462.757 666.211L463.614 676.628Z" fill="#050000"/>
<path d="M462.437 662.335L456.737 662.804L458.328 662.177L448.216 669.584L447.997 666.915L456.207 660.813L456.32 662.186L447.226 657.561L447.013 654.97L458.198 660.597L456.53 660.291L462.23 659.821L462.437 662.335Z" fill="#050000"/>
<path d="M456.546 642.114C457.444 642.04 458.241 642.218 458.937 642.648C459.632 643.06 460.198 643.7 460.635 644.569C461.07 645.42 461.34 646.476 461.444 647.737C461.538 648.877 461.474 650.004 461.253 651.118C461.013 652.216 460.65 653.09 460.164 653.738L458.114 652.916C458.532 652.29 458.86 651.524 459.098 650.617C459.319 649.712 459.39 648.776 459.31 647.808C459.208 646.565 458.937 645.709 458.499 645.24C458.043 644.774 457.539 644.563 456.986 644.608C456.502 644.648 456.136 644.844 455.886 645.195C455.618 645.53 455.428 645.972 455.317 646.52C455.188 647.07 455.081 647.67 454.996 648.32C454.909 648.954 454.805 649.597 454.685 650.25C454.564 650.886 454.378 651.484 454.128 652.044C453.878 652.586 453.515 653.042 453.041 653.412C452.55 653.783 451.916 654 451.138 654.064C450.257 654.137 449.469 653.958 448.772 653.529C448.076 653.099 447.51 652.459 447.075 651.608C446.64 650.756 446.371 649.718 446.27 648.491C446.196 647.593 446.227 646.695 446.361 645.797C446.479 644.9 446.736 644.113 447.132 643.437L449.228 644.178C448.848 644.835 448.601 645.534 448.488 646.274C448.373 646.996 448.345 647.703 448.402 648.394C448.498 649.569 448.776 650.407 449.235 650.908C449.675 651.393 450.188 651.612 450.776 651.564C451.259 651.524 451.635 651.328 451.901 650.975C452.151 650.624 452.34 650.183 452.47 649.65C452.582 649.102 452.68 648.502 452.766 647.852C452.851 647.201 452.955 646.558 453.076 645.922C453.198 645.286 453.383 644.688 453.633 644.128C453.883 643.568 454.245 643.112 454.72 642.76C455.177 642.392 455.785 642.177 456.546 642.114Z" fill="#050000"/>
<path d="M460.499 638.808L445.781 640.02L445.574 637.507L460.292 636.294L460.499 638.808Z" fill="#050000"/>
<path d="M454.878 621.869C455.776 621.795 456.574 621.973 457.27 622.403C457.965 622.815 458.531 623.455 458.967 624.324C459.403 625.175 459.672 626.231 459.776 627.492C459.87 628.632 459.806 629.759 459.585 630.873C459.345 631.971 458.982 632.845 458.496 633.493L456.446 632.671C456.864 632.045 457.192 631.279 457.431 630.372C457.652 629.467 457.723 628.531 457.643 627.563C457.54 626.32 457.27 625.464 456.831 624.995C456.375 624.529 455.871 624.318 455.318 624.363C454.835 624.403 454.468 624.599 454.219 624.95C453.951 625.285 453.761 625.727 453.65 626.275C453.521 626.825 453.414 627.425 453.328 628.075C453.241 628.709 453.138 629.352 453.018 630.005C452.896 630.641 452.711 631.239 452.461 631.799C452.21 632.341 451.848 632.797 451.374 633.167C450.882 633.538 450.248 633.755 449.471 633.819C448.59 633.892 447.801 633.713 447.105 633.284C446.409 632.854 445.843 632.214 445.407 631.363C444.972 630.511 444.704 629.473 444.603 628.246C444.529 627.348 444.559 626.45 444.694 625.552C444.811 624.655 445.068 623.868 445.465 623.192L447.561 623.933C447.18 624.59 446.933 625.289 446.82 626.029C446.706 626.751 446.677 627.458 446.734 628.149C446.831 629.324 447.109 630.162 447.567 630.663C448.007 631.148 448.521 631.367 449.108 631.319C449.592 631.279 449.967 631.083 450.234 630.73C450.483 630.379 450.673 629.938 450.803 629.405C450.914 628.857 451.013 628.257 451.098 627.607C451.184 626.956 451.287 626.313 451.409 625.677C451.53 625.041 451.716 624.443 451.966 623.883C452.215 623.323 452.578 622.867 453.053 622.515C453.51 622.147 454.118 621.932 454.878 621.869Z" fill="#050000"/>
<path fill-rule="evenodd" clip-rule="evenodd" d="M445.115 561.078L681.462 770.446L626.239 848.271L445.115 561.078Z" fill="#DFDFC4"/>
<path fill-rule="evenodd" clip-rule="evenodd" d="M445.115 561.078L573.87 879.227L658.773 900.016L445.115 561.078Z" fill="#A49E8C"/>
<path fill-rule="evenodd" clip-rule="evenodd" d="M773.502 381.299L947.728 192.851L942.229 497.079L773.502 381.299Z" fill="#C0B79B"/>
<path d="M837.567 387.899L831.661 382.791L829.631 385.139L828.663 384.301L833.739 378.432L834.707 379.27L832.677 381.617L838.582 386.725L837.567 387.899Z" fill="#050000"/>
<path d="M841.462 383.395L834.589 377.45L835.604 376.276L838.508 378.788L841.764 375.025L838.859 372.513L839.875 371.339L846.748 377.284L845.733 378.458L842.732 375.862L839.476 379.626L842.477 382.222L841.462 383.395Z" fill="#050000"/>
<path d="M848.572 375.176L841.698 369.231L842.713 368.057L849.587 374.002L848.572 375.176Z" fill="#050000"/>
<path d="M853.593 365.408C854.013 365.771 854.278 366.198 854.389 366.689C854.507 367.172 854.47 367.697 854.276 368.263C854.09 368.821 853.742 369.394 853.233 369.983C852.772 370.516 852.249 370.973 851.664 371.356C851.079 371.723 850.538 371.94 850.044 372.006L849.522 370.751C849.977 370.665 850.455 370.479 850.956 370.193C851.449 369.901 851.891 369.528 852.282 369.076C852.785 368.496 853.044 368.008 853.061 367.613C853.07 367.212 852.945 366.9 852.687 366.676C852.461 366.481 852.217 366.404 851.956 366.446C851.693 366.472 851.417 366.579 851.128 366.767C850.831 366.947 850.521 367.158 850.198 367.401C849.883 367.636 849.555 367.867 849.216 368.096C848.885 368.317 848.542 368.493 848.188 368.624C847.842 368.748 847.485 368.785 847.119 368.736C846.744 368.68 846.375 368.495 846.012 368.181C845.601 367.825 845.34 367.401 845.229 366.91C845.117 366.419 845.155 365.895 845.341 365.337C845.528 364.779 845.869 364.213 846.364 363.64C846.727 363.221 847.135 362.847 847.588 362.52C848.032 362.185 848.489 361.959 848.957 361.842L849.534 363.082C849.081 363.198 848.668 363.39 848.294 363.659C847.927 363.92 847.604 364.212 847.325 364.535C846.851 365.084 846.602 365.567 846.579 365.984C846.556 366.387 846.681 366.707 846.955 366.944C847.181 367.139 847.429 367.22 847.699 367.185C847.96 367.143 848.236 367.036 848.526 366.864C848.815 366.677 849.121 366.462 849.444 366.219C849.766 365.977 850.094 365.745 850.426 365.524C850.757 365.304 851.1 365.128 851.454 364.996C851.807 364.865 852.164 364.827 852.523 364.885C852.882 364.927 853.238 365.101 853.593 365.408Z" fill="#050000"/>
<path d="M859.351 362.714L852.478 356.768L853.493 355.595L860.367 361.54L859.351 362.714Z" fill="#050000"/>
<path d="M864.373 352.946C864.792 353.309 865.058 353.736 865.169 354.227C865.287 354.71 865.249 355.234 865.056 355.801C864.869 356.358 864.522 356.932 864.012 357.521C863.552 358.053 863.029 358.511 862.444 358.894C861.858 359.261 861.318 359.478 860.824 359.544L860.302 358.289C860.757 358.203 861.235 358.017 861.736 357.731C862.229 357.438 862.671 357.066 863.062 356.614C863.564 356.033 863.824 355.546 863.841 355.151C863.849 354.75 863.725 354.437 863.466 354.214C863.241 354.019 862.997 353.942 862.735 353.983C862.472 354.01 862.197 354.117 861.908 354.304C861.611 354.485 861.301 354.696 860.978 354.939C860.662 355.173 860.335 355.405 859.996 355.634C859.664 355.854 859.321 356.03 858.968 356.162C858.622 356.285 858.265 356.322 857.898 356.273C857.524 356.217 857.155 356.032 856.792 355.718C856.381 355.362 856.119 354.939 856.008 354.448C855.897 353.957 855.935 353.432 856.121 352.874C856.308 352.316 856.648 351.751 857.144 351.178C857.507 350.759 857.915 350.385 858.367 350.057C858.812 349.723 859.268 349.497 859.736 349.38L860.314 350.62C859.861 350.736 859.447 350.928 859.074 351.197C858.707 351.458 858.384 351.75 858.105 352.073C857.63 352.621 857.382 353.104 857.359 353.522C857.335 353.924 857.46 354.244 857.735 354.482C857.961 354.677 858.208 354.757 858.478 354.723C858.74 354.681 859.016 354.574 859.306 354.402C859.595 354.215 859.9 354 860.223 353.757C860.546 353.514 860.873 353.283 861.205 353.062C861.537 352.841 861.88 352.665 862.233 352.534C862.587 352.402 862.943 352.365 863.303 352.422C863.661 352.464 864.018 352.639 864.373 352.946Z" fill="#050000"/>
<path d="M872.907 347.237C872.293 347.947 871.589 348.452 870.794 348.751C869.998 349.051 869.192 349.136 868.373 349.006C867.553 348.861 866.805 348.496 866.127 347.91C865.458 347.33 864.996 346.649 864.743 345.866C864.496 345.075 864.464 344.264 864.646 343.434C864.828 342.604 865.226 341.834 865.84 341.124C866.461 340.406 867.166 339.902 867.954 339.61C868.749 339.311 869.552 339.23 870.364 339.368C871.182 339.497 871.926 339.852 872.596 340.431C873.274 341.017 873.74 341.709 873.994 342.508C874.247 343.291 874.283 344.098 874.101 344.928C873.926 345.749 873.528 346.519 872.907 347.237ZM871.891 346.358C872.316 345.866 872.584 345.336 872.694 344.768C872.812 344.193 872.775 343.632 872.584 343.086C872.392 342.525 872.058 342.039 871.582 341.627C871.09 341.202 870.561 340.941 869.994 340.846C869.427 340.736 868.867 340.781 868.314 340.979C867.768 341.17 867.282 341.512 866.857 342.004C866.438 342.488 866.17 343.018 866.053 343.593C865.928 344.162 865.957 344.723 866.141 345.277C866.332 345.823 866.673 346.309 867.165 346.734C867.641 347.146 868.167 347.41 868.743 347.527C869.317 347.63 869.881 347.581 870.433 347.382C870.986 347.183 871.472 346.842 871.891 346.358Z" fill="#050000"/>
<path d="M877.312 341.949L870.438 336.004L871.276 335.036L880.518 335.308L880.13 335.756L874.709 331.067L875.724 329.893L882.598 335.838L881.76 336.806L872.508 336.546L872.906 336.086L878.327 340.776L877.312 341.949Z" fill="#050000"/>
<path d="M884.421 333.73L877.548 327.785L878.563 326.611L884.456 331.708L887.649 328.018L888.629 328.865L884.421 333.73Z" fill="#050000"/>
<path d="M890.195 327.055L887.533 324.752L888.494 325.182L880.883 323.929L881.961 322.683L888.18 323.662L887.625 324.303L885.739 318.314L886.786 317.104L889.132 324.444L888.548 323.579L891.21 325.881L890.195 327.055Z" fill="#050000"/>
<path d="M898.159 317.847L892.254 312.739L890.223 315.087L889.255 314.25L894.332 308.381L895.3 309.218L893.269 311.566L899.175 316.674L898.159 317.847Z" fill="#050000"/>
<path d="M902.055 313.344L895.181 307.398L896.197 306.225L899.101 308.737L902.356 304.973L899.452 302.461L900.467 301.287L907.341 307.233L906.326 308.407L903.324 305.811L900.069 309.574L903.07 312.17L902.055 313.344Z" fill="#050000"/>
<path d="M906.043 300.711L909.173 297.093L910.129 297.92L906.999 301.538L906.043 300.711ZM909.2 303.103L912.643 299.122L913.623 299.969L909.164 305.125L902.291 299.179L906.635 294.157L907.603 294.995L904.274 298.843L909.2 303.103Z" fill="#050000"/>
<path d="M864.47 387.367L857.597 381.422L860.35 378.239C861.068 377.408 861.778 376.915 862.477 376.758C863.175 376.587 863.799 376.738 864.348 377.213C864.896 377.687 865.163 378.242 865.149 378.879C865.141 379.507 864.883 380.116 864.373 380.704L864.204 380.24C864.783 379.571 865.393 379.175 866.035 379.053C866.676 378.931 867.296 379.128 867.893 379.644C868.473 380.147 868.73 380.771 868.663 381.517C868.596 382.263 868.176 383.083 867.401 383.979L864.47 387.367ZM864.59 385.419L866.453 383.265C866.9 382.749 867.157 382.28 867.225 381.859C867.285 381.431 867.133 381.06 866.77 380.746C866.399 380.425 866.01 380.329 865.603 380.457C865.197 380.584 864.77 380.906 864.323 381.423L862.293 383.77L861.397 382.996L863.208 380.902C863.627 380.418 863.859 379.97 863.905 379.559C863.951 379.147 863.804 378.795 863.465 378.502C863.127 378.208 862.761 378.118 862.368 378.229C861.975 378.341 861.57 378.639 861.151 379.123L859.508 381.023L864.59 385.419Z" fill="#050000"/>
<path d="M867.876 375.408L871.005 371.79L871.961 372.617L868.832 376.235L867.876 375.408ZM871.032 377.8L874.476 373.819L875.456 374.666L870.997 379.822L864.124 373.876L868.468 368.854L869.436 369.692L866.107 373.54L871.032 377.8Z" fill="#050000"/>
<path d="M880.974 366.697C880.964 367.084 880.906 367.477 880.799 367.878C880.684 368.272 880.523 368.662 880.316 369.047C880.102 369.426 879.851 369.781 879.565 370.111C878.937 370.837 878.222 371.354 877.42 371.662C876.618 371.97 875.808 372.058 874.989 371.929C874.17 371.784 873.425 371.422 872.756 370.843C872.07 370.25 871.604 369.565 871.359 368.789C871.113 367.997 871.077 367.191 871.252 366.369C871.434 365.539 871.835 364.765 872.456 364.047C872.973 363.45 873.522 362.994 874.104 362.68C874.687 362.366 875.295 362.208 875.93 362.207L876.044 363.617C875.531 363.639 875.064 363.764 874.642 363.991C874.218 364.203 873.836 364.507 873.494 364.902C873.068 365.394 872.793 365.932 872.669 366.516C872.544 367.084 872.573 367.646 872.757 368.2C872.948 368.745 873.289 369.231 873.781 369.657C874.257 370.068 874.787 370.329 875.369 370.438C875.944 370.54 876.511 370.488 877.071 370.281C877.631 370.074 878.127 369.72 878.559 369.22C878.894 368.833 879.145 368.429 879.311 368.009C879.469 367.581 879.542 367.122 879.529 366.632L880.974 366.697ZM880.002 367.845L877.304 365.511L878.288 364.373L880.974 366.697L880.002 367.845Z" fill="#050000"/>
<path d="M883.386 365.498L876.513 359.553L877.528 358.379L884.402 364.324L883.386 365.498Z" fill="#050000"/>
<path d="M886.213 362.23L879.339 356.285L880.177 355.317L889.419 355.589L889.031 356.037L883.61 351.348L884.625 350.174L891.499 356.119L890.662 357.087L881.409 356.827L881.807 356.367L887.228 361.057L886.213 362.23Z" fill="#050000"/>
<path d="M893.322 354.011L886.449 348.066L887.286 347.098L896.528 347.37L896.141 347.818L890.72 343.128L891.735 341.955L898.608 347.9L897.771 348.868L888.519 348.608L888.916 348.148L894.338 352.837L893.322 354.011Z" fill="#050000"/>
<path d="M900.432 345.792L893.559 339.846L894.574 338.673L901.447 344.618L900.432 345.792Z" fill="#050000"/>
<path d="M903.259 342.524L896.385 336.579L897.222 335.611L906.464 335.883L906.077 336.331L900.656 331.641L901.671 330.468L908.544 336.413L907.707 337.381L898.455 337.121L898.853 336.661L904.274 341.35L903.259 342.524Z" fill="#050000"/>
<path d="M914.595 327.828C914.585 328.214 914.527 328.608 914.42 329.009C914.305 329.403 914.144 329.793 913.937 330.178C913.723 330.557 913.472 330.911 913.186 331.242C912.558 331.968 911.843 332.485 911.041 332.793C910.239 333.1 909.429 333.189 908.61 333.059C907.791 332.915 907.046 332.553 906.377 331.973C905.691 331.38 905.225 330.696 904.98 329.919C904.734 329.128 904.698 328.321 904.873 327.5C905.055 326.67 905.456 325.896 906.077 325.178C906.594 324.581 907.143 324.125 907.725 323.811C908.307 323.496 908.916 323.339 909.551 323.338L909.665 324.748C909.152 324.77 908.685 324.894 908.263 325.122C907.839 325.334 907.457 325.637 907.115 326.033C906.689 326.525 906.414 327.063 906.29 327.646C906.165 328.215 906.194 328.776 906.378 329.33C906.569 329.876 906.91 330.362 907.402 330.787C907.878 331.199 908.408 331.46 908.99 331.569C909.565 331.671 910.132 331.618 910.692 331.411C911.251 331.204 911.748 330.851 912.18 330.351C912.515 329.964 912.766 329.56 912.932 329.139C913.09 328.712 913.163 328.253 913.15 327.762L914.595 327.828ZM913.623 328.976L910.925 326.642L911.909 325.504L914.595 327.828L913.623 328.976Z" fill="#050000"/>
<path fill-rule="evenodd" clip-rule="evenodd" d="M942.229 497.079L862.068 642.319L773.502 381.299L942.229 497.079Z" fill="#DFDFC4"/>
<path fill-rule="evenodd" clip-rule="evenodd" d="M862.068 642.319L681.462 770.446L773.502 381.299L862.068 642.319Z" fill="#C0B79B"/>
<path d="M738.856 703.565L724.458 700.279L725.019 697.82L737.364 700.637L739.128 692.906L741.182 693.375L738.856 703.565Z" fill="#050000"/>
<path d="M733.827 687.274L735.556 679.694L737.559 680.151L735.829 687.73L733.827 687.274ZM740.18 688.297L742.083 679.957L744.136 680.426L741.672 691.224L727.274 687.938L729.675 677.419L731.703 677.882L729.863 685.942L740.18 688.297Z" fill="#050000"/>
<path d="M745.44 674.714L733.07 671.892L731.948 676.809L729.92 676.346L732.725 664.052L734.753 664.515L733.631 669.433L746.001 672.256L745.44 674.714Z" fill="#050000"/>
<path d="M749.615 656.42L737.245 653.597L736.122 658.515L734.095 658.052L736.9 645.758L738.928 646.221L737.806 651.138L750.176 653.961L749.615 656.42Z" fill="#050000"/>
<path d="M751.767 646.986L737.37 643.701L737.931 641.242L744.014 642.63L745.813 634.747L739.73 633.358L740.291 630.9L754.689 634.185L754.128 636.644L747.841 635.21L746.042 643.093L752.329 644.527L751.767 646.986Z" fill="#050000"/>
<path d="M747.851 625.819L749.58 618.239L751.583 618.696L749.853 626.276L747.851 625.819ZM754.204 626.842L756.107 618.502L758.161 618.971L755.696 629.769L741.299 626.484L743.699 615.964L745.727 616.427L743.888 624.488L754.204 626.842Z" fill="#050000"/>
<path d="M759.751 612.003L746.857 602.127L747.412 599.694L763.32 596.363L762.753 598.848L748.335 601.611L748.526 600.775L760.3 609.595L759.751 612.003ZM757.017 608.206L755.216 607.102L757.02 599.193L759.123 598.979L757.017 608.206Z" fill="#050000"/>
<path d="M763.761 594.431L749.363 591.145L749.924 588.687L764.322 591.972L763.761 594.431Z" fill="#050000"/>
<path d="M766.761 581.286L752.363 578L753.791 571.739C754.162 570.117 754.777 568.781 755.639 567.733C756.504 566.669 757.551 565.939 758.779 565.543C760.011 565.131 761.353 565.091 762.807 565.422C764.26 565.754 765.452 566.373 766.383 567.279C767.318 568.168 767.945 569.279 768.262 570.614C768.584 571.932 768.56 573.402 768.189 575.024L766.761 581.286ZM765.268 578.358L766.113 574.657C766.383 573.474 766.41 572.423 766.193 571.502C765.959 570.578 765.504 569.807 764.827 569.19C764.15 568.573 763.288 568.146 762.24 567.906C761.175 567.663 760.213 567.675 759.352 567.941C758.474 568.203 757.73 568.7 757.118 569.431C756.507 570.163 756.066 571.12 755.796 572.303L754.952 576.004L765.268 578.358Z" fill="#050000"/>
<path d="M772.39 557.551C772.051 559.038 771.425 560.3 770.513 561.336C769.601 562.373 768.508 563.11 767.235 563.549C765.948 563.966 764.595 564.013 763.176 563.689C761.773 563.369 760.591 562.744 759.63 561.813C758.673 560.866 758.008 559.727 757.636 558.398C757.264 557.068 757.247 555.66 757.587 554.173C757.93 552.669 758.556 551.407 759.464 550.388C760.376 549.351 761.467 548.623 762.736 548.201C764.01 547.763 765.348 547.704 766.75 548.024C768.17 548.348 769.367 548.985 770.341 549.937C771.302 550.867 771.969 551.997 772.341 553.326C772.717 554.639 772.733 556.047 772.39 557.551ZM770.261 557.065C770.496 556.035 770.476 555.07 770.201 554.172C769.93 553.256 769.449 552.48 768.759 551.842C768.056 551.184 767.206 550.741 766.209 550.514C765.178 550.278 764.22 550.309 763.335 550.604C762.436 550.88 761.666 551.371 761.025 552.078C760.388 552.768 759.951 553.628 759.716 554.659C759.485 555.673 759.504 556.638 759.776 557.553C760.03 558.464 760.5 559.247 761.186 559.902C761.876 560.539 762.737 560.975 763.768 561.211C764.765 561.438 765.721 561.416 766.636 561.145C767.538 560.853 768.31 560.354 768.952 559.647C769.593 558.94 770.029 558.079 770.261 557.065Z" fill="#050000"/>
<path d="M776.697 537.743L764.327 534.92L763.205 539.838L761.177 539.375L763.982 527.081L766.01 527.544L764.888 532.462L777.258 535.284L776.697 537.743Z" fill="#050000"/>
<path d="M778.85 528.309L764.452 525.024L765.013 522.565L771.097 523.953L772.896 516.07L766.812 514.682L767.373 512.223L781.771 515.509L781.21 517.967L774.923 516.533L773.124 524.416L779.411 525.851L778.85 528.309Z" fill="#050000"/>
<path d="M774.933 507.142L776.663 499.563L778.665 500.02L776.936 507.599L774.933 507.142ZM781.287 508.165L783.19 499.825L785.243 500.294L782.779 511.092L768.381 507.807L770.781 497.287L772.809 497.75L770.97 505.811L781.287 508.165Z" fill="#050000"/>
<path d="M786.164 640.091L770.655 641.673L771.233 639.138L785.39 637.755L785.101 639.022L772.98 631.483L773.507 629.176L787.675 627.742L787.397 628.959L775.254 621.521L775.797 619.138L789.085 627.291L788.489 629.901L775.511 631.26L775.668 630.576L786.765 637.455L786.164 640.091Z" fill="#050000"/>
<path d="M792.397 613.711C792.058 615.198 791.432 616.46 790.52 617.496C789.608 618.532 788.515 619.27 787.241 619.708C785.955 620.126 784.602 620.173 783.182 619.849C781.78 619.529 780.598 618.903 779.637 617.973C778.68 617.025 778.015 615.887 777.643 614.558C777.271 613.228 777.254 611.82 777.594 610.333C777.937 608.829 778.562 607.567 779.471 606.547C780.383 605.511 781.474 604.782 782.743 604.361C784.017 603.922 785.355 603.863 786.757 604.183C788.177 604.507 789.374 605.145 790.348 606.096C791.309 607.027 791.975 608.157 792.348 609.486C792.724 610.799 792.74 612.207 792.397 613.711ZM790.268 613.225C790.503 612.194 790.483 611.23 790.208 610.331C789.937 609.416 789.456 608.639 788.766 608.002C788.063 607.344 787.213 606.901 786.216 606.673C785.185 606.438 784.227 606.468 783.342 606.764C782.443 607.039 781.673 607.53 781.032 608.237C780.394 608.927 779.958 609.788 779.723 610.819C779.491 611.833 779.511 612.797 779.782 613.712C780.037 614.624 780.507 615.407 781.193 616.061C781.883 616.699 782.744 617.135 783.775 617.37C784.772 617.598 785.728 617.576 786.643 617.305C787.545 617.013 788.317 616.513 788.959 615.806C789.6 615.099 790.036 614.239 790.268 613.225Z" fill="#050000"/>
<path d="M794.682 602.763L780.284 599.478L781.626 593.597C781.915 592.33 782.367 591.286 782.981 590.466C783.577 589.642 784.314 589.063 785.19 588.73C786.049 588.393 787.02 588.347 788.101 588.594C789.149 588.833 789.995 589.293 790.64 589.974C791.285 590.654 791.706 591.497 791.903 592.502C792.084 593.503 792.029 594.638 791.74 595.905L790.71 600.417L789.844 599.073L795.243 600.305L794.682 602.763ZM796.88 593.131L790.802 595.691L791.409 593.029L797.487 590.469L796.88 593.131ZM790.123 599.136L788.743 599.808L789.703 595.6C789.988 594.35 789.942 593.343 789.565 592.582C789.191 591.803 788.515 591.302 787.534 591.078C786.554 590.855 785.727 591.013 785.053 591.552C784.382 592.075 783.905 592.961 783.619 594.212L782.659 598.42L781.707 597.216L790.123 599.136Z" fill="#050000"/>
<path d="M795.26 584.337L792.316 583.799L786.091 574.031L786.716 571.293L791.956 579.183L793.063 580.876L795.26 584.337ZM798.21 587.304L783.812 584.018L784.373 581.559L798.771 584.845L798.21 587.304ZM800.541 577.089L792.542 581.29L791.106 579.282L801.206 574.173L800.541 577.089Z" fill="#050000"/>
<path fill-rule="evenodd" clip-rule="evenodd" d="M681.462 770.446L887.352 743.382L945.732 884.284L681.462 770.446Z" fill="#DFDFC4"/>
<path fill-rule="evenodd" clip-rule="evenodd" d="M626.239 848.271L945.732 884.285L681.462 770.446L626.239 848.271Z" fill="#C0B79B"/>
<path d="M661.189 838.407L662.498 824.806L657.091 824.285L657.305 822.056L670.823 823.357L670.608 825.586L665.201 825.066L663.892 838.667L661.189 838.407Z" fill="#050000"/>
<path d="M671.562 839.405L673.085 823.574L675.788 823.834L675.145 830.523L683.813 831.358L684.456 824.668L687.16 824.929L685.637 840.759L682.933 840.499L683.598 833.587L674.93 832.753L674.265 839.665L671.562 839.405Z" fill="#050000"/>
<path d="M693.63 832.302L701.963 833.104L701.751 835.306L693.418 834.504L693.63 832.302ZM693.413 839.229L702.583 840.112L702.365 842.369L690.492 841.227L692.016 825.396L703.582 826.509L703.368 828.738L694.505 827.886L693.413 839.229Z" fill="#050000"/>
<path d="M712.758 843.369L714.281 827.538L716.594 827.761L722.424 839.967L721.365 839.865L729.304 828.984L731.645 829.209L730.149 845.043L727.557 844.793L728.653 833.112L729.071 833.153L722.249 842.37L720.995 842.249L715.888 831.884L716.473 831.94L715.35 843.619L712.758 843.369Z" fill="#050000"/>
<path d="M732.278 845.247L741.047 830.114L743.723 830.371L749.474 846.902L746.743 846.639L741.803 831.621L742.722 831.71L734.925 845.502L732.278 845.247ZM735.956 841.804L736.888 839.728L745.583 840.564L746.102 842.78L735.956 841.804Z" fill="#050000"/>
<path d="M763.098 843.656C763.005 844.622 762.665 845.434 762.077 846.09C761.507 846.747 760.72 847.225 759.716 847.522C758.731 847.821 757.561 847.905 756.204 847.775C754.978 847.657 753.795 847.374 752.657 846.927C751.539 846.463 750.682 845.912 750.088 845.273L751.351 843.257C751.934 843.82 752.683 844.314 753.599 844.739C754.516 845.146 755.495 845.4 756.536 845.5C757.873 845.629 758.832 845.505 759.412 845.13C759.994 844.736 760.313 844.241 760.371 843.647C760.421 843.127 760.284 842.701 759.959 842.37C759.655 842.022 759.223 841.736 758.663 841.514C758.105 841.272 757.489 841.044 756.816 840.829C756.162 840.616 755.499 840.384 754.83 840.132C754.179 839.882 753.581 839.571 753.035 839.2C752.508 838.83 752.094 838.359 751.793 837.786C751.493 837.195 751.384 836.481 751.464 835.645C751.555 834.697 751.895 833.896 752.483 833.24C753.071 832.584 753.858 832.106 754.843 831.807C755.828 831.508 756.981 831.422 758.3 831.549C759.266 831.642 760.212 831.845 761.138 832.16C762.066 832.455 762.851 832.878 763.492 833.427L762.307 835.507C761.683 834.978 760.99 834.583 760.227 834.322C759.483 834.063 758.74 833.898 757.996 833.826C756.733 833.705 755.792 833.839 755.173 834.23C754.574 834.603 754.245 835.106 754.184 835.738C754.134 836.258 754.27 836.693 754.593 837.043C754.917 837.374 755.349 837.66 755.889 837.899C756.449 838.122 757.065 838.341 757.738 838.555C758.411 838.77 759.074 839.003 759.725 839.253C760.376 839.503 760.974 839.814 761.52 840.185C762.065 840.556 762.479 841.027 762.762 841.599C763.065 842.153 763.177 842.839 763.098 843.656Z" fill="#050000"/>
<path d="M768.391 848.722L769.7 835.121L764.293 834.601L764.507 832.371L778.025 833.672L777.81 835.902L772.403 835.381L771.094 848.983L768.391 848.722Z" fill="#050000"/>
<path d="M781.901 840.796L790.234 841.598L790.023 843.8L781.689 842.998L781.901 840.796ZM781.684 847.723L790.854 848.605L790.637 850.863L778.764 849.721L780.287 833.89L791.854 835.003L791.639 837.232L782.776 836.379L781.684 847.723Z" fill="#050000"/>
<path d="M794.102 851.196L795.625 835.366L802.091 835.988C803.485 836.122 804.662 836.46 805.622 837.003C806.584 837.527 807.304 838.233 807.781 839.123C808.26 839.994 808.442 841.025 808.327 842.214C808.216 843.366 807.842 844.333 807.204 845.115C806.566 845.898 805.724 846.464 804.678 846.813C803.634 847.144 802.414 847.242 801.021 847.108L796.06 846.631L797.376 845.52L796.805 851.457L794.102 851.196ZM804.693 852.216L801.12 846.077L804.047 846.359L807.619 852.497L804.693 852.216ZM797.347 845.827L796.439 844.445L801.066 844.89C802.441 845.023 803.509 844.835 804.27 844.327C805.05 843.821 805.492 843.029 805.596 841.951C805.7 840.873 805.417 840.011 804.748 839.366C804.097 838.722 803.084 838.334 801.709 838.201L797.083 837.756L798.237 836.573L797.347 845.827Z" fill="#050000"/>
<path fill-rule="evenodd" clip-rule="evenodd" d="M626.239 848.271L945.732 884.285L949.704 959.25L626.239 848.271Z" fill="#A49E8C"/>
<path fill-rule="evenodd" clip-rule="evenodd" d="M461.106 889.981L455.936 941.719L651.445 1025.08L461.106 889.981Z" fill="#A49E8C"/>
<path fill-rule="evenodd" clip-rule="evenodd" d="M651.445 1025.08L658.773 900.016L573.87 879.227L461.106 889.981L651.445 1025.08Z" fill="#C0B79B"/>
<path d="M539.654 902.43C538.951 902.242 538.382 901.949 537.947 901.553C537.514 901.147 537.231 900.655 537.095 900.078C536.972 899.494 537.005 898.846 537.196 898.134L538.374 893.739L539.685 894.09L538.515 898.458C538.315 899.207 538.338 899.822 538.586 900.303C538.843 900.788 539.305 901.119 539.972 901.298C540.639 901.477 541.199 901.424 541.652 901.14C542.116 900.848 542.45 900.324 542.653 899.567L543.823 895.199L545.108 895.543L543.931 899.938C543.74 900.651 543.44 901.227 543.032 901.669C542.635 902.104 542.148 902.389 541.571 902.524C540.996 902.65 540.357 902.619 539.654 902.43Z" fill="#050000"/>
<path d="M545.318 903.832L547.376 896.151L548.458 896.441L551.77 903.822L551.27 903.688L552.893 897.629L554.205 897.981L552.147 905.662L551.065 905.372L547.739 897.988L548.253 898.125L546.629 904.183L545.318 903.832Z" fill="#050000"/>
<path d="M554.503 906.293L556.561 898.612L559.901 899.507C560.766 899.739 561.472 900.097 562.019 900.582C562.575 901.069 562.946 901.647 563.134 902.316C563.331 902.987 563.326 903.71 563.118 904.485C562.91 905.261 562.553 905.89 562.047 906.373C561.55 906.858 560.939 907.172 560.214 907.316C559.499 907.463 558.708 907.42 557.843 907.188L554.503 906.293ZM556.108 905.549L558.082 906.078C558.713 906.247 559.279 906.283 559.778 906.185C560.281 906.078 560.704 905.848 561.05 905.497C561.395 905.145 561.643 904.689 561.793 904.13C561.945 903.562 561.958 903.044 561.833 902.576C561.709 902.098 561.457 901.687 561.076 901.344C560.694 901 560.188 900.744 559.557 900.574L557.583 900.045L556.108 905.549Z" fill="#050000"/>
<path d="M566.011 904.623L570.055 905.706L569.768 906.775L565.725 905.691L566.011 904.623ZM565.333 908.021L569.782 909.213L569.488 910.308L563.727 908.765L565.785 901.084L571.398 902.588L571.108 903.669L566.807 902.517L565.333 908.021Z" fill="#050000"/>
<path d="M571.169 910.759L573.227 903.078L576.365 903.919C577.041 904.1 577.593 904.364 578.022 904.711C578.453 905.048 578.75 905.456 578.912 905.934C579.076 906.404 579.081 906.927 578.926 907.504C578.776 908.063 578.512 908.509 578.133 908.842C577.753 909.175 577.292 909.385 576.747 909.471C576.204 909.547 575.595 909.495 574.919 909.314L572.512 908.669L573.253 908.23L572.481 911.11L571.169 910.759ZM576.308 912.136L575.053 908.814L576.473 909.194L577.728 912.516L576.308 912.136ZM573.213 908.379L572.879 907.623L575.124 908.224C575.791 908.403 576.333 908.398 576.751 908.211C577.177 908.025 577.461 907.671 577.601 907.149C577.741 906.626 577.673 906.177 577.396 905.804C577.128 905.432 576.661 905.157 575.994 904.979L573.749 904.377L574.416 903.889L573.213 908.379Z" fill="#050000"/>
<path d="M585.372 912.217C585.247 912.685 585.012 913.057 584.667 913.332C584.332 913.61 583.905 913.78 583.385 913.844C582.875 913.91 582.291 913.855 581.632 913.678C581.037 913.519 580.478 913.282 579.953 912.968C579.44 912.647 579.063 912.304 578.823 911.94L579.612 911.05C579.853 911.376 580.182 911.681 580.598 911.967C581.017 912.243 581.479 912.449 581.984 912.584C582.633 912.758 583.116 912.776 583.433 912.639C583.752 912.493 583.951 912.275 584.028 911.987C584.096 911.734 584.063 911.513 583.93 911.323C583.809 911.126 583.62 910.95 583.362 910.794C583.107 910.629 582.822 910.466 582.508 910.304C582.202 910.145 581.895 909.976 581.586 909.796C581.285 909.619 581.016 909.416 580.777 909.188C580.548 908.962 580.383 908.696 580.282 908.389C580.183 908.072 580.188 907.711 580.296 907.306C580.42 906.846 580.653 906.478 580.998 906.203C581.342 905.929 581.769 905.758 582.28 905.692C582.79 905.626 583.365 905.678 584.005 905.85C584.474 905.976 584.924 906.154 585.355 906.385C585.788 906.608 586.14 906.881 586.411 907.205L585.655 908.133C585.391 907.82 585.081 907.568 584.727 907.377C584.381 907.187 584.028 907.045 583.668 906.948C583.055 906.784 582.58 906.772 582.242 906.914C581.916 907.049 581.712 907.269 581.63 907.576C581.562 907.828 581.593 908.054 581.724 908.253C581.856 908.443 582.046 908.62 582.292 908.782C582.55 908.938 582.836 909.097 583.15 909.259C583.464 909.42 583.772 909.589 584.072 909.767C584.372 909.944 584.642 910.146 584.88 910.375C585.119 910.603 585.284 910.869 585.376 911.174C585.48 911.472 585.479 911.82 585.372 912.217Z" fill="#050000"/>
<path d="M587.564 915.152L589.332 908.553L586.709 907.85L586.999 906.768L593.557 908.525L593.267 909.607L590.644 908.904L588.876 915.503L587.564 915.152Z" fill="#050000"/>
<path d="M590.796 916.018L596.37 909.279L597.668 909.627L599.14 918.254L597.815 917.899L596.618 910.085L597.064 910.204L592.081 916.362L590.796 916.018ZM592.895 914.624L593.525 913.676L597.744 914.807L597.817 915.942L592.895 914.624Z" fill="#050000"/>
<path d="M600.171 918.53L602.229 910.849L603.311 911.139L606.623 918.52L606.123 918.385L607.746 912.327L609.058 912.679L607 920.36L605.918 920.07L602.592 912.685L603.106 912.823L601.482 918.881L600.171 918.53Z" fill="#050000"/>
<path d="M609.356 920.991L611.414 913.31L614.754 914.205C615.62 914.437 616.326 914.795 616.872 915.28C617.428 915.767 617.799 916.345 617.987 917.013C618.184 917.685 618.179 918.408 617.971 919.183C617.763 919.959 617.406 920.588 616.9 921.07C616.403 921.556 615.792 921.87 615.068 922.014C614.352 922.161 613.561 922.118 612.696 921.886L609.356 920.991ZM610.961 920.247L612.935 920.776C613.566 920.945 614.132 920.981 614.632 920.883C615.134 920.776 615.557 920.546 615.903 920.194C616.249 919.842 616.496 919.387 616.646 918.828C616.798 918.26 616.811 917.742 616.686 917.273C616.562 916.796 616.31 916.385 615.929 916.042C615.547 915.698 615.041 915.441 614.41 915.272L612.436 914.743L610.961 920.247Z" fill="#050000"/>
<path d="M618.58 923.463L620.639 915.782L621.95 916.133L619.892 923.814L618.58 923.463Z" fill="#050000"/>
<path d="M622.232 924.441L624.29 916.76L625.372 917.05L628.685 924.431L628.184 924.297L629.808 918.239L631.119 918.59L629.061 926.271L627.979 925.981L624.653 918.597L625.167 918.734L623.544 924.793L622.232 924.441Z" fill="#050000"/>
<path d="M638.13 927.759C637.822 927.899 637.49 928.003 637.133 928.072C636.779 928.131 636.411 928.153 636.029 928.138C635.649 928.113 635.274 928.052 634.904 927.953C634.093 927.735 633.413 927.369 632.865 926.855C632.316 926.341 631.937 925.737 631.727 925.043C631.528 924.342 631.529 923.618 631.73 922.87C631.935 922.103 632.296 921.476 632.814 920.986C633.343 920.49 633.964 920.154 634.678 919.978C635.401 919.805 636.164 919.826 636.966 920.041C637.633 920.219 638.202 920.478 638.671 920.816C639.141 921.155 639.498 921.574 639.74 922.074L638.674 922.701C638.461 922.306 638.184 921.986 637.844 921.74C637.516 921.488 637.131 921.302 636.689 921.184C636.139 921.037 635.61 921.025 635.103 921.15C634.608 921.269 634.177 921.506 633.811 921.862C633.454 922.221 633.202 922.675 633.055 923.225C632.912 923.757 632.909 924.273 633.046 924.773C633.185 925.265 633.442 925.691 633.819 926.053C634.195 926.415 634.663 926.671 635.222 926.82C635.655 926.936 636.068 926.979 636.463 926.95C636.86 926.911 637.249 926.793 637.63 926.596L638.13 927.759ZM636.855 927.432L637.663 924.416L638.935 924.757L638.13 927.759L636.855 927.432Z" fill="#050000"/>
<path d="M531.023 917.602L531.821 914.627L531.849 915.547L529.931 909.076L531.324 909.449L532.926 914.72L532.209 914.528L536.205 910.758L537.558 911.12L532.674 915.768L533.132 914.978L532.335 917.953L531.023 917.602Z" fill="#050000"/>
<path d="M539.609 920.018C538.816 919.806 538.15 919.443 537.61 918.932C537.071 918.42 536.696 917.817 536.486 917.123C536.287 916.423 536.29 915.694 536.492 914.936C536.693 914.188 537.053 913.565 537.573 913.066C538.102 912.57 538.728 912.236 539.451 912.062C540.174 911.889 540.932 911.908 541.725 912.121C542.528 912.336 543.194 912.698 543.724 913.207C544.264 913.719 544.634 914.32 544.835 915.012C545.045 915.706 545.05 916.427 544.85 917.176C544.647 917.933 544.28 918.564 543.748 919.069C543.228 919.567 542.607 919.903 541.884 920.077C541.17 920.253 540.412 920.233 539.609 920.018ZM539.914 918.882C540.464 919.03 540.983 919.038 541.472 918.908C541.97 918.781 542.397 918.538 542.754 918.179C543.123 917.814 543.378 917.366 543.521 916.834C543.668 916.284 543.671 915.768 543.53 915.286C543.4 914.797 543.151 914.372 542.784 914.013C542.425 913.656 541.971 913.404 541.421 913.257C540.88 913.112 540.361 913.103 539.863 913.23C539.367 913.349 538.937 913.586 538.571 913.942C538.214 914.301 537.961 914.755 537.814 915.305C537.672 915.837 537.664 916.352 537.792 916.85C537.93 917.341 538.184 917.766 538.551 918.126C538.919 918.485 539.373 918.737 539.914 918.882Z" fill="#050000"/>
<path d="M548.711 922.457C548.008 922.269 547.439 921.976 547.004 921.579C546.572 921.173 546.288 920.682 546.153 920.105C546.029 919.521 546.063 918.873 546.253 918.16L547.431 913.765L548.743 914.117L547.572 918.485C547.372 919.233 547.395 919.848 547.643 920.33C547.9 920.814 548.362 921.146 549.029 921.325C549.696 921.503 550.256 921.451 550.709 921.166C551.174 920.875 551.507 920.351 551.71 919.594L552.881 915.226L554.165 915.57L552.988 919.965C552.797 920.677 552.497 921.254 552.089 921.695C551.693 922.13 551.206 922.415 550.628 922.55C550.053 922.676 549.414 922.645 548.711 922.457Z" fill="#050000"/>
<path d="M554.375 923.859L556.433 916.178L559.57 917.018C560.247 917.199 560.799 917.463 561.228 917.81C561.659 918.148 561.956 918.556 562.117 919.034C562.282 919.503 562.286 920.026 562.132 920.603C561.982 921.162 561.718 921.608 561.338 921.942C560.959 922.275 560.497 922.484 559.952 922.57C559.41 922.647 558.801 922.595 558.125 922.414L555.718 921.769L556.458 921.33L555.687 924.21L554.375 923.859ZM559.514 925.236L558.259 921.914L559.679 922.294L560.934 925.616L559.514 925.236ZM556.419 921.478L556.085 920.722L558.33 921.324C558.997 921.503 559.539 921.498 559.957 921.31C560.383 921.125 560.666 920.771 560.807 920.248C560.947 919.725 560.878 919.277 560.602 918.903C560.334 918.532 559.866 918.257 559.199 918.078L556.955 917.477L557.622 916.989L556.419 921.478Z" fill="#050000"/>
<path d="M568.578 925.316C568.452 925.785 568.217 926.157 567.873 926.432C567.538 926.709 567.111 926.88 566.591 926.943C566.081 927.01 565.496 926.955 564.838 926.778C564.243 926.619 563.683 926.382 563.159 926.067C562.646 925.746 562.269 925.404 562.028 925.04L562.818 924.15C563.059 924.475 563.388 924.781 563.804 925.066C564.223 925.343 564.685 925.549 565.189 925.684C565.838 925.858 566.322 925.876 566.639 925.739C566.958 925.592 567.156 925.375 567.234 925.087C567.301 924.834 567.269 924.613 567.136 924.423C567.015 924.226 566.825 924.05 566.568 923.894C566.312 923.728 566.028 923.565 565.713 923.404C565.408 923.245 565.101 923.075 564.791 922.896C564.491 922.719 564.222 922.516 563.983 922.288C563.754 922.062 563.588 921.796 563.487 921.488C563.388 921.172 563.393 920.811 563.502 920.405C563.625 919.945 563.859 919.578 564.203 919.303C564.547 919.028 564.975 918.858 565.485 918.792C565.996 918.725 566.571 918.778 567.211 918.95C567.68 919.075 568.13 919.254 568.561 919.485C568.994 919.707 569.346 919.981 569.617 920.304L568.861 921.232C568.596 920.92 568.287 920.668 567.933 920.476C567.587 920.287 567.234 920.144 566.874 920.048C566.26 919.883 565.785 919.872 565.448 920.013C565.122 920.148 564.918 920.369 564.836 920.676C564.768 920.928 564.799 921.154 564.929 921.353C565.062 921.543 565.252 921.719 565.498 921.882C565.756 922.038 566.042 922.197 566.356 922.358C566.67 922.52 566.977 922.689 567.278 922.866C567.578 923.043 567.848 923.246 568.086 923.474C568.324 923.702 568.49 923.969 568.582 924.274C568.686 924.572 568.684 924.92 568.578 925.316Z" fill="#050000"/>
<path d="M571.82 923.779L575.863 924.862L575.577 925.931L571.534 924.847L571.82 923.779ZM571.141 927.177L575.59 928.369L575.297 929.465L569.536 927.921L571.594 920.24L577.206 921.744L576.916 922.826L572.616 921.673L571.141 927.177Z" fill="#050000"/>
<path d="M576.978 929.915L579.036 922.234L580.348 922.585L578.583 929.171L582.708 930.276L582.414 931.372L576.978 929.915Z" fill="#050000"/>
<path d="M585.768 927.879L589.798 928.959L589.508 930.04L585.478 928.961L585.768 927.879ZM584.873 932.031L583.561 931.679L585.619 923.998L591.231 925.502L590.942 926.584L586.641 925.431L584.873 932.031Z" fill="#050000"/>
<path d="M596.538 933.257L598.125 927.334L599.261 927.639L597.674 933.562L596.538 933.257ZM594.725 930.177L595.012 929.109L601.07 930.732L600.784 931.801L594.725 930.177Z" fill="#050000"/>
<path d="M606.835 937.915L607.633 934.94L607.661 935.861L605.743 929.39L607.136 929.763L608.738 935.034L608.021 934.842L612.017 931.071L613.37 931.434L608.486 936.082L608.944 935.292L608.147 938.267L606.835 937.915Z" fill="#050000"/>
<path d="M615.421 940.332C614.628 940.119 613.962 939.757 613.422 939.246C612.883 938.734 612.508 938.131 612.298 937.437C612.1 936.736 612.102 936.007 612.305 935.25C612.505 934.502 612.865 933.878 613.385 933.38C613.914 932.884 614.54 932.549 615.263 932.376C615.986 932.202 616.744 932.222 617.538 932.435C618.34 932.649 619.006 933.012 619.536 933.521C620.076 934.033 620.446 934.634 620.647 935.326C620.857 936.02 620.862 936.741 620.662 937.489C620.459 938.247 620.092 938.878 619.56 939.383C619.04 939.881 618.419 940.217 617.696 940.391C616.982 940.566 616.224 940.547 615.421 940.332ZM615.726 939.196C616.276 939.343 616.795 939.352 617.284 939.222C617.782 939.095 618.21 938.852 618.566 938.493C618.935 938.128 619.19 937.68 619.333 937.148C619.48 936.598 619.483 936.082 619.342 935.599C619.212 935.11 618.963 934.686 618.596 934.327C618.237 933.97 617.783 933.718 617.233 933.57C616.692 933.425 616.173 933.417 615.675 933.544C615.179 933.663 614.749 933.9 614.383 934.256C614.026 934.615 613.773 935.069 613.626 935.619C613.484 936.151 613.476 936.665 613.604 937.163C613.742 937.655 613.996 938.08 614.363 938.44C614.731 938.799 615.185 939.051 615.726 939.196Z" fill="#050000"/>
<path d="M624.523 942.771C623.82 942.582 623.251 942.29 622.816 941.893C622.384 941.487 622.1 940.996 621.965 940.418C621.841 939.834 621.875 939.186 622.065 938.474L623.243 934.079L624.555 934.431L623.384 938.799C623.184 939.547 623.207 940.162 623.455 940.644C623.712 941.128 624.174 941.46 624.841 941.638C625.508 941.817 626.068 941.764 626.521 941.48C626.986 941.189 627.319 940.665 627.522 939.907L628.693 935.539L629.977 935.884L628.8 940.279C628.609 940.991 628.31 941.568 627.901 942.009C627.505 942.444 627.018 942.729 626.44 942.864C625.865 942.99 625.226 942.959 624.523 942.771Z" fill="#050000"/>
<path d="M630.187 944.172L632.245 936.491L635.382 937.332C636.059 937.513 636.611 937.777 637.04 938.124C637.471 938.462 637.768 938.87 637.929 939.348C638.094 939.817 638.098 940.34 637.944 940.917C637.794 941.476 637.53 941.922 637.15 942.255C636.771 942.589 636.309 942.798 635.764 942.884C635.222 942.961 634.613 942.909 633.937 942.728L631.53 942.083L632.27 941.643L631.499 944.524L630.187 944.172ZM635.326 945.549L634.071 942.227L635.491 942.608L636.746 945.93L635.326 945.549ZM632.231 941.792L631.897 941.036L634.142 941.638C634.809 941.816 635.351 941.812 635.769 941.624C636.195 941.439 636.478 941.085 636.619 940.562C636.759 940.039 636.69 939.591 636.414 939.217C636.146 938.846 635.679 938.571 635.011 938.392L632.767 937.791L633.434 937.303L632.231 941.792Z" fill="#050000"/>
<path d="M547.092 939.507L552.666 932.768L553.964 933.116L555.435 941.742L554.11 941.387L552.914 933.573L553.36 933.693L548.376 939.851L547.092 939.507ZM549.19 938.112L549.821 937.165L554.04 938.296L554.112 939.431L549.19 938.112Z" fill="#050000"/>
<path d="M559.525 942.954C558.822 942.766 558.253 942.473 557.818 942.077C557.386 941.671 557.102 941.179 556.967 940.602C556.843 940.018 556.877 939.37 557.068 938.658L558.245 934.263L559.557 934.614L558.387 938.982C558.186 939.73 558.21 940.346 558.457 940.827C558.714 941.312 559.176 941.643 559.843 941.822C560.51 942.001 561.07 941.948 561.523 941.663C561.988 941.372 562.322 940.848 562.525 940.091L563.695 935.723L564.98 936.067L563.802 940.462C563.611 941.174 563.312 941.751 562.904 942.193C562.507 942.627 562.02 942.912 561.442 943.048C560.868 943.174 560.228 943.143 559.525 942.954Z" fill="#050000"/>
<path d="M565.189 944.356L567.247 936.675L570.587 937.57C571.453 937.802 572.159 938.16 572.705 938.645C573.261 939.132 573.633 939.71 573.821 940.378C574.018 941.05 574.012 941.773 573.805 942.548C573.597 943.324 573.24 943.953 572.734 944.435C572.236 944.921 571.626 945.235 570.901 945.379C570.185 945.526 569.395 945.483 568.529 945.251L565.189 944.356ZM566.794 943.612L568.769 944.141C569.4 944.31 569.965 944.346 570.465 944.248C570.967 944.141 571.391 943.911 571.736 943.559C572.082 943.207 572.33 942.752 572.479 942.193C572.631 941.625 572.645 941.107 572.519 940.638C572.396 940.161 572.143 939.75 571.762 939.407C571.381 939.063 570.875 938.806 570.243 938.637L568.269 938.108L566.794 943.612Z" fill="#050000"/>
<path d="M574.414 946.828L576.472 939.147L577.784 939.498L575.726 947.179L574.414 946.828Z" fill="#050000"/>
<path d="M580.349 943.664L584.393 944.748L584.106 945.816L580.063 944.732L580.349 943.664ZM579.671 947.062L584.12 948.254L583.826 949.35L578.066 947.806L580.124 940.125L585.736 941.629L585.446 942.711L581.145 941.558L579.671 947.062Z" fill="#050000"/>
<path d="M585.507 949.8L587.565 942.119L588.647 942.409L591.96 949.79L591.46 949.656L593.083 943.598L594.395 943.949L592.336 951.63L591.255 951.34L587.929 943.956L588.442 944.093L586.819 950.152L585.507 949.8Z" fill="#050000"/>
<path d="M598.112 953.294C597.318 953.081 596.652 952.719 596.113 952.207C595.574 951.695 595.203 951.094 595.002 950.402C594.803 949.701 594.804 948.977 595.005 948.229C595.21 947.462 595.572 946.835 596.089 946.345C596.609 945.847 597.231 945.511 597.954 945.337C598.676 945.164 599.435 945.184 600.228 945.396C600.886 945.572 601.441 945.827 601.893 946.161C602.344 946.495 602.692 946.911 602.935 947.411L601.868 948.039C601.664 947.646 601.401 947.329 601.079 947.088C600.759 946.838 600.388 946.656 599.964 946.543C599.414 946.396 598.886 946.384 598.379 946.509C597.883 946.628 597.452 946.865 597.086 947.221C596.73 947.58 596.477 948.034 596.33 948.584C596.187 949.116 596.18 949.631 596.307 950.129C596.446 950.62 596.7 951.045 597.067 951.405C597.444 951.767 597.907 952.021 598.457 952.168C598.88 952.282 599.293 952.31 599.695 952.254C600.097 952.197 600.484 952.05 600.857 951.811L601.467 952.888C601.007 953.2 600.492 953.39 599.922 953.46C599.364 953.523 598.761 953.467 598.112 953.294Z" fill="#050000"/>
<path d="M604.946 950.255L608.99 951.338L608.703 952.407L604.66 951.323L604.946 950.255ZM604.268 953.653L608.717 954.845L608.423 955.941L602.663 954.397L604.721 946.716L610.333 948.22L610.043 949.301L605.742 948.149L604.268 953.653Z" fill="#050000"/>
<path fill-rule="evenodd" clip-rule="evenodd" d="M651.445 1025.08L811.011 1034.7L658.773 900.016L651.445 1025.08Z" fill="#DFDFC4"/>
<path fill-rule="evenodd" clip-rule="evenodd" d="M626.239 848.271L658.773 900.016L949.704 959.251L626.239 848.271Z" fill="#DFDFC4"/>
<path fill-rule="evenodd" clip-rule="evenodd" d="M658.773 900.016L811.011 1034.7L949.704 959.25L658.773 900.016Z" fill="#A49E8C"/>
<path d="M712.843 941.027L714.972 929.868L719.825 930.795C721.082 931.035 722.125 931.471 722.955 932.105C723.797 932.74 724.387 933.525 724.725 934.458C725.076 935.394 725.144 936.425 724.929 937.551C724.714 938.678 724.271 939.611 723.6 940.352C722.942 941.095 722.105 941.607 721.087 941.888C720.083 942.171 718.952 942.193 717.695 941.953L712.843 941.027ZM715.052 939.799L717.92 940.347C718.837 940.522 719.646 940.513 720.348 940.322C721.052 940.117 721.632 939.745 722.088 939.208C722.543 938.671 722.848 937.996 723.003 937.184C723.161 936.359 723.126 935.619 722.898 934.965C722.672 934.297 722.27 933.738 721.69 933.289C721.111 932.839 720.363 932.526 719.446 932.351L716.578 931.804L715.052 939.799Z" fill="#050000"/>
<path d="M729.065 937.445L734.939 938.566L734.643 940.118L728.769 938.997L729.065 937.445ZM728.453 942.357L734.916 943.591L734.613 945.182L726.244 943.585L728.373 932.426L736.526 933.982L736.226 935.554L729.979 934.362L728.453 942.357Z" fill="#050000"/>
<path d="M739.802 940.003L745.656 941.121L745.356 942.692L739.502 941.575L739.802 940.003ZM738.96 946.012L737.055 945.648L739.185 934.49L747.337 936.046L747.037 937.618L740.79 936.425L738.96 946.012Z" fill="#050000"/>
<path d="M747.348 947.613L749.478 936.454L751.383 936.818L749.253 947.977L747.348 947.613Z" fill="#050000"/>
<path d="M752.653 948.626L754.783 937.467L756.354 937.767L761.845 947.937L761.118 947.798L762.798 938.997L764.704 939.361L762.574 950.519L761.002 950.219L755.492 940.046L756.238 940.188L754.558 948.989L752.653 948.626Z" fill="#050000"/>
<path d="M765.996 951.172L768.126 940.014L770.032 940.378L767.902 951.536L765.996 951.172Z" fill="#050000"/>
<path d="M771.301 952.185L773.431 941.026L775.003 941.326L780.493 951.496L779.767 951.357L781.446 942.556L783.352 942.92L781.222 954.079L779.651 953.779L774.14 943.605L774.887 943.748L773.207 952.549L771.301 952.185Z" fill="#050000"/>
<path d="M794.299 955.251C793.874 955.482 793.412 955.666 792.911 955.801C792.413 955.923 791.89 955.993 791.344 956.011C790.8 956.015 790.26 955.966 789.723 955.864C788.544 955.639 787.537 955.189 786.702 954.514C785.867 953.839 785.264 953.018 784.892 952.051C784.535 951.073 784.461 950.041 784.669 948.954C784.881 947.841 785.33 946.908 786.017 946.157C786.719 945.395 787.569 944.852 788.568 944.526C789.58 944.204 790.668 944.154 791.834 944.376C792.803 944.561 793.64 944.87 794.345 945.303C795.049 945.736 795.601 946.296 795.999 946.983L794.545 947.988C794.2 947.448 793.773 947.02 793.262 946.705C792.768 946.38 792.2 946.156 791.558 946.034C790.759 945.881 790.005 945.921 789.296 946.152C788.602 946.372 788.013 946.755 787.529 947.301C787.058 947.849 786.746 948.522 786.594 949.321C786.446 950.094 786.496 950.83 786.743 951.528C786.992 952.214 787.404 952.795 787.978 953.271C788.552 953.747 789.245 954.063 790.057 954.218C790.686 954.338 791.28 954.356 791.838 954.272C792.4 954.176 792.942 953.967 793.465 953.646L794.299 955.251ZM792.448 954.918L793.284 950.537L795.131 950.89L794.299 955.251L792.448 954.918Z" fill="#050000"/>
<path d="M803.973 958.421L805.803 948.834L801.992 948.107L802.292 946.535L811.82 948.354L811.52 949.925L807.708 949.198L805.878 958.785L803.973 958.421Z" fill="#050000"/>
<path d="M811.284 959.817L813.414 948.658L815.32 949.022L814.42 953.737L820.529 954.903L821.429 950.188L823.335 950.552L821.205 961.71L819.299 961.346L820.229 956.474L814.12 955.308L813.19 960.18L811.284 959.817Z" fill="#050000"/>
<path d="M827.449 956.224L833.323 957.345L833.027 958.897L827.153 957.776L827.449 956.224ZM826.837 961.136L833.3 962.37L832.997 963.961L824.628 962.363L826.758 951.205L834.91 952.761L834.61 954.333L828.363 953.14L826.837 961.136Z" fill="#050000"/>
<path d="M840.322 965.359L842.452 954.2L847.618 955.187C848.967 955.444 849.945 955.902 850.553 956.561C851.175 957.209 851.402 957.979 851.232 958.869C851.062 959.76 850.628 960.397 849.931 960.779C849.246 961.165 848.426 961.266 847.47 961.083L847.866 960.609C848.953 960.817 849.763 961.229 850.297 961.847C850.831 962.465 851.005 963.258 850.82 964.227C850.64 965.17 850.126 965.839 849.277 966.233C848.428 966.628 847.276 966.686 845.822 966.409L840.322 965.359ZM842.505 964.269L846.002 964.936C846.84 965.096 847.508 965.081 848.006 964.891C848.506 964.688 848.812 964.292 848.925 963.703C849.04 963.1 848.901 962.619 848.508 962.259C848.115 961.899 847.5 961.639 846.662 961.479L842.85 960.751L843.128 959.298L846.527 959.946C847.312 960.096 847.942 960.067 848.416 959.859C848.89 959.651 849.18 959.272 849.285 958.722C849.39 958.172 849.259 957.719 848.893 957.364C848.526 957.009 847.95 956.757 847.164 956.607L844.08 956.018L842.505 964.269Z" fill="#050000"/>
<path d="M852.572 967.697L854.701 956.539L859.259 957.409C860.241 957.596 861.056 957.914 861.703 958.364C862.353 958.8 862.818 959.35 863.099 960.015C863.382 960.666 863.443 961.411 863.283 962.249C863.128 963.061 862.798 963.724 862.292 964.238C861.787 964.753 861.151 965.1 860.384 965.279C859.619 965.445 858.745 965.435 857.763 965.247L854.266 964.58L855.276 963.876L854.477 968.061L852.572 967.697ZM860.037 969.122L857.902 964.52L859.965 964.914L862.1 969.516L860.037 969.122ZM855.235 964.093L854.68 963.05L857.941 963.673C858.911 963.858 859.683 963.795 860.258 963.484C860.846 963.175 861.213 962.641 861.358 961.881C861.503 961.122 861.359 960.49 860.925 959.987C860.505 959.486 859.811 959.143 858.841 958.958L855.58 958.335L856.48 957.57L855.235 964.093Z" fill="#050000"/>
<path d="M862.628 969.617L869.865 959.433L871.751 959.793L874.749 971.93L872.824 971.563L870.303 960.555L870.951 960.679L864.494 969.973L862.628 969.617ZM865.472 967.411L866.271 965.996L872.401 967.165L872.623 968.776L865.472 967.411Z" fill="#050000"/>
<path d="M876.247 972.216L878.376 961.058L879.948 961.357L885.439 971.527L884.712 971.389L886.392 962.587L888.297 962.951L886.167 974.11L884.596 973.81L879.086 963.636L879.832 963.779L878.152 972.58L876.247 972.216Z" fill="#050000"/>
<path d="M889.59 974.763L891.72 963.604L896.572 964.531C897.83 964.771 898.873 965.207 899.702 965.841C900.545 966.477 901.135 967.261 901.472 968.194C901.823 969.13 901.891 970.161 901.676 971.287C901.461 972.414 901.018 973.347 900.347 974.088C899.69 974.831 898.852 975.343 897.835 975.624C896.831 975.907 895.7 975.929 894.442 975.689L889.59 974.763ZM891.799 973.535L894.668 974.083C895.584 974.258 896.394 974.249 897.095 974.058C897.8 973.853 898.38 973.481 898.835 972.944C899.291 972.407 899.596 971.732 899.751 970.92C899.908 970.095 899.873 969.355 899.645 968.701C899.419 968.033 899.017 967.474 898.438 967.025C897.859 966.575 897.111 966.262 896.194 966.087L893.326 965.54L891.799 973.535Z" fill="#050000"/>
</svg>
