<svg width="453" height="36" viewBox="0 0 453 36" fill="none" xmlns="http://www.w3.org/2000/svg">
<path d="M64.0082 13.8157C64.0082 13.8157 60.0271 17.9401 57.6379 22.0776C55.2486 26.2152 53.0844 31.9519 53.0844 34.4564C53.0844 35.5138 57.9207 35.9477 58.1201 34.71C58.3811 33.0863 59.7224 29.084 60.5947 26.6612C61.7614 23.4242 64.7211 19.39 65.8858 17.9927C67.2233 16.3887 68.5608 15.3877 68.5608 15.3877L64.0082 13.8157Z" fill="#FBDB4A"/>
<path d="M56.0629 35.5091C55.8626 35.5091 55.6585 35.5007 55.4564 35.4847C54.2916 35.3936 53.0377 35.033 53.0377 34.4555C53.0377 32.012 55.126 26.3325 57.5978 22.0532C59.9633 17.9588 63.935 13.8232 63.9748 13.7819L63.9957 13.7603L68.6612 15.3708L68.59 15.4233C68.5767 15.4337 67.2402 16.4394 65.9227 18.0199C64.9336 19.2069 61.839 23.3444 60.6392 26.6743C59.8475 28.8699 58.437 33.0347 58.1664 34.7147C58.0763 35.279 57.1204 35.5091 56.0629 35.5091ZM64.0213 13.8692C63.7062 14.1997 59.9491 18.1692 57.6785 22.1001C55.2133 26.3673 53.1307 32.0261 53.1307 34.4555C53.1307 34.8846 54.1331 35.2875 55.462 35.3908C56.6505 35.4838 57.9737 35.3072 58.0715 34.7006C58.343 33.0131 59.7564 28.8417 60.549 26.6434C61.7536 23.3012 64.8567 19.1515 65.8486 17.9607C67.0019 16.5765 68.1705 15.6309 68.4628 15.4017L64.0213 13.8692Z" fill="#E09400"/>
<path d="M90.2835 4.9702C90.2835 5.87546 88.7951 6.70936 86.2939 7.37328C82.8045 6.44548 77.3454 5.84917 71.2086 5.84917C65.0717 5.84917 59.6117 6.44548 56.1223 7.37328C53.6211 6.70936 52.1327 5.87546 52.1327 4.9702C52.1327 4.92137 52.1374 4.8716 52.146 4.82276C52.5219 2.723 60.9122 1.04395 71.2086 1.04395C81.504 1.04395 89.8944 2.723 90.2703 4.82276C90.2788 4.8716 90.2835 4.92137 90.2835 4.9702Z" fill="#EDC300"/>
<path d="M86.2936 7.42243L86.2813 7.41961C82.6419 6.45237 77.1487 5.89738 71.2083 5.89738C65.268 5.89738 59.7738 6.45237 56.1344 7.41961L56.1221 7.42243L56.1097 7.41961C53.4765 6.72001 52.085 5.87297 52.085 4.97052C52.085 4.92075 52.0897 4.86816 52.0992 4.81557C52.4827 2.67449 60.8759 0.997314 71.2083 0.997314C81.5399 0.997314 89.933 2.67449 90.3165 4.81463C90.326 4.86816 90.3308 4.91981 90.3308 4.97052C90.3308 5.87297 88.9392 6.72001 86.306 7.41868L86.2936 7.42243ZM71.2083 5.80254C77.1496 5.80254 82.6467 6.35753 86.2936 7.32477C88.8357 6.64864 90.2358 5.81287 90.2358 4.97052C90.2358 4.92544 90.232 4.87849 90.2235 4.83154C90.045 3.83425 87.9947 2.89705 84.4502 2.19275C80.8782 1.48187 76.1757 1.09122 71.2083 1.09122C66.24 1.09122 61.5375 1.48187 57.9664 2.19275C54.422 2.89705 52.3716 3.83425 52.1922 4.83154C52.1837 4.87943 52.1799 4.92544 52.1799 4.97052C52.1799 5.81287 53.58 6.64864 56.1221 7.32477C59.7691 6.35753 65.2661 5.80254 71.2083 5.80254Z" fill="#E09400"/>
<path d="M90.2835 4.9707V9.77592C90.2835 9.93087 90.2399 10.083 90.1554 10.2333C89.0543 12.1865 80.9914 13.7022 71.2086 13.7022C61.4248 13.7022 53.3619 12.1865 52.2608 10.2333C52.1763 10.083 52.1327 9.93087 52.1327 9.77592V4.9707C52.1896 5.9201 53.6211 6.70986 56.1223 7.37378C59.6117 8.30065 65.0717 8.89696 71.2086 8.89696C77.3454 8.89696 82.8045 8.30065 86.2939 7.37378C88.7951 6.70986 90.2835 5.87597 90.2835 4.9707Z" fill="#FBDB4A"/>
<path d="M71.2085 13.7485C61.5054 13.7485 53.3419 12.247 52.219 10.2552C52.1307 10.0974 52.0851 9.93591 52.0851 9.77532V4.9701L52.1801 4.96729C52.2332 5.85095 53.5641 6.6454 56.1346 7.32811C59.7749 8.29535 65.2691 8.8494 71.2085 8.8494C77.147 8.8494 82.6411 8.29441 86.2815 7.32811C88.8311 6.65104 90.236 5.81433 90.236 4.9701H90.3309V9.77532C90.3309 9.93591 90.2854 10.0974 90.1971 10.2552C89.0741 12.247 80.9107 13.7485 71.2085 13.7485ZM52.1801 5.35324V9.77532C52.1801 9.919 52.2209 10.0655 52.3025 10.2101C53.4093 12.1737 61.5377 13.6546 71.2085 13.6546C80.8794 13.6546 89.0067 12.1737 90.1136 10.2101C90.1942 10.0664 90.236 9.91994 90.236 9.77532V5.37578C89.8819 6.1261 88.5407 6.82571 86.3062 7.4192C82.6582 8.38832 77.1555 8.94425 71.2085 8.94425C65.2615 8.94425 59.7578 8.38832 56.1099 7.4192C53.8222 6.81162 52.5284 6.13267 52.1801 5.35324Z" fill="#E09400"/>
<path d="M74.4665 9.33496C74.4665 9.33496 77.2307 10.7943 80.0281 13.2565C82.9489 15.8268 85.5346 19.3924 87.0458 22.0763C89.641 26.6871 91.3629 32.1253 91.5993 34.4551C91.7056 35.5068 86.7629 35.9463 86.5636 34.7086C86.3026 33.085 84.8616 28.5455 83.7804 26.1528C81.9645 22.1345 79.2858 18.6665 75.9853 15.7394C74.42 14.3515 70.0108 11.384 70.0108 11.384L74.4665 9.33496Z" fill="#FBDB4A"/>
<path d="M88.6488 35.5086C87.5591 35.5086 86.6051 35.2673 86.5168 34.717C86.2615 33.129 84.8405 28.6149 83.7375 26.1733C81.989 22.3044 79.37 18.8054 75.9547 15.7759C74.4102 14.4058 70.0295 11.4534 69.9858 11.4243L69.9165 11.3773L74.4682 9.2832L74.489 9.29447C74.5166 9.3095 77.2902 10.7848 80.0601 13.2226C83.0645 15.867 85.6606 19.5191 87.0873 22.0546C89.5753 26.4757 91.3912 31.9317 91.6465 34.4512C91.7006 34.9884 90.6138 35.3208 89.6664 35.4419C89.3285 35.4861 88.983 35.5086 88.6488 35.5086ZM70.1073 11.3924C70.675 11.7764 74.5754 14.4265 76.0173 15.7055C79.4431 18.7443 82.0697 22.2527 83.8239 26.1348C84.9297 28.582 86.3545 33.1093 86.6108 34.702C86.7133 35.3386 88.2388 35.5312 89.6541 35.349C90.8273 35.1987 91.5905 34.8419 91.5516 34.4606C91.2972 31.9495 89.4861 26.5104 87.0038 22.0996C85.5799 19.5707 82.9923 15.929 79.9956 13.2921C77.3614 10.9735 74.7235 9.5283 74.4644 9.38744L70.1073 11.3924Z" fill="#E09400"/>
<path d="M67.418 8.81787C67.418 8.81787 66.4289 9.18974 65.4503 10.5213C64.4716 11.8529 63.8793 13.2475 63.9609 13.701C64.0425 14.1537 65.6126 14.9209 66.5106 15.1228C67.4076 15.3247 69.0726 15.4242 69.0726 15.4242L69.4684 13.8513L69.1276 11.6717L67.418 8.81787Z" fill="#FBDB4A"/>
<path d="M69.1087 15.4724L69.0698 15.4696C69.0527 15.4687 67.3916 15.3673 66.5002 15.1672C65.588 14.9625 64.0018 14.1953 63.9145 13.7079C63.8319 13.2506 64.4138 11.8495 65.4115 10.4926C66.3873 9.16471 67.3603 8.78814 67.4011 8.77312L67.4381 8.75903L69.1742 11.6636L69.516 13.8526L69.5141 13.8619L69.1087 15.4724ZM67.3982 8.87736C67.2112 8.95999 66.3417 9.38821 65.4884 10.5489C64.5192 11.8664 63.9306 13.2638 64.0075 13.692C64.0806 14.0958 65.5681 14.8611 66.5211 15.0762C67.328 15.2574 68.7784 15.3579 69.0357 15.3738L69.4201 13.8479L69.0822 11.6861L67.3982 8.87736Z" fill="#E09400"/>
<path d="M68.9059 11.7448C69.0939 11.6706 73.2487 10.4583 74.5188 9.62066C75.7889 8.78301 76.2141 7.73407 75.1216 7.37346C74.029 7.01286 68.5984 7.08799 67.9387 7.37346C67.3729 7.61762 67.1223 8.3839 67.6254 9.33612C67.7137 9.50328 68.9059 11.7448 68.9059 11.7448Z" fill="#FBDB4A"/>
<path d="M68.8838 11.8038L68.8639 11.7663C68.8639 11.7663 67.6707 9.52471 67.5834 9.35756C67.3081 8.83449 67.235 8.32364 67.3802 7.91796C67.4771 7.64751 67.6688 7.4381 67.9204 7.32916C68.5991 7.03617 74.0429 6.96574 75.1365 7.32729C75.6253 7.48881 75.7601 7.76583 75.7886 7.96961C75.855 8.46168 75.3785 9.10776 74.5451 9.65806C73.4715 10.3661 70.32 11.3493 69.2844 11.6724C69.0917 11.7325 68.9522 11.7757 68.9246 11.7869L68.8838 11.8038ZM71.6119 7.17234C69.9631 7.17234 68.3105 7.26343 67.9574 7.41556C67.7305 7.51416 67.5568 7.70385 67.4685 7.94989C67.3328 8.33021 67.403 8.81477 67.6669 9.31436C67.7485 9.46837 68.7747 11.3991 68.9284 11.6864C68.9873 11.6667 69.0974 11.6329 69.255 11.5832C70.2878 11.2611 73.4297 10.2816 74.4919 9.58105C75.295 9.05142 75.7554 8.43914 75.6937 7.98276C75.6595 7.72827 75.4564 7.532 75.1061 7.4165C74.5907 7.24747 73.1032 7.17234 71.6119 7.17234Z" fill="#E09400"/>
<path d="M68.9051 11.744C68.9051 11.744 69.1823 12.4793 69.2032 13.7001C69.2231 14.9209 68.9469 15.8496 69.0541 15.9698C69.1624 16.0909 72.5274 15.8778 73.4254 14.7631C74.3224 13.6484 71.5506 10.8838 71.5506 10.8838L68.9051 11.744Z" fill="#FBDB4A"/>
<path d="M69.3287 16.0469C69.0601 16.0469 69.0335 16.0159 69.0193 16.0008C68.9585 15.9332 68.9784 15.7642 69.0335 15.3557C69.0895 14.9388 69.1664 14.3678 69.156 13.7001C69.136 12.5028 68.8636 11.7675 68.8617 11.76L68.8446 11.714L71.5642 10.8303L71.5851 10.851C71.6999 10.9646 74.3768 13.6588 73.4636 14.7923C72.69 15.7529 70.2371 16.0253 69.4388 16.045C69.3971 16.0469 69.361 16.0469 69.3287 16.0469ZM68.9661 11.7741C69.0259 11.9544 69.2338 12.6549 69.2509 13.6992C69.2623 14.3734 69.1844 14.9491 69.1275 15.3688C69.0924 15.6308 69.0553 15.9013 69.0895 15.9389C69.2822 16.0375 72.5191 15.8121 73.3877 14.734C74.2088 13.7142 71.7863 11.1928 71.5366 10.9374L68.9661 11.7741Z" fill="#E09400"/>
<g clip-path="url(#clip0_2303_953)">
<path d="M270.207 13.8159C270.207 13.8159 266.225 17.9403 263.836 22.0779C261.447 26.2154 259.283 31.9522 259.283 34.4567C259.283 35.5141 264.119 35.9479 264.318 34.7102C264.579 33.0866 265.921 29.0843 266.793 26.6615C267.96 23.4245 270.919 19.3902 272.084 17.9929C273.422 16.389 274.759 15.3879 274.759 15.3879L270.207 13.8159Z" fill="#9964CF"/>
<path d="M262.261 35.5101C262.061 35.5101 261.857 35.5016 261.655 35.4857C260.49 35.3946 259.236 35.034 259.236 34.4565C259.236 32.013 261.325 26.3335 263.796 22.0542C266.162 17.9598 270.134 13.8241 270.173 13.7828L270.194 13.7612L274.86 15.3717L274.789 15.4243C274.775 15.4347 273.439 16.4404 272.121 18.0209C271.132 19.2078 268.038 23.3454 266.838 26.6753C266.046 28.8709 264.636 33.0356 264.365 34.7156C264.275 35.28 263.319 35.5101 262.261 35.5101ZM270.22 13.8702C269.905 14.2007 266.148 18.1702 263.877 22.1011C261.412 26.3682 259.329 32.0271 259.329 34.4565C259.329 34.8856 260.332 35.2885 261.661 35.3918C262.849 35.4847 264.172 35.3082 264.27 34.7016C264.542 33.014 265.955 28.8427 266.748 26.6443C267.952 23.3022 271.055 19.1524 272.047 17.9617C273.2 16.5775 274.369 15.6319 274.661 15.4027L270.22 13.8702Z" fill="#390F63"/>
<path d="M296.482 4.97044C296.482 5.87571 294.993 6.7096 292.492 7.37352C289.002 6.44572 283.543 5.84941 277.407 5.84941C271.27 5.84941 265.81 6.44572 262.32 7.37352C259.819 6.7096 258.331 5.87571 258.331 4.97044C258.331 4.92161 258.335 4.87184 258.344 4.82301C258.72 2.72325 267.11 1.04419 277.407 1.04419C287.702 1.04419 296.092 2.72325 296.468 4.82301C296.477 4.87184 296.482 4.92161 296.482 4.97044Z" fill="#6524A7"/>
<path d="M292.492 7.42243L292.48 7.41962C288.84 6.45237 283.347 5.89738 277.407 5.89738C271.466 5.89738 265.972 6.45237 262.333 7.41962L262.32 7.42243L262.308 7.41962C259.675 6.72001 258.283 5.87297 258.283 4.97052C258.283 4.92075 258.288 4.86816 258.297 4.81557C258.681 2.67449 267.074 0.997314 277.407 0.997314C287.738 0.997314 296.131 2.67449 296.515 4.81464C296.524 4.86816 296.529 4.91981 296.529 4.97052C296.529 5.87297 295.137 6.72001 292.504 7.41868L292.492 7.42243ZM277.407 5.80254C283.348 5.80254 288.845 6.35753 292.492 7.32477C295.034 6.64864 296.434 5.81287 296.434 4.97052C296.434 4.92545 296.43 4.87849 296.422 4.83154C296.243 3.83425 294.193 2.89705 290.648 2.19275C287.076 1.48187 282.374 1.09122 277.407 1.09122C272.438 1.09122 267.736 1.48187 264.165 2.19275C260.62 2.89705 258.57 3.83425 258.39 4.83154C258.382 4.87943 258.378 4.92545 258.378 4.97052C258.378 5.81287 259.778 6.64864 262.32 7.32477C265.967 6.35753 271.464 5.80254 277.407 5.80254Z" fill="#390F63"/>
<path d="M296.482 4.9707V9.77593C296.482 9.93087 296.438 10.083 296.353 10.2333C295.252 12.1865 287.189 13.7022 277.407 13.7022C267.623 13.7022 259.56 12.1865 258.459 10.2333C258.374 10.083 258.331 9.93087 258.331 9.77593V4.9707C258.388 5.9201 259.819 6.70986 262.32 7.37378C265.81 8.30065 271.27 8.89696 277.407 8.89696C283.543 8.89696 289.002 8.30065 292.492 7.37378C294.993 6.70986 296.482 5.87597 296.482 4.9707Z" fill="#9964CF"/>
<path d="M277.407 13.749C267.703 13.749 259.54 12.2474 258.417 10.2557C258.329 10.0979 258.283 9.93639 258.283 9.77581V4.97059L258.378 4.96777C258.431 5.85144 259.762 6.64589 262.333 7.3286C265.973 8.29584 271.467 8.84989 277.407 8.84989C283.345 8.84989 288.839 8.2949 292.48 7.3286C295.029 6.65153 296.434 5.81481 296.434 4.97059H296.529V9.77581C296.529 9.93639 296.483 10.0979 296.395 10.2557C295.272 12.2474 287.109 13.749 277.407 13.749ZM258.378 5.35373V9.77581C258.378 9.91949 258.419 10.066 258.501 10.2106C259.607 12.1742 267.736 13.6551 277.407 13.6551C287.077 13.6551 295.205 12.1742 296.312 10.2106C296.392 10.0669 296.434 9.92043 296.434 9.77581V5.37627C296.08 6.12659 294.739 6.82619 292.504 7.41969C288.856 8.38881 283.354 8.94474 277.407 8.94474C271.46 8.94474 265.956 8.38881 262.308 7.41969C260.02 6.81211 258.726 6.13316 258.378 5.35373Z" fill="#390F63"/>
<path d="M280.664 9.33594C280.664 9.33594 283.428 10.7953 286.226 13.2575C289.147 15.8277 291.732 19.3934 293.244 22.0772C295.839 26.6881 297.561 32.1262 297.797 34.4561C297.903 35.5078 292.961 35.9473 292.761 34.7096C292.5 33.086 291.059 28.5465 289.978 26.1537C288.162 22.1355 285.484 18.6675 282.183 15.7404C280.618 14.3525 276.209 11.385 276.209 11.385L280.664 9.33594Z" fill="#9964CF"/>
<path d="M294.847 35.5089C293.757 35.5089 292.803 35.2675 292.715 34.7172C292.46 33.1293 291.039 28.6151 289.935 26.1736C288.187 22.3046 285.568 18.8056 282.153 15.7762C280.608 14.4061 276.228 11.4536 276.184 11.4245L276.115 11.3776L280.666 9.28345L280.687 9.29472C280.715 9.30974 283.488 10.785 286.258 13.2228C289.262 15.8673 291.859 19.5193 293.285 22.0548C295.773 26.4759 297.589 31.9319 297.845 34.4515C297.899 34.9886 296.812 35.321 295.864 35.4422C295.527 35.4863 295.181 35.5089 294.847 35.5089ZM276.305 11.3926C276.873 11.7767 280.773 14.4267 282.215 15.7057C285.641 18.7446 288.268 22.2529 290.022 26.1351C291.128 28.5823 292.553 33.1095 292.809 34.7022C292.911 35.3389 294.437 35.5314 295.852 35.3492C297.025 35.199 297.789 34.8421 297.75 34.4609C297.495 31.9498 295.684 26.5107 293.202 22.0999C291.778 19.571 289.19 15.9292 286.194 13.2923C283.559 10.9738 280.922 9.52854 280.662 9.38768L276.305 11.3926Z" fill="#390F63"/>
<path d="M273.616 8.81885C273.616 8.81885 272.627 9.19072 271.649 10.5223C270.67 11.8539 270.078 13.2484 270.159 13.702C270.241 14.1546 271.811 14.9219 272.709 15.1238C273.606 15.3257 275.271 15.4252 275.271 15.4252L275.667 13.8523L275.326 11.6727L273.616 8.81885Z" fill="#9964CF"/>
<path d="M275.307 15.4739L275.268 15.4711C275.251 15.4702 273.59 15.3687 272.698 15.1687C271.786 14.964 270.2 14.1968 270.113 13.7094C270.03 13.2521 270.612 11.851 271.61 10.494C272.585 9.16618 273.558 8.78961 273.599 8.77458L273.636 8.7605L275.372 11.665L275.714 13.854L275.712 13.8634L275.307 15.4739ZM273.596 8.87882C273.409 8.96146 272.54 9.38968 271.686 10.5504C270.717 11.8679 270.129 13.2652 270.206 13.6934C270.279 14.0972 271.766 14.8626 272.719 15.0776C273.526 15.2589 274.977 15.3593 275.234 15.3753L275.618 13.8493L275.28 11.6876L273.596 8.87882Z" fill="#390F63"/>
<path d="M275.104 11.7451C275.292 11.6709 279.446 10.4586 280.717 9.6209C281.987 8.78325 282.412 7.73431 281.319 7.37371C280.227 7.01311 274.796 7.08823 274.136 7.37371C273.571 7.61787 273.32 8.38415 273.823 9.33637C273.911 9.50352 275.104 11.7451 275.104 11.7451Z" fill="#9964CF"/>
<path d="M275.082 11.8043L275.062 11.7668C275.062 11.7668 273.869 9.5252 273.781 9.35804C273.506 8.83498 273.433 8.32413 273.578 7.91845C273.675 7.648 273.867 7.43858 274.118 7.32965C274.797 7.03666 280.241 6.96623 281.334 7.32777C281.823 7.48929 281.958 7.76632 281.987 7.9701C282.053 8.46217 281.577 9.10825 280.743 9.65855C279.67 10.3666 276.518 11.3498 275.482 11.6729C275.29 11.733 275.15 11.7761 275.123 11.7874L275.082 11.8043ZM277.81 7.17283C276.161 7.17283 274.509 7.26392 274.155 7.41605C273.929 7.51465 273.755 7.70434 273.667 7.95038C273.531 8.3307 273.601 8.81526 273.865 9.31485C273.947 9.46885 274.973 11.3996 275.126 11.6869C275.185 11.6672 275.295 11.6334 275.453 11.5836C276.486 11.2615 279.628 10.2821 280.69 9.58154C281.493 9.05191 281.953 8.43963 281.892 7.98325C281.858 7.72876 281.654 7.53249 281.304 7.41699C280.789 7.24795 279.301 7.17283 277.81 7.17283Z" fill="#390F63"/>
<path d="M275.104 11.7452C275.104 11.7452 275.381 12.4805 275.402 13.7013C275.422 14.9221 275.146 15.8508 275.253 15.971C275.361 16.0922 278.726 15.879 279.624 14.7643C280.521 13.6496 277.749 10.885 277.749 10.885L275.104 11.7452Z" fill="#9964CF"/>
<path d="M275.527 16.0481C275.259 16.0481 275.232 16.0171 275.218 16.0021C275.157 15.9344 275.177 15.7654 275.232 15.3569C275.288 14.94 275.365 14.369 275.354 13.7013C275.334 12.504 275.062 11.7687 275.06 11.7612L275.043 11.7152L277.763 10.8315L277.783 10.8522C277.898 10.9658 280.575 13.66 279.662 14.7935C278.888 15.7541 276.436 16.0265 275.637 16.0462C275.595 16.0481 275.559 16.0481 275.527 16.0481ZM275.165 11.7753C275.224 11.9556 275.432 12.6562 275.449 13.7004C275.461 14.3747 275.383 14.9503 275.326 15.3701C275.291 15.6321 275.254 15.9025 275.288 15.9401C275.481 16.0387 278.718 15.8133 279.586 14.7353C280.407 13.7154 277.985 11.194 277.735 10.9386L275.165 11.7753Z" fill="#390F63"/>
</g>
<g clip-path="url(#clip1_2303_953)">
<path d="M115.558 13.8159C115.558 13.8159 111.577 17.9403 109.187 22.0779C106.798 26.2154 104.634 31.9522 104.634 34.4567C104.634 35.5141 109.47 35.9479 109.67 34.7102C109.931 33.0866 111.272 29.0843 112.144 26.6615C113.311 23.4245 116.271 19.3902 117.435 17.9929C118.773 16.389 120.11 15.3879 120.11 15.3879L115.558 13.8159Z" fill="#E18C44"/>
<path d="M107.613 35.5101C107.412 35.5101 107.208 35.5016 107.006 35.4857C105.841 35.3946 104.586 35.034 104.586 34.4565C104.586 32.013 106.675 26.3335 109.147 22.0542C111.512 17.9598 115.484 13.8241 115.523 13.7828L115.544 13.7612L120.21 15.3717L120.139 15.4243C120.125 15.4347 118.789 16.4404 117.471 18.0209C116.482 19.2078 113.388 23.3454 112.188 26.6753C111.396 28.8709 109.986 33.0356 109.715 34.7156C109.626 35.28 108.67 35.5101 107.613 35.5101ZM115.571 13.8702C115.256 14.2007 111.499 18.1702 109.228 22.1011C106.763 26.3682 104.68 32.0271 104.68 34.4565C104.68 34.8856 105.683 35.2885 107.012 35.3918C108.199 35.4847 109.523 35.3082 109.621 34.7016C109.893 33.014 111.306 28.8427 112.099 26.6443C113.303 23.3022 116.406 19.1524 117.398 17.9617C118.552 16.5775 119.72 15.6319 120.012 15.4027L115.571 13.8702Z" fill="#BD6112"/>
<path d="M141.833 4.97044C141.833 5.87571 140.344 6.7096 137.843 7.37352C134.354 6.44572 128.894 5.84941 122.758 5.84941C116.621 5.84941 111.161 6.44572 107.671 7.37352C105.17 6.7096 103.682 5.87571 103.682 4.97044C103.682 4.92161 103.686 4.87184 103.695 4.82301C104.071 2.72325 112.461 1.04419 122.758 1.04419C133.053 1.04419 141.443 2.72325 141.819 4.82301C141.828 4.87184 141.833 4.92161 141.833 4.97044Z" fill="#D17A30"/>
<path d="M137.843 7.42243L137.831 7.41961C134.191 6.45237 128.698 5.89738 122.758 5.89738C116.817 5.89738 111.323 6.45237 107.684 7.41961L107.671 7.42243L107.659 7.41961C105.026 6.72001 103.634 5.87297 103.634 4.97052C103.634 4.92075 103.639 4.86816 103.649 4.81557C104.032 2.67449 112.425 0.997314 122.758 0.997314C133.089 0.997314 141.483 2.67449 141.866 4.81463C141.875 4.86816 141.88 4.92075 141.88 4.97052C141.88 5.87297 140.488 6.72001 137.855 7.41868L137.843 7.42243ZM122.758 1.09122C117.789 1.09122 113.087 1.48187 109.516 2.19275C105.971 2.89705 103.921 3.83425 103.742 4.83154C103.733 4.87943 103.729 4.92544 103.729 4.97052C103.729 5.81287 105.129 6.64864 107.671 7.32477C111.318 6.35753 116.815 5.80254 122.758 5.80254C128.699 5.80254 134.196 6.35753 137.843 7.32477C140.385 6.64864 141.785 5.81287 141.785 4.97052C141.785 4.92638 141.781 4.87943 141.773 4.83154C141.594 3.83425 139.544 2.89705 136 2.19275C132.428 1.48187 127.725 1.09122 122.758 1.09122Z" fill="#BD6112"/>
<path d="M141.833 4.9707V9.77593C141.833 9.93087 141.789 10.083 141.704 10.2333C140.603 12.1865 132.541 13.7022 122.758 13.7022C112.974 13.7022 104.911 12.1865 103.81 10.2333C103.725 10.083 103.682 9.93087 103.682 9.77593V4.9707C103.739 5.9201 105.17 6.70986 107.671 7.37378C111.161 8.30065 116.621 8.89696 122.758 8.89696C128.894 8.89696 134.354 8.30065 137.843 7.37378C140.344 6.70986 141.833 5.87597 141.833 4.9707Z" fill="#E18C44"/>
<path d="M122.758 13.749C113.055 13.749 104.891 12.2474 103.768 10.2557C103.68 10.0979 103.634 9.9364 103.634 9.77581V4.97059L103.729 4.96777C103.782 5.85144 105.113 6.64589 107.684 7.3286C111.324 8.29584 116.818 8.84989 122.758 8.84989C128.696 8.84989 134.19 8.2949 137.831 7.3286C140.381 6.65153 141.785 5.81482 141.785 4.97059H141.88V9.77581C141.88 9.9364 141.835 10.0979 141.746 10.2557C140.623 12.2474 132.46 13.749 122.758 13.749ZM103.729 5.35373V9.77581C103.729 9.92043 103.77 10.066 103.852 10.2106C104.958 12.1742 113.087 13.6551 122.758 13.6551C132.429 13.6551 140.556 12.1742 141.663 10.2106C141.743 10.066 141.785 9.92043 141.785 9.77581V5.37627C141.431 6.12659 140.09 6.82619 137.855 7.41969C134.207 8.38881 128.705 8.94474 122.758 8.94474C116.811 8.94474 111.307 8.38881 107.659 7.41969C105.371 6.81211 104.078 6.13316 103.729 5.35373Z" fill="#BD6112"/>
<path d="M126.015 9.33594C126.015 9.33594 128.78 10.7953 131.577 13.2575C134.498 15.8277 137.084 19.3934 138.595 22.0772C141.19 26.6881 142.912 32.1262 143.148 34.4561C143.255 35.5078 138.312 35.9473 138.113 34.7096C137.852 33.086 136.411 28.5465 135.329 26.1537C133.514 22.1355 130.835 18.6675 127.534 15.7404C125.969 14.3525 121.56 11.385 121.56 11.385L126.015 9.33594Z" fill="#E18C44"/>
<path d="M140.198 35.5089C139.109 35.5089 138.154 35.2675 138.066 34.7172C137.811 33.1293 136.39 28.6152 135.287 26.1736C133.538 22.3037 130.919 18.8056 127.503 15.7762C125.959 14.4061 121.578 11.4536 121.534 11.4245L121.465 11.3776L126.016 9.28345L126.037 9.29472C126.065 9.30974 128.839 10.785 131.608 13.2228C134.613 15.8673 137.209 19.5193 138.636 22.0548C141.124 26.4759 142.939 31.9319 143.195 34.4515C143.249 34.9886 142.162 35.321 141.215 35.4422C140.878 35.4863 140.532 35.5089 140.198 35.5089ZM121.657 11.3926C122.224 11.7767 126.125 14.4267 127.567 15.7057C130.992 18.7446 133.619 22.2529 135.373 26.1351C136.479 28.5823 137.904 33.1095 138.16 34.7022C138.263 35.338 139.788 35.5314 141.203 35.3492C142.378 35.199 143.14 34.8421 143.102 34.4609C142.847 31.9507 141.036 26.5107 138.554 22.0999C137.13 19.571 134.542 15.9292 131.547 13.2923C128.913 10.9738 126.275 9.52854 126.015 9.38768L121.657 11.3926Z" fill="#BD6112"/>
<path d="M118.967 8.81885C118.967 8.81885 117.978 9.19072 117 10.5223C116.021 11.8539 115.429 13.2484 115.51 13.702C115.592 14.1546 117.162 14.9219 118.06 15.1238C118.957 15.3257 120.622 15.4252 120.622 15.4252L121.018 13.8523L120.677 11.6727L118.967 8.81885Z" fill="#E18C44"/>
<path d="M120.658 15.4739L120.618 15.4711C120.601 15.4702 118.94 15.3687 118.048 15.1687C117.136 14.964 115.55 14.1968 115.463 13.7094C115.38 13.2521 115.962 11.851 116.96 10.494C117.936 9.16618 118.908 8.78961 118.949 8.77458L118.986 8.7605L120.722 11.665L121.064 13.854L121.062 13.8634L120.658 15.4739ZM118.947 8.87882C118.76 8.96146 117.891 9.38968 117.038 10.5504C116.068 11.8679 115.48 13.2652 115.557 13.6934C115.63 14.0972 117.117 14.8626 118.07 15.0776C118.877 15.2589 120.328 15.3593 120.585 15.3753L120.969 13.8493L120.631 11.6876L118.947 8.87882Z" fill="#BD6112"/>
<path d="M120.455 11.7451C120.643 11.6709 124.798 10.4586 126.068 9.6209C127.338 8.78325 127.763 7.73431 126.67 7.37371C125.578 7.01311 120.147 7.08823 119.487 7.37371C118.922 7.61787 118.672 8.38415 119.174 9.33637C119.263 9.50352 120.455 11.7451 120.455 11.7451Z" fill="#E18C44"/>
<path d="M120.433 11.8043L120.413 11.7668C120.413 11.7668 119.22 9.5252 119.132 9.35804C118.857 8.83498 118.785 8.32413 118.929 7.91845C119.026 7.648 119.218 7.43858 119.469 7.32965C120.148 7.03666 125.591 6.96623 126.686 7.32777C127.174 7.48929 127.309 7.76632 127.338 7.9701C127.404 8.46217 126.928 9.10825 126.094 9.65855C125.021 10.3666 121.869 11.3498 120.834 11.6729C120.641 11.733 120.501 11.7762 120.474 11.7874L120.433 11.8043ZM123.161 7.17283C121.512 7.17283 119.86 7.26392 119.506 7.41605C119.28 7.51465 119.106 7.70434 119.018 7.95038C118.882 8.3307 118.952 8.81526 119.216 9.31485C119.298 9.46885 120.324 11.3996 120.478 11.6869C120.536 11.6672 120.647 11.6334 120.804 11.5836C121.837 11.2615 124.979 10.2821 126.041 9.58154C126.844 9.05191 127.304 8.43963 127.243 7.98325C127.209 7.72876 127.005 7.53249 126.655 7.41699C126.14 7.24795 124.652 7.17283 123.161 7.17283Z" fill="#BD6112"/>
<path d="M120.455 11.7452C120.455 11.7452 120.732 12.4805 120.753 13.7013C120.773 14.9221 120.497 15.8508 120.604 15.971C120.712 16.0922 124.077 15.879 124.975 14.7643C125.872 13.6496 123.1 10.885 123.1 10.885L120.455 11.7452Z" fill="#E18C44"/>
<path d="M120.877 16.0481C120.609 16.0481 120.582 16.0171 120.568 16.0021C120.507 15.9345 120.527 15.7654 120.582 15.3569C120.638 14.94 120.715 14.369 120.704 13.7013C120.684 12.5021 120.412 11.7687 120.41 11.7612L120.393 11.7152L123.113 10.8315L123.134 10.8522C123.248 10.9658 125.925 13.66 125.012 14.7935C124.238 15.7541 121.786 16.0265 120.987 16.0462C120.946 16.0481 120.91 16.0481 120.877 16.0481ZM120.516 11.7753C120.575 11.9556 120.783 12.6562 120.8 13.7004C120.812 14.3747 120.734 14.9503 120.677 15.3701C120.642 15.6321 120.605 15.9025 120.639 15.9401C120.832 16.0387 124.069 15.8133 124.937 14.7353C125.758 13.7154 123.336 11.194 123.086 10.9386L120.516 11.7753Z" fill="#BD6112"/>
</g>
<g clip-path="url(#clip2_2303_953)">
<path d="M321.756 13.8162C321.756 13.8162 317.775 17.9406 315.386 22.0781C312.996 26.2156 310.832 31.9524 310.832 34.4569C310.832 35.5143 315.668 35.9482 315.868 34.7105C316.129 33.0868 317.47 29.0845 318.342 26.6617C319.509 23.4247 322.469 19.3905 323.634 17.9931C324.971 16.3892 326.308 15.3882 326.308 15.3882L321.756 13.8162Z" fill="#3D2308"/>
<path d="M313.811 35.5103C313.61 35.5103 313.406 35.5019 313.203 35.4859C312.039 35.3948 310.785 35.0342 310.785 34.4567C310.785 32.0132 312.873 26.3337 315.345 22.0544C317.71 17.9601 321.683 13.8253 321.723 13.7831L321.744 13.7615L326.409 15.372L326.338 15.4246C326.325 15.4349 324.988 16.4406 323.671 18.0211C322.681 19.2081 319.587 23.3456 318.387 26.6756C317.595 28.8711 316.185 33.0359 315.914 34.7159C315.824 35.2803 314.868 35.5103 313.811 35.5103ZM321.769 13.8704C321.453 14.201 317.697 18.1704 315.426 22.1014C312.961 26.3685 310.879 32.0273 310.879 34.4567C310.879 34.8859 311.881 35.2887 313.21 35.392C314.399 35.485 315.722 35.3084 315.819 34.7027C316.091 33.0152 317.504 28.8439 318.297 26.6455C319.501 23.3034 322.605 19.1536 323.596 17.9629C324.75 16.5787 325.918 15.633 326.211 15.4039L321.769 13.8704Z" fill="#1A1200"/>
<path d="M348.031 4.97069C348.031 5.87595 346.542 6.70984 344.041 7.37377C340.552 6.44597 335.093 5.84966 328.956 5.84966C322.819 5.84966 317.359 6.44597 313.87 7.37377C311.368 6.70984 309.88 5.87595 309.88 4.97069C309.88 4.92185 309.885 4.87208 309.893 4.82325C310.269 2.72349 318.659 1.04443 328.956 1.04443C339.251 1.04443 347.642 2.72349 348.018 4.82325C348.026 4.87208 348.031 4.92185 348.031 4.97069Z" fill="#301C06"/>
<path d="M344.041 7.42268L344.029 7.41892C340.389 6.45168 334.896 5.89669 328.956 5.89669C323.016 5.89669 317.521 6.45168 313.882 7.41892L313.87 7.42268L313.857 7.41892C311.224 6.72025 309.833 5.87321 309.833 4.97076C309.833 4.92099 309.837 4.86841 309.847 4.81488C310.229 2.67474 318.623 0.997559 328.956 0.997559C339.287 0.997559 347.681 2.67474 348.064 4.81488C348.074 4.86841 348.078 4.92005 348.078 4.97076C348.078 5.87321 346.687 6.72025 344.054 7.41892L344.041 7.42268ZM328.956 1.09147C323.988 1.09147 319.285 1.48212 315.714 2.19299C312.17 2.8973 310.119 3.83449 309.94 4.83178C309.931 4.87874 309.927 4.92569 309.927 4.97076C309.927 5.81311 311.328 6.64888 313.87 7.32501C317.517 6.35777 323.014 5.80278 328.956 5.80278C334.897 5.80278 340.394 6.35777 344.041 7.32501C346.583 6.64888 347.983 5.81311 347.983 4.97076C347.983 4.92569 347.98 4.87874 347.971 4.83084C347.793 3.83355 345.742 2.8973 342.198 2.19206C338.626 1.48212 333.923 1.09147 328.956 1.09147Z" fill="#1A1200"/>
<path d="M348.031 4.97095V9.77617C348.031 9.93112 347.987 10.0832 347.903 10.2335C346.802 12.1868 338.739 13.7024 328.956 13.7024C319.172 13.7024 311.109 12.1868 310.008 10.2335C309.924 10.0832 309.88 9.93112 309.88 9.77617V4.97095C309.937 5.92035 311.368 6.71011 313.87 7.37403C317.359 8.30089 322.819 8.8972 328.956 8.8972C335.093 8.8972 340.552 8.30089 344.041 7.37403C346.542 6.71011 348.031 5.87621 348.031 4.97095Z" fill="#3D2308"/>
<path d="M328.956 13.7493C319.253 13.7493 311.089 12.2477 309.966 10.2559C309.878 10.0982 309.833 9.93664 309.833 9.77606V4.97084L309.927 4.96802C309.981 5.85168 311.311 6.64614 313.882 7.32884C317.522 8.29608 323.017 8.85013 328.956 8.85013C334.894 8.85013 340.389 8.29514 344.029 7.32884C346.579 6.65177 347.983 5.81506 347.983 4.97084H348.078V9.77606C348.078 9.93664 348.033 10.0982 347.944 10.2559C346.822 12.2477 338.658 13.7493 328.956 13.7493ZM309.927 5.35398V9.77606C309.927 9.91974 309.968 10.0662 310.05 10.2108C311.157 12.1744 319.285 13.6554 328.956 13.6554C338.627 13.6554 346.754 12.1744 347.861 10.2108C347.942 10.0662 347.983 9.92068 347.983 9.77606V5.37651C347.629 6.12683 346.288 6.82644 344.054 7.41993C340.406 8.38905 334.903 8.94498 328.956 8.94498C323.009 8.94498 317.505 8.38905 313.857 7.41993C311.57 6.81235 310.276 6.1334 309.927 5.35398Z" fill="#1A1200"/>
<path d="M332.214 9.33618C332.214 9.33618 334.978 10.7955 337.775 13.2577C340.696 15.828 343.282 19.3936 344.793 22.0775C347.388 26.6883 349.11 32.1265 349.347 34.4563C349.453 35.5081 344.51 35.9476 344.311 34.7099C344.05 33.0862 342.609 28.5467 341.528 26.154C339.712 22.1357 337.033 18.6677 333.732 15.7406C332.167 14.3527 327.758 11.3852 327.758 11.3852L332.214 9.33618Z" fill="#3D2308"/>
<path d="M346.396 35.5091C345.308 35.5091 344.353 35.2678 344.264 34.7175C344.009 33.1295 342.588 28.6154 341.485 26.1738C339.736 22.3039 337.117 18.8059 333.701 15.7764C332.157 14.4063 327.776 11.4539 327.732 11.4248L327.663 11.3778L332.215 9.28369L332.236 9.29496C332.263 9.30999 335.037 10.7853 337.807 13.2231C340.811 15.8675 343.407 19.5196 344.834 22.055C347.322 26.4762 349.138 31.9322 349.393 34.4517C349.447 34.9889 348.36 35.3213 347.413 35.4424C347.076 35.4866 346.73 35.5091 346.396 35.5091ZM327.855 11.3928C328.422 11.7769 332.323 14.427 333.765 15.706C337.191 18.7448 339.817 22.2532 341.571 26.1353C342.677 28.5825 344.102 33.1098 344.358 34.7024C344.461 35.3391 345.986 35.5316 347.402 35.3495C348.576 35.1992 349.338 34.8424 349.299 34.4611C349.045 31.95 347.234 26.5109 344.751 22.1001C343.327 19.5712 340.74 15.9295 337.744 13.2926C335.11 10.974 332.472 9.52879 332.212 9.38793L327.855 11.3928Z" fill="#1A1200"/>
<path d="M325.166 8.81909C325.166 8.81909 324.177 9.19096 323.198 10.5226C322.219 11.8542 321.627 13.2487 321.709 13.7023C321.79 14.1549 323.36 14.9221 324.258 15.124C325.155 15.3259 326.82 15.4255 326.82 15.4255L327.216 13.8525L326.875 11.6729L325.166 8.81909Z" fill="#3D2308"/>
<path d="M326.856 15.4742L326.816 15.4713C326.799 15.4704 325.138 15.369 324.247 15.169C323.334 14.9642 321.748 14.197 321.661 13.7096C321.578 13.2523 322.16 11.8512 323.158 10.4943C324.134 9.16642 325.107 8.78985 325.148 8.77483L325.185 8.76074L325.204 8.79455L326.919 11.6559L327.262 13.8543L326.856 15.4742ZM325.146 8.87907C324.959 8.9617 324.089 9.38992 323.236 10.5506C322.267 11.8691 321.678 13.2655 321.755 13.6937C321.828 14.0975 323.316 14.8638 324.269 15.0779C325.075 15.2591 326.526 15.3596 326.783 15.3756L327.168 13.8496L326.83 11.6888L325.146 8.87907Z" fill="#1A1200"/>
<path d="M326.653 11.7453C326.841 11.6711 330.996 10.4588 332.266 9.62115C333.536 8.7835 333.961 7.73456 332.869 7.37395C331.776 7.01335 326.345 7.08848 325.686 7.37395C325.12 7.61811 324.869 8.38439 325.372 9.33661C325.461 9.50376 326.653 11.7453 326.653 11.7453Z" fill="#3D2308"/>
<path d="M326.631 11.8046L326.611 11.767C326.611 11.767 325.418 9.52544 325.331 9.35829C325.055 8.83523 324.983 8.32437 325.128 7.91869C325.224 7.64824 325.416 7.43883 325.668 7.3299C326.346 7.03691 331.789 6.96648 332.884 7.32802C333.373 7.48954 333.508 7.76656 333.536 7.97034C333.602 8.46242 333.126 9.1085 332.292 9.65879C331.219 10.3678 328.066 11.3501 327.03 11.6731C326.838 11.7332 326.7 11.7764 326.671 11.7877L326.631 11.8046ZM329.359 7.17307C327.71 7.17307 326.058 7.26416 325.705 7.41629C325.478 7.51489 325.304 7.70459 325.216 7.94968C325.08 8.33001 325.15 8.81457 325.414 9.31415C325.496 9.46816 326.522 11.3989 326.676 11.6862C326.734 11.6665 326.844 11.6327 327 11.5839C328.033 11.2618 331.176 10.2823 332.238 9.58085C333.041 9.05121 333.502 8.43894 333.44 7.98255C333.406 7.72806 333.203 7.5318 332.852 7.41629C332.338 7.2482 330.851 7.17307 329.359 7.17307Z" fill="#1A1200"/>
<path d="M326.653 11.7454C326.653 11.7454 326.93 12.4807 326.951 13.7015C326.971 14.9223 326.695 15.8511 326.802 15.9713C326.91 16.0924 330.275 15.8792 331.173 14.7646C332.07 13.6499 329.299 10.8853 329.299 10.8853L326.653 11.7454Z" fill="#3D2308"/>
<path d="M327.075 16.0483C326.807 16.0483 326.779 16.0173 326.766 16.0023C326.705 15.9347 326.725 15.7657 326.78 15.3572C326.836 14.9402 326.914 14.3693 326.903 13.7016C326.883 12.5024 326.61 11.769 326.608 11.7615L326.591 11.7155L329.311 10.8318L329.332 10.8524C329.447 10.967 332.124 13.6603 331.21 14.7937C330.437 15.7544 327.984 16.0267 327.186 16.0464C327.145 16.0483 327.109 16.0483 327.075 16.0483ZM326.714 11.7756C326.774 11.9559 326.981 12.6564 326.999 13.7006C327.01 14.3749 326.932 14.9506 326.875 15.3703C326.84 15.6314 326.803 15.9018 326.837 15.9403C327.03 16.0389 330.267 15.8136 331.135 14.7355C331.956 13.7157 329.534 11.1943 329.284 10.9388L326.714 11.7756Z" fill="#1A1200"/>
</g>
<g clip-path="url(#clip3_2303_953)">
<path d="M218.657 13.8159C218.657 13.8159 214.676 17.9403 212.287 22.0779C209.898 26.2154 207.733 31.9522 207.733 34.4567C207.733 35.5141 212.57 35.9479 212.769 34.7102C213.03 33.0866 214.371 29.0843 215.244 26.6615C216.41 23.4245 219.37 19.3902 220.535 17.9929C221.872 16.389 223.21 15.3879 223.21 15.3879L218.657 13.8159Z" fill="#593FD5"/>
<path d="M210.712 35.5101C210.512 35.5101 210.308 35.5016 210.105 35.4857C208.94 35.3946 207.686 35.034 207.686 34.4565C207.686 32.013 209.774 26.3335 212.246 22.0542C214.612 17.9598 218.583 13.8251 218.623 13.7828L218.644 13.7612L218.672 13.7716L223.31 15.3727L223.238 15.4253C223.225 15.4356 221.888 16.4413 220.571 18.0218C219.582 19.2088 216.487 23.3463 215.287 26.6763C214.496 28.8718 213.085 33.0366 212.815 34.7166C212.725 35.28 211.77 35.5101 210.712 35.5101ZM218.671 13.8702C218.354 14.2007 214.598 18.1702 212.328 22.1011C209.863 26.3682 207.78 32.0271 207.78 34.4565C207.78 34.8856 208.782 35.2885 210.111 35.3918C211.3 35.4847 212.623 35.3082 212.721 34.7025C212.992 33.015 214.406 28.8436 215.198 26.6453C216.403 23.3031 219.506 19.1534 220.498 17.9626C221.651 16.5784 222.82 15.6328 223.112 15.4037L218.671 13.8702Z" fill="#0A0037"/>
<path d="M244.932 4.97044C244.932 5.87571 243.444 6.7096 240.943 7.37352C237.453 6.44572 231.994 5.84941 225.857 5.84941C219.72 5.84941 214.26 6.44572 210.771 7.37352C208.27 6.7096 206.781 5.87571 206.781 4.97044C206.781 4.92161 206.786 4.87184 206.795 4.82301C207.171 2.72325 215.561 1.04419 225.857 1.04419C236.153 1.04419 244.543 2.72325 244.919 4.82301C244.927 4.87184 244.932 4.92161 244.932 4.97044Z" fill="#44339A"/>
<path d="M240.943 7.42243L240.93 7.41868C237.292 6.45143 231.798 5.89644 225.857 5.89644C219.917 5.89644 214.422 6.45143 210.783 7.41868L210.771 7.42243L210.759 7.41868C208.125 6.72001 206.734 5.87297 206.734 4.97052C206.734 4.92075 206.739 4.86816 206.748 4.81464C207.131 2.67449 215.525 0.997314 225.857 0.997314C236.189 0.997314 244.582 2.67449 244.965 4.81464C244.975 4.86816 244.98 4.91981 244.98 4.97052C244.98 5.87297 243.588 6.72001 240.955 7.41868L240.943 7.42243ZM225.857 5.80254C231.799 5.80254 237.296 6.35753 240.943 7.32477C243.485 6.64864 244.885 5.81287 244.885 4.97052C244.885 4.92545 244.881 4.87849 244.872 4.8306C244.694 3.83331 242.644 2.89705 239.099 2.19181C235.527 1.48187 230.825 1.09122 225.857 1.09122C220.89 1.09122 216.186 1.48187 212.615 2.19275C209.071 2.89705 207.021 3.83425 206.841 4.83154C206.833 4.87849 206.829 4.92545 206.829 4.97052C206.829 5.81287 208.229 6.64864 210.771 7.32477C214.418 6.35753 219.915 5.80254 225.857 5.80254Z" fill="#0A0037"/>
<path d="M244.932 4.9707V9.77593C244.932 9.93087 244.889 10.083 244.804 10.2333C243.703 12.1865 235.64 13.7022 225.857 13.7022C216.073 13.7022 208.011 12.1865 206.909 10.2333C206.825 10.083 206.781 9.93087 206.781 9.77593V4.9707C206.838 5.9201 208.27 6.70986 210.771 7.37378C214.26 8.30065 219.72 8.89696 225.857 8.89696C231.994 8.89696 237.453 8.30065 240.943 7.37378C243.444 6.70986 244.932 5.87597 244.932 4.9707Z" fill="#593FD5"/>
<path d="M225.857 13.749C216.154 13.749 207.991 12.2474 206.868 10.2557C206.779 10.0979 206.734 9.93639 206.734 9.77581V4.97059L206.829 4.96777C206.882 5.85144 208.213 6.64589 210.783 7.3286C214.424 8.29584 219.918 8.84989 225.857 8.84989C231.796 8.84989 237.29 8.2949 240.93 7.3286C243.48 6.65153 244.885 5.81481 244.885 4.97059H244.98V9.77581C244.98 9.93639 244.934 10.0979 244.846 10.2557C243.723 12.2474 235.559 13.749 225.857 13.749ZM206.829 5.35373V9.77581C206.829 9.91949 206.87 10.066 206.951 10.2106C208.058 12.1742 216.186 13.6551 225.857 13.6551C235.528 13.6551 243.655 12.1742 244.762 10.2106C244.843 10.066 244.885 9.92043 244.885 9.77581V5.37627C244.531 6.12659 243.189 6.82619 240.955 7.41969C237.307 8.38881 231.804 8.94474 225.857 8.94474C219.91 8.94474 214.407 8.38881 210.759 7.41969C208.471 6.81211 207.177 6.13316 206.829 5.35373Z" fill="#0A0037"/>
<path d="M229.115 9.33594C229.115 9.33594 231.879 10.7953 234.677 13.2575C237.597 15.8277 240.183 19.3934 241.694 22.0772C244.29 26.6881 246.012 32.1262 246.248 34.4561C246.354 35.5078 241.412 35.9473 241.212 34.7096C240.951 33.086 239.51 28.5465 238.429 26.1537C236.613 22.1355 233.934 18.6675 230.634 15.7404C229.069 14.3525 224.659 11.385 224.659 11.385L229.115 9.33594Z" fill="#593FD5"/>
<path d="M243.298 35.5089C242.209 35.5089 241.254 35.2675 241.166 34.7172C240.91 33.1293 239.489 28.6151 238.386 26.1736C236.638 22.3037 234.019 18.8056 230.603 15.7762C229.059 14.4061 224.678 11.4536 224.635 11.4245L224.565 11.3776L229.117 9.28345L229.138 9.29472C229.165 9.30974 231.939 10.785 234.709 13.2228C237.713 15.8673 240.309 19.5193 241.736 22.0548C244.224 26.4759 246.04 31.9319 246.295 34.4515C246.349 34.9886 245.263 35.321 244.315 35.4422C243.977 35.4863 243.632 35.5089 243.298 35.5089ZM224.756 11.3926C225.324 11.7767 229.224 14.4267 230.666 15.7057C234.092 18.7446 236.718 22.2529 238.473 26.1351C239.579 28.5823 241.003 33.1095 241.26 34.7022C241.362 35.338 242.888 35.5314 244.303 35.3492C245.476 35.199 246.239 34.8421 246.2 34.4609C245.946 31.9498 244.135 26.5107 241.653 22.0999C240.229 19.571 237.641 15.9292 234.644 13.2923C232.009 10.9728 229.372 9.52854 229.113 9.38768L224.756 11.3926Z" fill="#0A0037"/>
<path d="M222.067 8.81885C222.067 8.81885 221.078 9.19072 220.099 10.5223C219.12 11.8539 218.528 13.2484 218.61 13.702C218.691 14.1546 220.262 14.9219 221.159 15.1238C222.056 15.3257 223.721 15.4252 223.721 15.4252L224.117 13.8523L223.776 11.6727L222.067 8.81885Z" fill="#593FD5"/>
<path d="M223.758 15.4739L223.719 15.4711C223.702 15.4702 222.04 15.3687 221.149 15.1687C220.237 14.964 218.651 14.1968 218.563 13.7094C218.481 13.2521 219.063 11.851 220.06 10.494C221.036 9.16618 222.009 8.78961 222.05 8.77458L222.087 8.7605L223.823 11.665L224.165 13.854L224.163 13.8634L223.758 15.4739ZM222.047 8.87882C221.86 8.96146 220.991 9.38968 220.137 10.5504C219.168 11.8688 218.579 13.2652 218.656 13.6934C218.729 14.0972 220.217 14.8635 221.17 15.0776C221.977 15.2589 223.427 15.3593 223.684 15.3753L224.069 13.8493L223.731 11.6885L222.047 8.87882Z" fill="#0A0037"/>
<path d="M223.554 11.7451C223.742 11.6709 227.897 10.4586 229.167 9.6209C230.437 8.78325 230.863 7.73431 229.77 7.37371C228.677 7.01311 223.247 7.08823 222.587 7.37371C222.021 7.61787 221.771 8.38415 222.274 9.33637C222.362 9.50352 223.554 11.7451 223.554 11.7451Z" fill="#593FD5"/>
<path d="M223.533 11.8043L223.513 11.7668C223.513 11.7668 222.319 9.5252 222.232 9.35804C221.957 8.83498 221.884 8.32413 222.029 7.91845C222.126 7.648 222.318 7.43858 222.569 7.32965C223.248 7.03666 228.692 6.96623 229.785 7.32777C230.274 7.48929 230.409 7.76632 230.437 7.9701C230.504 8.46217 230.027 9.10825 229.194 9.65855C228.12 10.3675 224.968 11.3498 223.931 11.6729C223.739 11.733 223.601 11.7761 223.572 11.7874L223.533 11.8043ZM226.261 7.17283C224.612 7.17283 222.959 7.26392 222.606 7.41605C222.379 7.51465 222.205 7.70434 222.117 7.95038C221.981 8.3307 222.052 8.81526 222.316 9.31485C222.397 9.46885 223.423 11.3996 223.577 11.6869C223.635 11.6672 223.745 11.6334 223.902 11.5846C224.935 11.2625 228.077 10.283 229.14 9.58154C229.943 9.05191 230.403 8.43963 230.341 7.98325C230.307 7.72876 230.104 7.53249 229.754 7.41699C229.239 7.24795 227.752 7.17283 226.261 7.17283Z" fill="#0A0037"/>
<path d="M223.554 11.7452C223.554 11.7452 223.832 12.4805 223.852 13.7013C223.872 14.9221 223.596 15.8508 223.703 15.971C223.812 16.0922 227.177 15.879 228.075 14.7643C228.972 13.6496 226.2 10.885 226.2 10.885L223.554 11.7452Z" fill="#593FD5"/>
<path d="M223.977 16.0481C223.708 16.0481 223.682 16.0171 223.667 16.0021C223.607 15.9344 223.627 15.7654 223.682 15.3569C223.738 14.94 223.814 14.369 223.804 13.7013C223.784 12.504 223.512 11.7687 223.51 11.7612L223.493 11.7152L226.212 10.8315L226.233 10.8522C226.348 10.9668 229.025 13.66 228.112 14.7935C227.338 15.7541 224.885 16.0265 224.087 16.0462C224.046 16.0481 224.01 16.0481 223.977 16.0481ZM223.615 11.7753C223.675 11.9556 223.883 12.6562 223.9 13.7004C223.911 14.3747 223.833 14.9503 223.777 15.3701C223.741 15.6321 223.704 15.9016 223.739 15.9401C223.931 16.0396 227.169 15.8133 228.037 14.7353C228.858 13.7154 226.435 11.194 226.186 10.9386L223.615 11.7753Z" fill="#0A0037"/>
</g>
<g clip-path="url(#clip4_2303_953)">
<path d="M167.108 13.8159C167.108 13.8159 163.127 17.9403 160.738 22.0779C158.348 26.2154 156.184 31.9522 156.184 34.4567C156.184 35.5141 161.021 35.9479 161.22 34.7102C161.481 33.0866 162.822 29.0843 163.695 26.6615C164.861 23.4245 167.821 19.3902 168.986 17.9929C170.323 16.389 171.661 15.3879 171.661 15.3879L167.108 13.8159Z" fill="#357540"/>
<path d="M159.163 35.5101C158.963 35.5101 158.758 35.5016 158.555 35.4857C157.391 35.3946 156.137 35.034 156.137 34.4565C156.137 32.013 158.225 26.3335 160.697 22.0542C163.062 17.9598 167.035 13.8241 167.075 13.7828L167.096 13.7612L167.124 13.7716L171.761 15.3727L171.69 15.4253C171.677 15.4356 170.34 16.4413 169.023 18.0218C168.033 19.2088 164.939 23.3463 163.739 26.6763C162.947 28.8718 161.537 33.0366 161.266 34.7166C161.176 35.28 160.22 35.5101 159.163 35.5101ZM167.121 13.8702C166.805 14.2007 163.049 18.1702 160.778 22.1011C158.313 26.3682 156.231 32.0271 156.231 34.4565C156.231 34.8856 157.233 35.2885 158.562 35.3918C159.75 35.4847 161.074 35.3082 161.171 34.7016C161.443 33.014 162.856 28.8427 163.649 26.6443C164.854 23.3022 167.957 19.1524 168.949 17.9617C170.102 16.5775 171.27 15.6319 171.563 15.4027L167.121 13.8702Z" fill="#205220"/>
<path d="M193.383 4.97044C193.383 5.87571 191.894 6.7096 189.393 7.37352C185.904 6.44572 180.445 5.84941 174.308 5.84941C168.171 5.84941 162.711 6.44572 159.222 7.37352C156.72 6.7096 155.232 5.87571 155.232 4.97044C155.232 4.92161 155.237 4.87184 155.245 4.82301C155.621 2.72325 164.012 1.04419 174.308 1.04419C184.603 1.04419 192.994 2.72325 193.37 4.82301C193.378 4.87184 193.383 4.92161 193.383 4.97044Z" fill="#296633"/>
<path d="M189.393 7.42243L189.381 7.41962C185.742 6.45237 180.248 5.89738 174.308 5.89738C168.368 5.89738 162.873 6.45237 159.234 7.41962L159.222 7.42243L159.209 7.41962C156.576 6.72001 155.185 5.87297 155.185 4.97052C155.185 4.92075 155.189 4.86816 155.199 4.81557C155.581 2.67449 163.975 0.997314 174.308 0.997314C184.639 0.997314 193.033 2.67449 193.416 4.81464C193.426 4.86816 193.43 4.91981 193.43 4.97052C193.43 5.87297 192.039 6.72001 189.406 7.41868L189.393 7.42243ZM174.308 1.09122C169.34 1.09122 164.637 1.48187 161.066 2.19275C157.522 2.89705 155.471 3.83425 155.292 4.83154C155.283 4.87849 155.279 4.92545 155.279 4.97052C155.279 5.81287 156.68 6.64864 159.222 7.32477C162.869 6.35753 168.366 5.80254 174.308 5.80254C180.249 5.80254 185.746 6.35753 189.393 7.32477C191.935 6.64864 193.335 5.81287 193.335 4.97052C193.335 4.92545 193.332 4.87849 193.323 4.83154C193.145 3.83425 191.094 2.89705 187.55 2.19275C183.978 1.48187 179.275 1.09122 174.308 1.09122Z" fill="#205220"/>
<path d="M193.383 4.9707V9.77593C193.383 9.93087 193.339 10.083 193.255 10.2333C192.154 12.1865 184.091 13.7022 174.308 13.7022C164.524 13.7022 156.461 12.1865 155.36 10.2333C155.276 10.083 155.232 9.93087 155.232 9.77593V4.9707C155.289 5.9201 156.72 6.70986 159.222 7.37378C162.711 8.30065 168.171 8.89696 174.308 8.89696C180.445 8.89696 185.904 8.30065 189.393 7.37378C191.894 6.70986 193.383 5.87597 193.383 4.9707Z" fill="#357540"/>
<path d="M174.308 13.749C164.605 13.749 156.441 12.2474 155.318 10.2557C155.23 10.0979 155.185 9.93639 155.185 9.77581V4.97059L155.279 4.96777C155.333 5.85144 156.663 6.64589 159.234 7.3286C162.874 8.29584 168.369 8.84989 174.308 8.84989C180.246 8.84989 185.741 8.2949 189.381 7.3286C191.931 6.65153 193.335 5.81481 193.335 4.97059H193.43V9.77581C193.43 9.93639 193.385 10.0979 193.297 10.2557C192.174 12.2474 184.01 13.749 174.308 13.749ZM155.279 5.35373V9.77581C155.279 9.91949 155.32 10.066 155.402 10.2106C156.509 12.1742 164.637 13.6551 174.308 13.6551C183.979 13.6551 192.106 12.1742 193.213 10.2106C193.294 10.0669 193.335 9.92043 193.335 9.77581V5.37627C192.981 6.12659 191.64 6.82619 189.406 7.41969C185.758 8.38881 180.255 8.94474 174.308 8.94474C168.361 8.94474 162.857 8.38881 159.209 7.41969C156.922 6.81211 155.628 6.13316 155.279 5.35373Z" fill="#205220"/>
<path d="M177.566 9.33594C177.566 9.33594 180.33 10.7953 183.127 13.2575C186.048 15.8277 188.634 19.3934 190.145 22.0772C192.74 26.6881 194.462 32.1262 194.699 34.4561C194.805 35.5078 189.862 35.9473 189.663 34.7096C189.402 33.086 187.961 28.5465 186.88 26.1537C185.064 22.1355 182.385 18.6675 179.085 15.7404C177.519 14.3525 173.11 11.385 173.11 11.385L177.566 9.33594Z" fill="#357540"/>
<path d="M191.748 35.5089C190.66 35.5089 189.705 35.2675 189.616 34.7172C189.361 33.1293 187.94 28.6151 186.837 26.1736C185.088 22.3037 182.47 18.8056 179.053 15.7762C177.509 14.4061 173.128 11.4536 173.084 11.4245L173.015 11.3776L177.567 9.28345L177.588 9.29472C177.615 9.30974 180.389 10.785 183.159 13.2228C186.163 15.8673 188.759 19.5193 190.186 22.0548C192.674 26.475 194.49 31.9319 194.745 34.4515C194.799 34.9886 193.712 35.321 192.765 35.4422C192.428 35.4863 192.082 35.5089 191.748 35.5089ZM173.207 11.3926C173.775 11.7767 177.675 14.4267 179.117 15.7057C182.543 18.7446 185.169 22.2529 186.923 26.1351C188.029 28.5823 189.454 33.1095 189.71 34.7022C189.813 35.338 191.338 35.5314 192.754 35.3492C193.928 35.199 194.69 34.8421 194.652 34.4609C194.398 31.9498 192.587 26.5107 190.104 22.0999C188.68 19.571 186.093 15.9292 183.097 13.2923C180.462 10.9738 177.825 9.52854 177.565 9.38768L173.207 11.3926Z" fill="#205220"/>
<path d="M170.518 8.81885C170.518 8.81885 169.528 9.19072 168.55 10.5223C167.571 11.8539 166.979 13.2484 167.06 13.702C167.142 14.1546 168.712 14.9219 169.61 15.1238C170.507 15.3257 172.172 15.4252 172.172 15.4252L172.568 13.8523L172.227 11.6727L170.518 8.81885Z" fill="#357540"/>
<path d="M172.208 15.4739L172.168 15.4711C172.151 15.4702 170.49 15.3687 169.599 15.1687C168.687 14.964 167.1 14.1968 167.013 13.7094C166.93 13.2521 167.512 11.851 168.51 10.494C169.486 9.16618 170.459 8.78961 170.5 8.77458L170.537 8.7605L172.273 11.665L172.614 13.854L172.208 15.4739ZM170.498 8.87882C170.311 8.96146 169.441 9.38968 168.588 10.5504C167.619 11.8679 167.03 13.2652 167.107 13.6934C167.18 14.0972 168.668 14.8626 169.621 15.0776C170.427 15.2589 171.878 15.3593 172.135 15.3753L172.52 13.8493L172.182 11.6876L170.498 8.87882Z" fill="#205220"/>
<path d="M172.005 11.7451C172.193 11.6709 176.348 10.4586 177.618 9.6209C178.888 8.78325 179.313 7.73431 178.221 7.37371C177.128 7.01311 171.698 7.08823 171.038 7.37371C170.472 7.61787 170.221 8.38415 170.725 9.33637C170.813 9.50352 172.005 11.7451 172.005 11.7451Z" fill="#357540"/>
<path d="M171.983 11.8042L171.963 11.7666C171.963 11.7666 170.77 9.52504 170.683 9.35789C170.408 8.83483 170.335 8.32397 170.48 7.91829C170.576 7.64784 170.768 7.43843 171.02 7.3295C171.698 7.03557 177.141 6.96608 178.236 7.32762C178.725 7.48914 178.86 7.76616 178.888 7.96994C178.954 8.46201 178.478 9.1081 177.645 9.65839C176.571 10.3664 173.419 11.3497 172.384 11.6727C172.191 11.7328 172.052 11.776 172.024 11.7873L171.983 11.8042ZM174.711 7.17267C173.063 7.17267 171.41 7.26376 171.057 7.41589C170.83 7.51449 170.656 7.70419 170.568 7.95022C170.432 8.33055 170.502 8.81511 170.766 9.31469C170.848 9.4687 171.874 11.3994 172.028 11.6868C172.087 11.6671 172.197 11.6333 172.354 11.5835C173.387 11.2614 176.529 10.2819 177.591 9.58139C178.394 9.05175 178.855 8.43948 178.793 7.98309C178.759 7.7286 178.556 7.53234 178.206 7.41683C177.69 7.2478 176.203 7.17267 174.711 7.17267Z" fill="#205220"/>
<path d="M172.005 11.7452C172.005 11.7452 172.282 12.4805 172.303 13.7013C172.323 14.9221 172.047 15.8508 172.154 15.971C172.262 16.0922 175.627 15.879 176.525 14.7643C177.422 13.6496 174.651 10.885 174.651 10.885L172.005 11.7452Z" fill="#357540"/>
<path d="M172.427 16.0481C172.159 16.0481 172.131 16.0171 172.118 16.0021C172.057 15.9344 172.077 15.7654 172.132 15.3569C172.188 14.94 172.266 14.369 172.255 13.7013C172.235 12.5021 171.962 11.7687 171.96 11.7612L171.943 11.7152L174.663 10.8315L174.684 10.8522C174.799 10.9658 177.476 13.66 176.562 14.7935C175.789 15.7541 173.336 16.0265 172.538 16.0462C172.497 16.0481 172.461 16.0481 172.427 16.0481ZM172.066 11.7753C172.126 11.9556 172.334 12.6562 172.351 13.7004C172.362 14.3747 172.284 14.9503 172.227 15.3701C172.192 15.6311 172.155 15.9016 172.189 15.9401C172.382 16.0387 175.619 15.8133 176.487 14.7353C177.308 13.7154 174.886 11.194 174.636 10.9386L172.066 11.7753Z" fill="#205220"/>
</g>
<g clip-path="url(#clip5_2303_953)">
<path d="M373.319 13.8186C373.319 13.8186 369.338 17.943 366.949 22.0805C364.56 26.2181 362.396 31.9549 362.396 34.4594C362.396 35.5168 367.232 35.9506 367.431 34.7129C367.692 33.0893 369.034 29.0869 369.906 26.6641C371.073 23.4272 374.032 19.3929 375.197 17.9956C376.534 16.3917 377.872 15.3906 377.872 15.3906L373.319 13.8186Z" fill="#262626"/>
<path d="M365.374 35.5128C365.174 35.5128 364.97 35.5043 364.767 35.4884C363.602 35.3973 362.348 35.0367 362.348 34.4591C362.348 32.0157 364.436 26.3362 366.908 22.0568C369.274 17.9625 373.245 13.8278 373.285 13.7855L373.306 13.7639L377.972 15.3744L377.9 15.427C377.887 15.4373 376.551 16.4431 375.233 18.0235C374.244 19.2105 371.149 23.3481 369.95 26.678C369.158 28.8745 367.746 33.0393 367.477 34.7183C367.388 35.2827 366.432 35.5128 365.374 35.5128ZM373.333 13.8728C373.017 14.2034 369.26 18.1729 366.99 22.1038C364.525 26.3709 362.442 32.0298 362.442 34.4591C362.442 34.8883 363.444 35.2912 364.773 35.3945C365.962 35.4874 367.285 35.3109 367.383 34.7052C367.654 33.0186 369.068 28.8463 369.86 26.648C371.065 23.3058 374.168 19.1561 375.16 17.9653C376.313 16.5811 377.482 15.6355 377.774 15.4064L373.333 13.8728Z" fill="#181818"/>
<path d="M399.594 4.97313C399.594 5.87839 398.106 6.71229 395.605 7.37621C392.115 6.44841 386.656 5.8521 380.519 5.8521C374.383 5.8521 368.923 6.44841 365.433 7.37621C362.932 6.71229 361.443 5.87839 361.443 4.97313C361.443 4.9243 361.448 4.87453 361.457 4.82569C361.833 2.72593 370.223 1.04688 380.519 1.04688C390.815 1.04688 399.205 2.72593 399.581 4.82569C399.59 4.87453 399.594 4.9243 399.594 4.97313Z" fill="#181818"/>
<path d="M395.605 7.42512L395.592 7.42136C391.953 6.45412 386.46 5.89913 380.519 5.89913C374.579 5.89913 369.085 6.45412 365.445 7.42136L365.433 7.42512L365.421 7.42136C362.788 6.72269 361.396 5.87565 361.396 4.97321C361.396 4.92344 361.401 4.87085 361.41 4.81732C361.793 2.67718 370.187 1 380.519 1C390.851 1 399.244 2.67718 399.628 4.81732C399.637 4.87085 399.642 4.9225 399.642 4.97321C399.642 5.87565 398.25 6.72269 395.617 7.42136L395.605 7.42512ZM380.519 5.80522C386.461 5.80522 391.958 6.36021 395.605 7.32746C398.147 6.65132 399.547 5.81555 399.547 4.97321C399.547 4.92813 399.543 4.88118 399.535 4.83328C399.356 3.83599 397.306 2.89974 393.761 2.1945C390.189 1.48456 385.487 1.09391 380.519 1.09391C375.551 1.09391 370.849 1.48456 367.277 2.19544C363.733 2.89974 361.683 3.83693 361.503 4.83422C361.495 4.88118 361.491 4.92813 361.491 4.97321C361.491 5.81555 362.891 6.65132 365.433 7.32746C369.08 6.36021 374.577 5.80522 380.519 5.80522Z" fill="#181818"/>
<path d="M399.594 4.97339V9.77861C399.594 9.93356 399.551 10.0857 399.466 10.2359C398.365 12.1892 390.302 13.7049 380.519 13.7049C370.736 13.7049 362.673 12.1892 361.572 10.2359C361.487 10.0857 361.443 9.93356 361.443 9.77861V4.97339C361.5 5.92279 362.932 6.71255 365.433 7.37647C368.923 8.30333 374.383 8.89964 380.519 8.89964C386.656 8.89964 392.115 8.30333 395.605 7.37647C398.106 6.71255 399.594 5.87865 399.594 4.97339Z" fill="#262626"/>
<path d="M380.519 13.7517C370.816 13.7517 362.653 12.2501 361.53 10.2584C361.442 10.1006 361.396 9.93908 361.396 9.7785V4.97328L361.491 4.97046C361.544 5.85412 362.875 6.64858 365.445 7.33128C369.086 8.29852 374.58 8.85258 380.519 8.85258C386.458 8.85258 391.952 8.29758 395.592 7.33128C398.142 6.65421 399.547 5.8175 399.547 4.97328H399.642V9.7785C399.642 9.93908 399.596 10.1006 399.508 10.2584C398.385 12.2501 390.222 13.7517 380.519 13.7517ZM361.491 5.35642V9.7785C361.491 9.92218 361.532 10.0687 361.613 10.2133C362.72 12.1769 370.849 13.6578 380.519 13.6578C390.19 13.6578 398.318 12.1769 399.424 10.2133C399.505 10.0687 399.547 9.92312 399.547 9.7785V5.37895C399.193 6.12927 397.852 6.82888 395.617 7.42237C391.969 8.39149 386.466 8.94742 380.519 8.94742C374.572 8.94742 369.069 8.39149 365.421 7.42237C363.133 6.81479 361.839 6.13585 361.491 5.35642Z" fill="#181818"/>
<path d="M383.777 9.33862C383.777 9.33862 386.541 10.7979 389.339 13.2602C392.26 15.8304 394.845 19.3961 396.356 22.0799C398.952 26.6908 400.674 32.1289 400.91 34.4588C401.016 35.5105 396.074 35.95 395.874 34.7123C395.613 33.0886 394.172 28.5492 393.091 26.1564C391.275 22.1382 388.596 18.6702 385.296 15.7431C383.731 14.3551 379.321 11.3877 379.321 11.3877L383.777 9.33862Z" fill="#262626"/>
<path d="M397.96 35.5115C396.871 35.5115 395.916 35.2702 395.828 34.7199C395.572 33.1319 394.151 28.6178 393.048 26.1763C391.3 22.3063 388.681 18.8083 385.265 15.7789C383.72 14.4088 379.339 11.4563 379.296 11.4272L379.227 11.3803L383.778 9.28613L383.799 9.2974C383.827 9.31243 386.6 10.7877 389.37 13.2255C392.374 15.87 394.971 19.522 396.397 22.0575C398.885 26.4786 400.701 31.9346 400.957 34.4542C401.011 34.9913 399.924 35.3237 398.976 35.4449C398.639 35.489 398.294 35.5115 397.96 35.5115ZM379.418 11.3953C379.986 11.7794 383.886 14.4294 385.328 15.7084C388.754 18.7473 391.381 22.2556 393.135 26.1377C394.241 28.585 395.665 33.1122 395.922 34.7049C396.024 35.3416 397.55 35.5341 398.965 35.3519C400.138 35.2017 400.901 34.8439 400.863 34.4635C400.608 31.9525 398.797 26.5134 396.315 22.1026C394.891 19.5736 392.302 15.9319 389.307 13.295C386.672 10.9765 384.034 9.53123 383.774 9.39037L379.418 11.3953Z" fill="#181818"/>
<path d="M376.729 8.82153C376.729 8.82153 375.74 9.1934 374.761 10.525C373.783 11.8566 373.19 13.2511 373.272 13.7047C373.353 14.1573 374.924 14.9245 375.822 15.1264C376.719 15.3284 378.384 15.4279 378.384 15.4279L378.779 13.8549L378.439 11.6754L376.729 8.82153Z" fill="#262626"/>
<path d="M378.42 15.4766L378.38 15.4738C378.363 15.4728 376.702 15.3714 375.81 15.1714C374.898 14.9667 373.312 14.1995 373.224 13.7121C373.142 13.2548 373.724 11.8537 374.721 10.4967C375.697 9.16886 376.67 8.79229 376.711 8.77727L376.748 8.76318L376.768 8.79699L378.482 11.6583L378.826 13.8567L378.42 15.4766ZM376.709 8.88151C376.522 8.96414 375.653 9.39236 374.799 10.5531C373.83 11.8715 373.242 13.2679 373.318 13.6961C373.392 14.0999 374.879 14.8662 375.832 15.0803C376.639 15.2615 378.089 15.362 378.347 15.378L378.731 13.852L378.393 11.6912L376.709 8.88151Z" fill="#181818"/>
<path d="M378.216 11.7478C378.404 11.6736 382.559 10.4612 383.829 9.62359C385.099 8.78594 385.525 7.737 384.432 7.37639C383.34 7.01579 377.909 7.09092 377.249 7.37639C376.683 7.62055 376.433 8.38683 376.936 9.33905C377.024 9.50621 378.216 11.7478 378.216 11.7478Z" fill="#262626"/>
<path d="M378.195 11.807L378.175 11.7694C378.175 11.7694 376.982 9.52788 376.894 9.36073C376.619 8.83767 376.547 8.32681 376.691 7.92113C376.788 7.65068 376.98 7.44127 377.231 7.33234C377.91 7.03935 383.354 6.96892 384.447 7.33046C384.936 7.49198 385.072 7.76901 385.099 7.97278C385.166 8.46486 384.689 9.11094 383.856 9.66123C382.782 10.3702 379.63 11.3525 378.593 11.6755C378.402 11.7356 378.263 11.7788 378.235 11.7901L378.195 11.807ZM380.923 7.17551C379.274 7.17551 377.621 7.2666 377.268 7.41873C377.041 7.51733 376.868 7.70703 376.779 7.95212C376.644 8.33245 376.714 8.81701 376.978 9.31659C377.059 9.4706 378.085 11.4013 378.239 11.6887C378.297 11.669 378.407 11.6352 378.564 11.5863C379.597 11.2642 382.74 10.2848 383.802 9.58329C384.605 9.05365 385.065 8.44138 385.004 7.98499C384.969 7.7305 384.766 7.53424 384.416 7.41873C383.901 7.25064 382.414 7.17551 380.923 7.17551Z" fill="#181818"/>
<path d="M378.217 11.7479C378.217 11.7479 378.494 12.4832 378.515 13.704C378.535 14.9248 378.258 15.8535 378.366 15.9737C378.474 16.0948 381.839 15.8817 382.737 14.767C383.634 13.6523 380.862 10.8877 380.862 10.8877L378.217 11.7479Z" fill="#262626"/>
<path d="M378.639 16.0508C378.37 16.0508 378.343 16.0198 378.329 16.0047C378.269 15.9371 378.289 15.7681 378.344 15.3596C378.4 14.9427 378.478 14.3717 378.466 13.704C378.446 12.5048 378.174 11.7714 378.172 11.7639L378.155 11.7179L380.874 10.8342L380.895 10.8549C381.01 10.9695 383.687 13.6627 382.774 14.7962C382 15.7568 379.547 16.0292 378.749 16.0489C378.708 16.0508 378.672 16.0508 378.639 16.0508ZM378.277 11.778C378.337 11.9583 378.545 12.6588 378.562 13.7031C378.573 14.3773 378.496 14.953 378.439 15.3728C378.404 15.6348 378.366 15.9052 378.401 15.9437C378.593 16.0423 381.83 15.8169 382.699 14.7389C383.52 13.7191 381.097 11.1976 380.848 10.9422L378.277 11.778Z" fill="#181818"/>
</g>
<g clip-path="url(#clip6_2303_953)">
<path d="M424.883 13.8193C424.883 13.8193 420.902 17.944 418.513 22.0818C416.123 26.2196 413.959 31.9567 413.959 34.4614C413.959 35.5189 418.796 35.9527 418.995 34.715C419.256 33.0912 420.597 29.0886 421.47 26.6657C422.636 23.4285 425.596 19.394 426.761 17.9966C428.098 16.3925 429.436 15.3914 429.436 15.3914L424.883 13.8193Z" fill="#B02720"/>
<path d="M416.938 35.5149C416.738 35.5149 416.533 35.5064 416.33 35.4905C415.166 35.3994 413.912 35.0387 413.912 34.4612C413.912 32.0176 416 26.3377 418.472 22.0581C420.837 17.9635 424.809 13.8276 424.849 13.7862L424.87 13.7646L424.898 13.775L429.535 15.3762L429.464 15.4288C429.451 15.4391 428.114 16.4449 426.797 18.0255C425.808 19.2125 422.713 23.3503 421.513 26.6805C420.722 28.8771 419.31 33.0412 419.04 34.7213C418.951 35.2848 417.995 35.5149 416.938 35.5149ZM424.896 13.8736C424.58 14.2042 420.824 18.1739 418.553 22.1051C416.088 26.3725 414.006 32.0317 414.006 34.4612C414.006 34.8904 415.008 35.2932 416.337 35.3966C417.525 35.4895 418.849 35.313 418.946 34.7063C419.218 33.0196 420.631 28.848 421.424 26.6486C422.629 23.3062 425.732 19.1562 426.724 17.9654C427.877 16.5811 429.046 15.6354 429.338 15.4062L424.896 13.8736Z" fill="#780600"/>
<path d="M451.158 4.97337C451.158 5.8787 449.67 6.71264 447.169 7.37661C443.679 6.44875 438.22 5.8524 432.083 5.8524C425.946 5.8524 420.486 6.44875 416.997 7.37661C414.495 6.71264 413.007 5.8787 413.007 4.97337C413.007 4.92454 413.012 4.87477 413.02 4.82593C413.396 2.72604 421.787 1.04688 432.083 1.04688C442.379 1.04688 450.769 2.72604 451.145 4.82593C451.154 4.87477 451.158 4.92454 451.158 4.97337Z" fill="#8C1F1A"/>
<path d="M447.169 7.42552L447.156 7.42271C443.517 6.4554 438.024 5.90038 432.083 5.90038C426.143 5.90038 420.648 6.4554 417.009 7.42271L416.997 7.42552L416.984 7.42271C414.351 6.72305 412.959 5.87596 412.959 4.97346C412.959 4.92368 412.964 4.87109 412.974 4.8185C413.356 2.67728 421.751 1 432.083 1C442.415 1 450.808 2.67728 451.192 4.81756C451.201 4.87109 451.206 4.92274 451.206 4.97346C451.206 5.87596 449.814 6.72305 447.181 7.42177L447.169 7.42552ZM432.083 5.80552C438.025 5.80552 443.522 6.36055 447.169 7.32785C449.711 6.65168 451.111 5.81586 451.111 4.97346C451.111 4.92838 451.107 4.88142 451.099 4.83447C450.92 3.83711 448.87 2.89986 445.325 2.19551C441.753 1.48459 437.051 1.09391 432.083 1.09391C427.115 1.09391 422.412 1.48459 418.841 2.19551C415.297 2.89986 413.246 3.83711 413.067 4.83447C413.058 4.88142 413.054 4.92838 413.054 4.97346C413.054 5.81586 414.455 6.65168 416.997 7.32785C420.644 6.36055 426.141 5.80552 432.083 5.80552Z" fill="#780600"/>
<path d="M451.158 4.97363V9.77916C451.158 9.93411 451.115 10.0863 451.03 10.2365C449.929 12.1899 441.866 13.7057 432.083 13.7057C422.299 13.7057 414.236 12.1899 413.135 10.2365C413.051 10.0863 413.007 9.93411 413.007 9.77916V4.97363C413.064 5.92309 414.495 6.7129 416.997 7.37686C420.486 8.30379 425.946 8.90013 432.083 8.90013C438.22 8.90013 443.679 8.30379 447.169 7.37686C449.67 6.7129 451.158 5.87895 451.158 4.97363Z" fill="#B02720"/>
<path d="M432.083 13.7525C422.38 13.7525 414.216 12.2508 413.093 10.2589C413.005 10.1012 412.959 9.93964 412.959 9.77905V4.97352L413.054 4.9707C413.108 5.85442 414.438 6.64893 417.009 7.33167C420.649 8.29898 426.144 8.85306 432.083 8.85306C438.022 8.85306 443.516 8.29804 447.156 7.33167C449.706 6.65456 451.111 5.8178 451.111 4.97352H451.206V9.77905C451.206 9.93964 451.16 10.1012 451.072 10.2589C449.949 12.2508 441.786 13.7525 432.083 13.7525ZM413.054 5.35669V9.77905C413.054 9.92273 413.095 10.0692 413.177 10.2139C414.284 12.1776 422.412 13.6586 432.083 13.6586C441.754 13.6586 449.882 12.1776 450.989 10.2139C451.069 10.0702 451.111 9.92367 451.111 9.77905V5.37922C450.757 6.12959 449.416 6.82924 447.181 7.42277C443.533 8.39195 438.03 8.94792 432.083 8.94792C426.136 8.94792 420.632 8.39195 416.984 7.42277C414.697 6.81515 413.403 6.13616 413.054 5.35669Z" fill="#780600"/>
<path d="M435.341 9.33911C435.341 9.33911 438.105 10.7985 440.903 13.2609C443.824 15.8313 446.409 19.3972 447.921 22.0812C450.516 26.6923 452.238 32.1308 452.474 34.4608C452.58 35.5126 447.638 35.9522 447.438 34.7144C447.177 33.0906 445.736 28.5509 444.655 26.158C442.839 22.1394 440.16 18.6712 436.86 15.744C435.295 14.3559 430.885 11.3883 430.885 11.3883L435.341 9.33911Z" fill="#B02720"/>
<path d="M449.524 35.5137C448.435 35.5137 447.48 35.2723 447.392 34.722C447.136 33.1339 445.715 28.6195 444.612 26.1778C442.864 22.3077 440.245 18.8094 436.829 15.7798C435.284 14.4096 430.903 11.4569 430.86 11.4278L430.79 11.3809L435.342 9.28662L435.363 9.29789C435.39 9.31292 438.164 10.7883 440.934 13.2263C443.938 15.8709 446.535 19.5231 447.961 22.0588C450.449 26.4793 452.265 31.9365 452.521 34.4562C452.575 34.9934 451.488 35.3259 450.541 35.447C450.204 35.4911 449.858 35.5137 449.524 35.5137ZM430.982 11.3959C431.55 11.78 435.45 14.4302 436.892 15.7093C440.318 18.7483 442.945 22.2569 444.699 26.1393C445.805 28.5867 447.23 33.1142 447.486 34.707C447.588 35.3437 449.114 35.5362 450.529 35.354C451.702 35.2038 452.466 34.8469 452.427 34.4656C452.172 31.9544 450.361 26.5149 447.879 22.1039C446.455 19.5748 443.867 15.9328 440.87 13.2958C438.235 10.9761 435.598 9.53173 435.338 9.39086L430.982 11.3959Z" fill="#780600"/>
<path d="M428.293 8.82202C428.293 8.82202 427.304 9.19392 426.325 10.5256C425.346 11.8573 424.754 13.2519 424.836 13.7055C424.917 14.1582 426.487 14.9254 427.385 15.1273C428.282 15.3292 429.947 15.4288 429.947 15.4288L430.343 13.8558L430.002 11.676L428.293 8.82202Z" fill="#B02720"/>
<path d="M429.983 15.4775L429.944 15.4747C429.926 15.4738 428.265 15.3723 427.374 15.1723C426.462 14.9676 424.875 14.2003 424.788 13.7129C424.706 13.2555 425.287 11.8543 426.285 10.4973C427.261 9.16938 428.234 8.79279 428.275 8.77776L428.312 8.76367L430.048 11.6684L430.39 13.8575L429.983 15.4775ZM428.273 8.882C428.086 8.96465 427.216 9.39289 426.363 10.5537C425.394 11.8713 424.805 13.2687 424.882 13.6969C424.955 14.1007 426.443 14.8661 427.396 15.0812C428.203 15.2624 429.653 15.3629 429.91 15.3789L430.295 13.8528L429.957 11.6909L428.273 8.882Z" fill="#780600"/>
<path d="M429.78 11.7483C429.968 11.6741 434.123 10.4617 435.393 9.62399C436.663 8.78629 437.089 7.73728 435.996 7.37665C434.903 7.01603 429.473 7.09116 428.813 7.37665C428.247 7.62083 427.997 8.38716 428.5 9.33943C428.588 9.5066 429.78 11.7483 429.78 11.7483Z" fill="#B02720"/>
<path d="M429.758 11.8075L429.738 11.77C429.738 11.77 428.545 9.52828 428.458 9.36112C428.183 8.83802 428.11 8.32714 428.255 7.92143C428.352 7.65096 428.543 7.44154 428.795 7.3326C429.474 7.03959 434.918 6.96915 436.011 7.33072C436.5 7.49225 436.635 7.76929 436.663 7.97308C436.73 8.46519 436.253 9.11131 435.42 9.66164C434.346 10.3697 431.195 11.353 430.159 11.6761C429.966 11.7362 429.827 11.7794 429.799 11.7906L429.758 11.8075ZM432.487 7.17576C430.838 7.17576 429.185 7.26686 428.832 7.419C428.605 7.51761 428.431 7.70731 428.343 7.95336C428.207 8.33371 428.278 8.8183 428.541 9.31792C428.623 9.47193 429.649 11.4028 429.803 11.6902C429.862 11.6704 429.972 11.6366 430.13 11.5869C431.162 11.2647 434.304 10.2852 435.367 9.58463C436.17 9.05496 436.63 8.44265 436.568 7.98623C436.534 7.73173 436.331 7.53545 435.981 7.41994C435.465 7.25089 433.978 7.17576 432.487 7.17576Z" fill="#780600"/>
<path d="M429.78 11.7484C429.78 11.7484 430.057 12.4838 430.078 13.7046C430.098 14.9255 429.822 15.8543 429.929 15.9745C430.038 16.0957 433.403 15.8825 434.301 14.7677C435.198 13.653 432.426 10.8882 432.426 10.8882L429.78 11.7484Z" fill="#B02720"/>
<path d="M430.203 16.0516C429.934 16.0516 429.907 16.0206 429.893 16.0056C429.832 15.9379 429.852 15.7689 429.907 15.3604C429.963 14.9434 430.041 14.3724 430.03 13.7047C430.01 12.5054 429.738 11.772 429.736 11.7645L429.719 11.7184L432.438 10.8347L432.459 10.8554C432.574 10.969 435.251 13.6634 434.338 14.7969C433.564 15.7576 431.111 16.03 430.313 16.0497C430.272 16.0516 430.236 16.0516 430.203 16.0516ZM429.841 11.7785C429.901 11.9589 430.109 12.6594 430.126 13.7038C430.137 14.3781 430.059 14.9537 430.002 15.3735C429.967 15.6355 429.93 15.906 429.964 15.9445C430.157 16.0431 433.394 15.8177 434.263 14.7396C435.084 13.7197 432.661 11.1982 432.412 10.9427L429.841 11.7785Z" fill="#780600"/>
</g>
<path d="M11.9631 13.8574C11.9631 13.8574 7.96872 17.9956 5.57152 22.1469C3.17431 26.2983 1.00283 32.0542 1.00283 34.567C1.00283 35.6279 5.85533 36.0632 6.05534 34.8214C6.31725 33.1923 7.663 29.1767 8.53826 26.7458C9.70876 23.498 12.6784 19.4503 13.847 18.0483C15.1889 16.4391 16.5308 15.4347 16.5308 15.4347L11.9631 13.8574Z" fill="white"/>
<path d="M3.9917 35.6234C3.79074 35.6234 3.58597 35.6149 3.38216 35.5989C2.21356 35.5075 0.955429 35.1457 0.955429 34.5662C0.955429 32.1146 3.05072 26.4162 5.53078 22.1226C7.90418 18.0146 11.889 13.8651 11.929 13.8237L11.95 13.802L16.6311 15.4179L16.5596 15.4706C16.5463 15.481 15.2053 16.4901 13.8834 18.0758C12.891 19.2668 9.78613 23.4181 8.58229 26.7592C7.78798 28.962 6.37271 33.1407 6.10127 34.8263C6.01175 35.3926 5.05268 35.6234 3.9917 35.6234ZM11.9767 13.9113C11.6605 14.243 7.89084 18.2256 5.61269 22.1697C3.13929 26.4511 1.04972 32.1288 1.04972 34.5662C1.04972 34.9968 2.05546 35.401 3.38882 35.5047C4.58124 35.598 5.90889 35.4208 6.00699 34.8122C6.27937 33.119 7.6975 28.9338 8.49276 26.7281C9.70136 23.3748 12.8148 19.2112 13.81 18.0165C14.9672 16.6277 16.1396 15.6789 16.433 15.449L11.9767 13.9113Z" fill="#C9C8C8"/>
<path d="M38.3256 4.98329C38.3256 5.89157 36.8322 6.72825 34.3226 7.39439C30.8216 6.46349 25.3443 5.86519 19.187 5.86519C13.0297 5.86519 7.55147 6.46349 4.05043 7.39439C1.54084 6.72825 0.0474701 5.89157 0.0474701 4.98329C0.0474701 4.9343 0.0522321 4.88436 0.0608038 4.83537C0.437956 2.7286 8.85626 1.04395 19.187 1.04395C29.5168 1.04395 37.9351 2.7286 38.3122 4.83537C38.3208 4.88436 38.3256 4.9343 38.3256 4.98329Z" fill="#EFEFEF"/>
<path d="M34.3227 7.44386L34.3103 7.44103C30.6588 6.47056 25.1472 5.91372 19.1871 5.91372C13.2269 5.91372 7.71442 6.47056 4.0629 7.44103L4.05052 7.44386L4.03814 7.44103C1.39616 6.73909 -6.10352e-05 5.88923 -6.10352e-05 4.98377C-6.10352e-05 4.93383 0.00470099 4.88107 0.014225 4.82831C0.398044 2.68009 8.82016 0.997314 19.1871 0.997314C29.5531 0.997314 37.9742 2.68009 38.359 4.82736C38.3685 4.88107 38.3733 4.93289 38.3733 4.98377C38.3733 5.88923 36.9771 6.73909 34.3351 7.44009L34.3227 7.44386ZM19.1871 5.81856C25.1482 5.81856 30.6636 6.3754 34.3227 7.34587C36.8732 6.66748 38.278 5.82893 38.278 4.98377C38.278 4.93854 38.2742 4.89143 38.2657 4.84432C38.0866 3.84371 36.0294 2.90339 32.4731 2.19674C28.8892 1.48349 24.171 1.09153 19.1871 1.09153C14.2022 1.09153 9.48399 1.48349 5.90104 2.19674C2.34476 2.90339 0.287565 3.84371 0.107561 4.84432C0.0989891 4.89143 0.0951795 4.93854 0.0951795 4.98377C0.0951795 5.82893 1.49998 6.66748 4.05052 7.34587C7.70966 6.3754 13.225 5.81856 19.1871 5.81856Z" fill="#C9C8C8"/>
<path d="M38.3256 4.98462V9.80587C38.3256 9.96133 38.2818 10.114 38.1971 10.2647C37.0923 12.2245 29.0025 13.7452 19.1871 13.7452C9.37062 13.7452 1.2809 12.2245 0.176106 10.2647C0.0913418 10.114 0.0475311 9.96133 0.0475311 9.80587V4.98462C0.104675 5.93719 1.5409 6.72958 4.05049 7.39571C7.55153 8.32567 13.0298 8.92397 19.1871 8.92397C25.3444 8.92397 30.8216 8.32567 34.3227 7.39571C36.8323 6.72958 38.3256 5.8929 38.3256 4.98462Z" fill="white"/>
<path d="M19.1871 13.792C9.45167 13.792 1.26098 12.2854 0.134289 10.287C0.0457154 10.1287 0 9.96664 0 9.80552V4.98427L0.0952405 4.98145C0.148575 5.86806 1.48385 6.66516 4.06296 7.35014C7.71543 8.32061 13.228 8.87651 19.1871 8.87651C25.1454 8.87651 30.6579 8.31967 34.3104 7.35014C36.8685 6.67081 38.2781 5.83131 38.2781 4.98427H38.3733V9.80552C38.3733 9.96664 38.3276 10.1287 38.2391 10.287C37.1124 12.2854 28.9217 13.792 19.1871 13.792ZM0.0952405 5.36869V9.80552C0.0952405 9.94968 0.136194 10.0967 0.218101 10.2418C1.3286 12.2119 9.48405 13.6978 19.1871 13.6978C28.8902 13.6978 37.0447 12.2119 38.1552 10.2418C38.2362 10.0976 38.2781 9.95062 38.2781 9.80552V5.3913C37.9229 6.14412 36.5771 6.84606 34.3351 7.44153C30.6751 8.41389 25.154 8.97167 19.1871 8.97167C13.2203 8.97167 7.69829 8.41389 4.0382 7.44153C1.7429 6.83193 0.444773 6.15072 0.0952405 5.36869Z" fill="#C9C8C8"/>
<path d="M22.4555 9.36328C22.4555 9.36328 25.2289 10.8275 28.0357 13.2979C30.9662 15.8767 33.5606 19.4543 35.0768 22.1471C37.6807 26.7733 39.4083 32.2296 39.6455 34.5672C39.7521 35.6224 34.793 36.0634 34.593 34.8216C34.3311 33.1925 32.8853 28.6379 31.8005 26.2372C29.9786 22.2055 27.2909 18.7259 23.9794 15.7891C22.4089 14.3965 17.9849 11.4192 17.9849 11.4192L22.4555 9.36328Z" fill="white"/>
<path d="M36.6857 35.6227C35.5923 35.6227 34.6352 35.3805 34.5466 34.8284C34.2904 33.2351 32.8646 28.706 31.7579 26.2563C30.0036 22.3734 27.3759 18.8637 23.9492 15.8242C22.3996 14.4495 18.0043 11.4872 17.9604 11.458L17.8909 11.4109L22.4577 9.30981L22.4787 9.32112C22.5063 9.3362 25.2892 10.8164 28.0683 13.2624C31.0827 15.9156 33.6875 19.5798 35.119 22.1238C37.6152 26.5596 39.4372 32.0338 39.6934 34.5618C39.7477 35.1007 38.6572 35.4342 37.7067 35.5558C37.3676 35.6001 37.0209 35.6227 36.6857 35.6227ZM18.0824 11.426C18.6519 11.8114 22.5653 14.4703 24.012 15.7535C27.4493 18.8025 30.0846 22.3226 31.8446 26.2176C32.9542 28.673 34.3837 33.2154 34.6409 34.8133C34.7437 35.4521 36.2742 35.6453 37.6943 35.4625C38.8714 35.3118 39.6372 34.9537 39.5981 34.5712C39.3429 32.0517 37.5257 26.5945 35.0352 22.169C33.6066 19.6316 31.0103 15.9778 28.0036 13.3321C25.3606 11.0058 22.7139 9.55573 22.4539 9.4144L18.0824 11.426Z" fill="#C9C8C8"/>
<path d="M15.3837 8.84448C15.3837 8.84448 14.3913 9.21759 13.4093 10.5536C12.4274 11.8897 11.8331 13.2888 11.915 13.7439C11.9969 14.1981 13.5731 14.9679 14.4732 15.1704C15.3732 15.373 17.0437 15.4729 17.0437 15.4729L17.4409 13.8947L17.0989 11.7078L15.3837 8.84448Z" fill="white"/>
<path d="M17.0802 15.5214L17.0411 15.5186C17.024 15.5177 15.3573 15.4159 14.463 15.2152C13.5477 15.0098 11.9562 14.24 11.8686 13.751C11.7857 13.2922 12.3696 11.8864 13.3706 10.5249C14.3496 9.19268 15.3258 8.81485 15.3668 8.79978L15.4039 8.78564L17.1459 11.6999L17.4888 13.8961L17.4868 13.9056L17.0802 15.5214ZM15.3639 8.90436C15.1763 8.98728 14.3039 9.41692 13.4477 10.5815C12.4753 11.9034 11.8848 13.3054 11.9619 13.735C12.0353 14.1402 13.5277 14.9081 14.4839 15.1238C15.2935 15.3057 16.7487 15.4065 17.0068 15.4225L17.3926 13.8914L17.0535 11.7225L15.3639 8.90436Z" fill="#C9C8C8"/>
<path d="M16.8764 11.7802C17.065 11.7058 21.2336 10.4894 22.508 9.64898C23.7823 8.80854 24.209 7.7561 23.1127 7.39429C22.0165 7.03249 16.5678 7.10787 15.9059 7.39429C15.3383 7.63927 15.0868 8.4081 15.5916 9.3635C15.6802 9.53121 16.8764 11.7802 16.8764 11.7802Z" fill="white"/>
<path d="M16.8548 11.8396L16.8348 11.8019C16.8348 11.8019 15.6376 9.55288 15.55 9.38516C15.2738 8.86036 15.2005 8.3478 15.3462 7.94077C15.4433 7.66941 15.6357 7.4593 15.8881 7.35001C16.5691 7.05604 22.0311 6.98538 23.1283 7.34812C23.6188 7.51018 23.754 7.78813 23.7826 7.99259C23.8493 8.4863 23.3711 9.13548 22.5349 9.68667C21.4578 10.3971 18.2958 11.3836 17.2567 11.7077C17.0634 11.768 16.9234 11.8113 16.8957 11.8226L16.8548 11.8396ZM19.592 7.19266C17.9377 7.19266 16.2795 7.28405 15.9252 7.43669C15.6976 7.53562 15.5233 7.72595 15.4348 7.9728C15.2986 8.3544 15.369 8.84057 15.6338 9.34182C15.7157 9.49634 16.7453 11.4335 16.8996 11.7218C16.9586 11.702 17.0691 11.6681 17.2272 11.6182C18.2634 11.295 21.4159 10.3123 22.4816 9.60941C23.2873 9.07801 23.7492 8.46369 23.6873 8.00578C23.6531 7.75044 23.4492 7.55352 23.0978 7.43763C22.5806 7.26804 21.0882 7.19266 19.592 7.19266Z" fill="#C9C8C8"/>
<path d="M16.8768 11.7827C16.8768 11.7827 17.1549 12.5205 17.1758 13.7453C17.1958 14.9702 16.9187 15.902 17.0263 16.0226C17.1349 16.1442 20.5111 15.9303 21.4121 14.8119C22.3121 13.6935 19.5311 10.9197 19.5311 10.9197L16.8768 11.7827Z" fill="white"/>
<path d="M17.3003 16.1001C17.0307 16.1001 17.0041 16.069 16.9898 16.054C16.9288 15.9861 16.9488 15.8165 17.0041 15.4067C17.0603 14.9883 17.1374 14.4155 17.1269 13.7456C17.1069 12.5443 16.8336 11.8065 16.8317 11.799L16.8145 11.7528L19.5432 10.8662L19.5641 10.8869C19.6794 11.0009 22.3652 13.7041 21.4489 14.8414C20.6727 15.8052 18.2117 16.0785 17.4107 16.0983C17.3698 16.1001 17.3336 16.1001 17.3003 16.1001ZM16.9374 11.8131C16.9974 11.994 17.206 12.6969 17.2231 13.7446C17.2345 14.4211 17.1564 14.9987 17.0993 15.4199C17.0641 15.6827 17.0269 15.9541 17.0612 15.9918C17.2545 16.0907 20.5022 15.8646 21.3737 14.7829C22.1975 13.7597 19.767 11.2299 19.5165 10.9736L16.9374 11.8131Z" fill="#C9C8C8"/>
<defs>
<clipPath id="clip0_2303_953">
<rect width="39.5633" height="34.5127" fill="white" transform="translate(258.283 0.997314)"/>
</clipPath>
<clipPath id="clip1_2303_953">
<rect width="39.5633" height="34.5127" fill="white" transform="translate(103.634 0.997314)"/>
</clipPath>
<clipPath id="clip2_2303_953">
<rect width="39.5633" height="34.5127" fill="white" transform="translate(309.833 0.997559)"/>
</clipPath>
<clipPath id="clip3_2303_953">
<rect width="39.5633" height="34.5127" fill="white" transform="translate(206.734 0.997314)"/>
</clipPath>
<clipPath id="clip4_2303_953">
<rect width="39.5633" height="34.5127" fill="white" transform="translate(155.185 0.997314)"/>
</clipPath>
<clipPath id="clip5_2303_953">
<rect width="39.5633" height="34.5127" fill="white" transform="translate(361.396 1)"/>
</clipPath>
<clipPath id="clip6_2303_953">
<rect width="39.564" height="34.5149" fill="white" transform="translate(412.959 1)"/>
</clipPath>
</defs>
</svg>
