<svg width="101" height="108" viewBox="0 0 101 108" fill="none" xmlns="http://www.w3.org/2000/svg">
<path d="M100.605 14.0935L91.6326 1.75242C91.4622 1.51801 91.2381 1.32781 90.979 1.19776C90.7199 1.0677 90.4333 1.00158 90.1434 1.00493C89.8534 1.00846 89.5684 1.08137 89.3124 1.21754C89.0564 1.35372 88.8367 1.5492 88.6719 1.78762L80.1057 14.1846C79.8786 14.5131 79.749 14.899 79.7316 15.2978C79.7145 15.6961 79.8101 16.0911 80.0074 16.4375L81.0595 18.2861C79.8204 19.1572 78.9159 20.4247 78.4957 21.8792C78.1712 23.0416 78.1733 24.2709 78.5016 25.4322C78.83 26.5936 79.472 27.6422 80.3573 28.4631L84.0978 32.0236C82.8618 36.3142 84.9365 39.7259 86.312 41.4022C86.975 42.2112 87.3366 43.2249 87.3353 44.2705V69.3307C86.2382 69.8245 85.3525 70.6918 84.8362 71.7777L75.9073 71.4575C72.8195 64.8147 68.7033 58.6995 63.7101 53.337C67.6599 52.3984 70.0402 49.7805 70.4106 45.791C70.4139 45.7554 70.4156 45.7202 70.4156 45.6847C70.4156 45.5412 70.3894 42.1437 68.1208 39.6206C67.5441 38.979 67.1074 38.2244 66.8385 37.4049C66.5696 36.5854 66.4745 35.719 66.5591 34.8608C66.803 32.14 65.8331 28.0948 59.8271 24.2742C58.7467 23.5913 57.8392 22.6677 57.1758 21.5759C56.5123 20.484 56.111 19.2535 56.0031 17.9808C55.4864 11.2654 52.7323 0 40.0745 0C39.8101 0.0043576 33.8923 0.149834 30.6712 4.18396C28.7384 3.68116 23.9774 3.08887 19.0366 7.41897C15.2321 10.7529 14.6993 17.0573 14.9224 21.7585C14.9926 22.9704 14.7893 24.1826 14.3275 25.3054C13.8658 26.4283 13.1573 27.4331 12.2546 28.2456C10.6417 29.6362 9.36951 31.3778 8.53571 33.3365C7.70192 35.2952 7.32876 37.4189 7.44491 39.5442C7.50902 41.8235 8.16201 44.0475 9.34045 46.0001C8.51459 46.6858 7.94389 47.6294 7.72035 48.6787C7.44455 49.9882 7.2446 51.3126 7.12149 52.6451C6.16223 52.5286 5.19228 52.749 4.37781 53.2686C3.88056 53.5849 3.45698 54.0041 3.13566 54.4978C2.81433 54.9916 2.60274 55.5485 2.51515 56.1309C2.11871 58.7247 1.98719 61.3521 2.12262 63.9725C2.18409 65.119 2.58938 66.2205 3.28578 67.1338C2.4769 70.6896 -1.55776 89.7206 0.655498 106.315C0.69222 106.591 0.827813 106.844 1.0371 107.027C1.24639 107.21 1.51516 107.312 1.7935 107.312C1.84477 107.312 1.89598 107.308 1.94682 107.302C2.24902 107.261 2.52281 107.103 2.70797 106.861C2.89313 106.619 2.9745 106.313 2.93418 106.011C1.81463 97.6162 2.338 88.5604 3.21197 81.2983C3.53916 81.8624 3.93616 82.383 4.39358 82.848C5.22796 83.6947 6.32905 84.7844 7.56636 85.9388C6.76318 96.38 8.71677 105.988 8.80098 106.396C8.86701 106.69 9.04602 106.946 9.29943 107.109C9.55284 107.273 9.86035 107.33 10.1557 107.269C10.451 107.208 10.7105 107.034 10.8783 106.783C11.046 106.533 11.1086 106.227 11.0525 105.93C9.95563 99.9879 9.51807 93.9426 9.74774 87.9041C11.1814 89.1722 12.695 90.347 14.2793 91.4214L13.6865 94.2568C13.4657 95.3382 13.5867 96.4614 14.0328 97.471C14.4789 98.4807 15.228 99.3269 16.1765 99.8925C15.4668 101.849 14.8903 103.852 14.451 105.887C14.4088 106.056 14.4058 106.233 14.4422 106.404C14.4787 106.574 14.5536 106.734 14.6614 106.872C14.7692 107.009 14.9069 107.12 15.0641 107.197C15.2213 107.273 15.3938 107.312 15.5686 107.312C15.8318 107.312 16.087 107.221 16.2915 107.055C16.496 106.89 16.6374 106.659 16.6922 106.402C18.6548 97.168 23.7265 89.6887 25.6163 87.1399C28.3491 89.3671 31.3603 91.2297 34.574 92.6807C35.5026 93.1052 36.5283 93.2726 37.5438 93.1654C38.5593 93.0582 39.5273 92.6803 40.3465 92.0713C43.0186 90.0976 45.3785 87.7338 47.3473 85.0593C57.3786 93.0481 60.3538 106.27 60.3836 106.406C60.4156 106.554 60.4762 106.694 60.5622 106.818C60.6482 106.942 60.7578 107.048 60.8847 107.129C61.0116 107.211 61.1534 107.267 61.302 107.294C61.4506 107.321 61.603 107.318 61.7506 107.287C61.8982 107.255 62.0381 107.194 62.1622 107.108C62.2864 107.022 62.3924 106.913 62.4741 106.786C62.5559 106.659 62.6119 106.517 62.6389 106.369C62.6659 106.221 62.6634 106.068 62.6315 105.921C62.5016 105.32 59.3611 91.298 48.2407 82.8419V75.3244C48.2331 74.2833 48.5613 73.2674 49.1768 72.4273C49.311 72.25 49.4495 72.0539 49.5914 71.8413C53.0144 74.9396 56.6641 77.7781 60.5101 80.3333C62.1828 81.4298 64.1395 82.0148 66.1401 82.0167H67.1606C70.4106 89.5683 71.7003 97.8173 70.9105 106C70.8872 106.163 70.8993 106.329 70.946 106.487C70.9926 106.645 71.0728 106.791 71.181 106.916C71.2891 107.04 71.4228 107.14 71.573 107.208C71.7231 107.276 71.8862 107.311 72.0511 107.311C72.3361 107.311 72.6108 107.205 72.8219 107.013C73.033 106.822 73.1654 106.559 73.1935 106.276C74.0045 98.0217 72.7879 89.6947 69.6493 82.0167H77.4412C81.3735 95.3321 80.203 105.922 80.1906 106.028C80.1553 106.331 80.2415 106.634 80.4302 106.873C80.6189 107.112 80.8947 107.266 81.1971 107.302C81.2422 107.307 81.2875 107.31 81.3329 107.31C81.6143 107.31 81.8858 107.207 82.0961 107.02C82.3063 106.833 82.4406 106.575 82.4736 106.296C82.5263 105.851 83.6838 95.4887 79.8356 82.0157H84.7047C85.1913 83.2386 86.1351 84.2243 87.3363 84.7643V106.098C87.3302 106.4 87.4391 106.693 87.6411 106.918C87.843 107.143 88.123 107.283 88.4243 107.31C88.5802 107.319 88.7363 107.295 88.8828 107.241C89.0294 107.187 89.1634 107.104 89.2768 106.997C89.3901 106.89 89.4804 106.76 89.542 106.617C89.6037 106.474 89.6355 106.319 89.6354 106.163V85.2111H92.1694C92.1953 85.2111 92.2204 85.2078 92.2462 85.2074V106.098C92.2401 106.4 92.3491 106.693 92.551 106.918C92.753 107.143 93.0329 107.283 93.3343 107.31C93.4902 107.319 93.6462 107.295 93.7928 107.241C93.9393 107.187 94.0734 107.104 94.1867 106.997C94.3001 106.89 94.3903 106.76 94.452 106.617C94.5137 106.474 94.5454 106.319 94.5454 106.163V84.6155C95.3525 84.185 96.0275 83.5438 96.4984 82.7601C96.9693 81.9765 97.2185 81.0798 97.2193 80.1657V73.931C97.2185 73.017 96.9693 72.1203 96.4984 71.3367C96.0275 70.5531 95.3525 69.9119 94.5454 69.4815V39.8288C95.7084 38.8618 96.57 37.5823 97.0281 36.1416C97.2436 35.4298 97.3008 34.6795 97.1958 33.9433L100.436 25.7514C100.81 24.82 100.999 23.8247 100.992 22.8211C100.983 22.0018 100.954 19.7483 99.4822 18.0522L100.595 16.5438C100.856 16.189 100.998 15.7603 101 15.3196C101.002 14.8794 100.863 14.4499 100.605 14.0935ZM89.3258 4.88453L90.247 13.8679C90.276 14.1503 90.4085 14.412 90.6192 14.6025C90.8298 14.793 91.1036 14.8989 91.3877 14.8996C91.4274 14.8996 91.467 14.8976 91.5065 14.8936C91.8098 14.8625 92.0884 14.7122 92.2809 14.476C92.4734 14.2397 92.5641 13.9367 92.5331 13.6336L91.7279 5.79627L98.2214 14.7287L91.4984 16.9926L82.582 14.6462L89.3258 4.88453ZM83.5247 17.9714L83.055 17.1465L90.2605 19.0427L89.5298 24.3543L83.5247 17.9714ZM92.5797 19.0524L96.9747 17.5722L91.9215 23.827L92.5797 19.0524ZM73.3223 71.365L68.721 71.2001C67.6067 71.1626 66.5514 70.6901 65.7818 69.8841C63.23 67.2246 58.7236 62.3907 55.5039 58.194C56.6197 58.0053 57.6484 57.4725 58.4459 56.6702C59.2434 55.868 59.7696 54.8365 59.9509 53.7205C60.0139 53.7205 60.0797 53.7251 60.1424 53.7251C60.3974 53.7251 60.6457 53.7181 60.8936 53.708C65.9565 58.8901 70.1524 64.8519 73.3207 71.365H73.3223ZM16.6784 45.8386C16.7873 45.2325 16.9538 44.6382 17.1756 44.0637C17.2455 43.8797 17.353 43.7123 17.4911 43.5721C17.6293 43.4318 17.7951 43.3218 17.9781 43.249C18.1611 43.1762 18.3572 43.1422 18.554 43.1491C18.7509 43.1561 18.9441 43.2038 19.1215 43.2894C20.1135 44.0717 27.8262 49.8087 41.6704 50.7533C41.5742 51.0727 41.5056 51.3998 41.4654 51.731C41.4319 52.026 41.4087 52.3193 41.393 52.6113C28.0745 52.4138 18.9413 47.2575 16.6784 45.8386ZM25.8508 30.4938C26.0145 32.1473 27.1317 35.793 28.6425 37.7147C29.333 38.5936 30.0971 39.4122 30.9265 40.1616V42.3263C28.7579 42.1832 26.8378 42.0133 25.2338 41.8487C24.6739 38.0607 24.8838 34.1989 25.8508 30.4938ZM53.5922 56.0648C53.6783 55.5966 53.708 55.1198 53.6808 54.6446C53.6029 53.238 53.3356 51.8483 52.8863 50.5129C52.5517 49.5321 51.9588 48.6595 51.1699 47.9869C52.6693 46.8983 54.0696 45.6797 55.3546 44.3452C55.4332 44.262 55.5321 44.2006 55.6416 44.1669C55.751 44.1331 55.8674 44.1283 55.9793 44.1528C56.087 44.174 56.1872 44.2231 56.2699 44.2951C56.3527 44.3672 56.415 44.4597 56.4506 44.5635C57.432 47.2928 57.8593 50.1901 57.7074 53.0863C57.6556 53.8293 57.338 54.529 56.8125 55.0574C56.287 55.5857 55.5887 55.9075 54.8453 55.9639L53.5922 56.0648ZM42.9235 48.5228C42.8027 48.5171 42.6839 48.5094 42.5642 48.5031V44.9784C45.6588 44.9623 48.7077 44.8581 51.6702 44.6637C50.7849 45.4236 49.855 46.1301 48.8856 46.7795C48.3869 46.6417 47.8724 46.5699 47.355 46.5656C46.5202 46.5617 45.694 46.734 44.9305 47.0713C44.167 47.4086 43.4834 47.9032 42.9245 48.5228H42.9235ZM33.2247 41.9151C33.6484 42.1832 34.0788 42.436 34.5207 42.6605C35.2 43.004 35.9557 43.1688 36.7164 43.1395C37.4772 43.1102 38.2179 42.8876 38.8687 42.4929C39.2793 42.2412 39.7571 41.9231 40.2647 41.543V48.3264C37.8911 48.0934 35.5381 47.6854 33.2247 47.106V41.9151ZM54.5487 42.1376C50.7019 42.4782 46.676 42.6599 42.5642 42.6813V39.4969C42.8148 39.2288 43.0637 38.9542 43.3059 38.6589C44.9128 36.6791 45.8986 34.2692 46.1395 31.7317C46.1986 31.1387 46.2466 30.5313 46.2878 29.9176C51.3226 32.4564 54.2297 36.2988 55.3318 41.8842C55.0605 41.9316 54.7972 42.0169 54.5497 42.1376H54.5487ZM43.8511 31.5048C43.6542 33.593 42.8445 35.5767 41.5235 37.2068C40.4302 38.5221 39.1265 39.6474 37.6653 40.537C37.351 40.7296 36.9923 40.8378 36.6238 40.8511C36.2554 40.8645 35.8898 40.7825 35.5624 40.6131C33.5693 39.5548 31.8259 38.0828 30.4491 36.2958C29.1924 34.6867 28.4085 32.7601 28.1849 30.7314C27.9939 28.9088 27.9233 27.0755 27.9735 25.2436C27.9735 25.2285 27.9701 25.2147 27.9698 25.1996C29.4518 22.5074 31.3842 20.0885 33.6833 18.0478C34.2607 20.7505 36.4427 25.1346 44.0444 28.8563C43.9994 29.7563 43.9377 30.6463 43.8521 31.5048H43.8511ZM30.9255 44.6282V46.4637C28.8925 45.8418 26.9106 45.0637 24.9977 44.1364C26.6577 44.304 28.6539 44.4807 30.9265 44.6282H30.9255ZM43.7475 52.0005C43.854 51.1312 44.2766 50.3313 44.9347 49.7528C45.5929 49.1743 46.4409 48.8576 47.3175 48.8627H47.3399C48.0802 48.8622 48.8022 49.092 49.4058 49.5202C50.0094 49.9483 50.4647 50.5536 50.7083 51.252C51.0911 52.3918 51.3186 53.5779 51.3847 54.7783C51.4366 55.5943 51.2077 56.4035 50.7361 57.0716C50.2644 57.7398 49.5783 58.2268 48.7916 58.4518L48.5031 58.5349C48.0489 58.667 47.573 58.7082 47.1028 58.6561C46.6326 58.6041 46.1773 58.4598 45.7631 58.2315C45.3488 58.0032 44.9838 57.6955 44.6888 57.3259C44.3939 56.9563 44.1749 56.5322 44.0444 56.0779C43.6763 54.7518 43.5757 53.3658 43.7485 52.0005H43.7475ZM9.74204 39.4476C9.64487 37.663 9.95859 35.8799 10.6591 34.2354C11.3596 32.5909 12.4282 31.1288 13.7827 29.9615C14.9423 28.9219 15.8533 27.6352 16.4482 26.1966C17.0431 24.7579 17.3069 23.2041 17.2199 21.6499C17.0209 17.4528 17.4376 11.8765 20.5534 9.14693C25.7143 4.62173 30.4729 6.50824 30.6672 6.58835C30.9169 6.69464 31.1962 6.70919 31.4557 6.62943C31.7151 6.54968 31.9379 6.38076 32.0847 6.15259C34.465 2.45333 40.0587 2.29779 40.0939 2.29779C50.3399 2.29779 53.1544 10.9225 53.7113 18.1574C53.8473 19.7856 54.3588 21.3601 55.2058 22.7577C56.0528 24.1553 57.2122 25.3379 58.5931 26.213C62.5754 28.7461 64.5381 31.6656 64.2703 34.6566C64.1628 35.8288 64.2974 37.0106 64.6657 38.1287C65.034 39.2469 65.6282 40.2775 66.4115 41.1568C67.9618 42.8808 68.1037 45.2919 68.1161 45.6425C67.6407 50.3939 63.6205 51.4548 60.0337 51.4287C59.9726 48.8227 59.4938 46.2434 58.6156 43.7888C58.4471 43.3161 58.1599 42.8946 57.7815 42.5647C56.668 35.2972 52.8853 30.3124 46.2133 27.3375C34.9605 22.3199 35.7744 16.1623 35.813 15.9156C35.8541 15.6864 35.8246 15.4501 35.7283 15.2381C35.632 15.026 35.4734 14.8483 35.2736 14.7283C35.0739 14.6083 34.8424 14.5518 34.6098 14.5663C34.3771 14.5808 34.1544 14.6656 33.9711 14.8095C22.8663 23.5247 22.0825 34.7914 22.8861 41.5872C21.4236 41.4119 20.4584 41.2698 20.0991 41.2148C19.6353 40.9935 19.1306 40.8707 18.6168 40.8544C18.1031 40.8382 17.5916 40.9286 17.1147 41.1202C16.6378 41.3117 16.2059 41.6001 15.8464 41.9671C15.4868 42.3341 15.2075 42.7717 15.0261 43.2522C14.7945 43.8577 14.6107 44.4804 14.4762 45.1145L13.1024 44.9208C12.5444 44.8435 11.9772 44.8656 11.4269 44.9858C10.3763 43.3251 9.79418 41.4116 9.74204 39.4476ZM15.938 94.7264L16.6935 91.1123C16.7421 90.8799 16.7174 90.6381 16.6229 90.4203C16.5283 90.2024 16.3685 90.0192 16.1654 89.8959C12.7001 87.7915 8.32927 83.567 6.03348 81.2363C5.50088 80.6962 5.08642 80.0514 4.81636 79.3428C4.54631 78.6342 4.42656 77.8773 4.46471 77.1201C4.61269 74.3386 4.91014 71.5671 5.35578 68.8175C5.82626 69.0445 6.3253 69.2068 6.83934 69.3002C9.0518 69.6997 11.2885 69.9512 13.5345 70.0531L11.5762 76.9712C11.5318 77.1278 11.5212 77.2921 11.5451 77.4531C11.5691 77.6141 11.627 77.7682 11.7151 77.9051C13.8119 81.1639 18.9024 86.2851 21.6035 88.9114C19.8253 91.7018 18.293 94.6413 17.024 97.6966C16.5854 97.3506 16.2517 96.8896 16.0599 96.3652C15.8682 95.8408 15.8259 95.2734 15.938 94.7264ZM19.8757 69.9384C20.7584 71.0939 21.7429 72.1681 22.8173 73.1483C23.2957 73.5979 23.6752 74.1422 23.9316 74.7464C24.1879 75.3507 24.3155 76.0016 24.3062 76.6578V85.062C24.0197 85.4253 23.5248 86.0722 22.9001 86.9659C20.5349 84.653 16.0077 80.0869 13.9327 77.0872L15.9094 70.104C17.2608 70.1011 18.5829 70.0459 19.8757 69.9384ZM47.3379 71.0489C46.4244 72.287 45.9345 73.7863 45.9409 75.3244V83.0675C44.0299 85.8206 41.677 88.2394 38.9771 90.2264C38.4884 90.5897 37.911 90.8153 37.3053 90.8795C36.6995 90.9437 36.0876 90.8442 35.5335 90.5914C32.3082 89.1406 29.3029 87.2443 26.6057 84.958V76.6578C26.6149 75.6818 26.4206 74.7146 26.0349 73.8178C25.6493 72.921 25.0809 72.1143 24.3659 71.4492C23.7431 70.8814 23.1539 70.2779 22.6012 69.6418C29.4092 68.6751 35.9785 66.4547 41.9757 63.0933C42.2422 62.9453 42.4389 62.6976 42.5227 62.4047C42.6064 62.1118 42.5702 61.7977 42.4221 61.5314C42.274 61.2652 42.0261 61.0686 41.7329 60.985C41.4398 60.9013 41.1253 60.9375 40.8588 61.0855C33.4085 65.2225 21.5307 69.6139 7.24965 67.0399C6.55408 66.9154 5.91373 66.5799 5.4155 66.0793C5.39235 66.0524 5.36719 66.0276 5.34169 66.0028C4.79019 65.4146 4.46397 64.651 4.42042 63.8462C4.29361 61.3818 4.41783 58.911 4.79114 56.4718C4.82864 56.2136 4.92191 55.9666 5.06448 55.7481C5.20706 55.5295 5.39552 55.3446 5.6168 55.2061C5.84166 55.0626 6.09469 54.969 6.35882 54.9316C6.62295 54.8941 6.89206 54.9136 7.14799 54.9888L7.75591 55.1675C8.908 55.7357 19.1627 60.6148 31.3023 60.6148C31.4549 60.6174 31.6065 60.5897 31.7483 60.5331C31.89 60.4766 32.0191 60.3924 32.1279 60.2855C32.2368 60.1785 32.3232 60.051 32.3823 59.9104C32.4413 59.7698 32.4717 59.6188 32.4717 59.4663C32.4717 59.3138 32.4413 59.1628 32.3823 59.0221C32.3232 58.8815 32.2368 58.754 32.1279 58.6471C32.0191 58.5402 31.89 58.456 31.7483 58.3994C31.6065 58.3429 31.4549 58.3151 31.3023 58.3177C20.9959 58.3177 11.8644 54.5189 9.36998 53.3856C9.47799 51.9645 9.67881 50.552 9.97118 49.157C10.1057 48.5364 10.47 47.9894 10.9912 47.6259C11.5123 47.2624 12.1518 47.1091 12.7813 47.1968L15.0331 47.5146C16.6848 48.6247 26.44 54.7214 41.4701 54.9107C41.5463 55.5181 41.6685 56.1188 41.8355 56.7077C42.1877 57.9363 42.9302 59.0172 43.9508 59.7875C44.9715 60.5577 46.2151 60.9756 47.4943 60.9782C48.0526 60.9779 48.608 60.8989 49.1442 60.7436L49.3888 60.6732C50.4171 65.92 48.5779 69.3987 47.3379 71.0489ZM61.7669 78.4103C57.871 75.8188 54.1808 72.9313 50.7291 69.7732C51.7852 67.3986 52.52 63.9816 51.5028 59.5794C51.9093 59.253 52.2704 58.8738 52.5763 58.4518L52.8075 58.433C56.1158 62.9666 61.2979 68.5336 64.1187 71.474C65.3017 72.7123 66.9234 73.438 68.6358 73.4956L84.3454 74.059V79.7202H66.1401C64.5858 79.718 63.066 79.2627 61.7669 78.4103ZM94.9205 80.1657C94.9198 80.8945 94.6297 81.5932 94.1139 82.1085C93.5982 82.6238 92.8988 82.9136 92.1694 82.9143H89.3959C88.6665 82.9136 87.9671 82.6238 87.4514 82.1085C86.9356 81.5932 86.6455 80.8945 86.6448 80.1657V73.931C86.6455 73.2022 86.9355 72.5034 87.4513 71.9881C87.9671 71.4728 88.6665 71.183 89.3959 71.1823H92.1694C92.8989 71.183 93.5982 71.4728 94.114 71.9881C94.6298 72.5034 94.9199 73.2022 94.9205 73.931V80.1657ZM92.1694 68.8856H89.6341V44.2705C89.6322 42.6924 89.0854 41.1633 88.0858 39.9414C86.9451 38.5476 85.784 36.4503 86.0658 33.8981L92.2462 39.7818V68.8906C92.2207 68.8892 92.1956 68.8856 92.1694 68.8856ZM94.8289 35.4718C94.556 36.3295 94.0753 37.1066 93.4295 37.7341L81.9432 26.7996C81.3683 26.2642 80.9495 25.5831 80.7314 24.8288C80.5133 24.0745 80.504 23.2752 80.7046 22.516C80.983 21.5514 81.5843 20.7113 82.4079 20.1361L94.1153 32.5828C94.4767 32.96 94.7327 33.4252 94.858 33.9321C94.9833 34.4391 94.973 34.9699 94.8289 35.4718ZM98.2969 24.908L95.8548 31.0827C95.834 31.0596 92.1775 27.1689 92.1775 27.1689L98.0282 19.9286C98.5834 20.8048 98.6821 21.91 98.6921 22.8482C98.6955 23.5539 98.5614 24.2535 98.2972 24.908H98.2969Z" fill="#A49E8C"/>
<path d="M80.2109 67.6899C78.8741 67.3556 77.5133 67.1262 76.1408 67.0039C75.4291 66.9524 74.7257 67.183 74.1828 67.6461C73.6399 68.1092 73.3012 68.7673 73.2398 69.4782C73.1785 70.1891 73.3996 70.8956 73.8551 71.4448C74.3107 71.994 74.9642 72.3417 75.6742 72.4128C76.7601 72.5097 77.8368 72.6914 78.8943 72.9562C79.5927 73.1308 80.3318 73.0208 80.949 72.6505C81.5663 72.2801 82.0111 71.6797 82.1857 70.9814C82.3603 70.283 82.2503 69.5439 81.88 68.9266C81.5096 68.3094 80.9092 67.8645 80.2109 67.6899Z" fill="black"/>
<path d="M91.7327 73.0385C91.9551 73.0393 92.1767 73.0127 92.3926 72.9593C93.4501 72.6945 94.5268 72.5128 95.6127 72.4159C95.9678 72.3853 96.3134 72.285 96.6297 72.1208C96.9461 71.9566 97.227 71.7317 97.4564 71.4589C97.6858 71.1862 97.8593 70.8709 97.9669 70.5311C98.0745 70.1913 98.1141 69.8337 98.0834 69.4786C98.0528 69.1235 97.9525 68.7779 97.7883 68.4616C97.6241 68.1452 97.3992 67.8643 97.1265 67.6349C96.8537 67.4054 96.5384 67.232 96.1987 67.1244C95.8589 67.0168 95.5012 66.9772 95.1461 67.0078C93.7736 67.1294 92.4127 67.3585 91.076 67.6931C90.4332 67.8535 89.8712 68.2435 89.496 68.7896C89.1207 69.3357 88.9582 70.0002 89.0389 70.6578C89.1197 71.3154 89.4381 71.9209 89.9343 72.36C90.4305 72.7991 91.0701 73.0415 91.7327 73.0417V73.0385Z" fill="black"/>
</svg>
