<svg width="101" height="96" viewBox="0 0 101 96" fill="none" xmlns="http://www.w3.org/2000/svg">
<path d="M54.6796 23.3674H52.6596C52.2061 23.3674 51.8384 23.7351 51.8384 24.1886C51.8384 24.642 52.2061 25.0097 52.6596 25.0097H54.6796C55.133 25.0097 55.5007 24.642 55.5007 24.1886C55.5007 23.7351 55.133 23.3674 54.6796 23.3674Z" fill="#A49E8C"/>
<path d="M48.3405 23.3674H46.3205C45.8671 23.3674 45.4994 23.7351 45.4994 24.1886C45.4994 24.642 45.8671 25.0097 46.3205 25.0097H48.3405C48.794 25.0097 49.1617 24.642 49.1617 24.1886C49.1617 23.7351 48.794 23.3674 48.3405 23.3674Z" fill="#A49E8C"/>
<path d="M56.8569 18.1898C56.8565 18.1886 56.8561 18.1873 56.8556 18.1859C56.7052 17.7581 56.2365 17.5331 55.8087 17.6836C55.8073 17.684 55.806 17.6846 55.8046 17.685C54.0913 18.2534 52.3043 18.5688 50.5 18.6211C48.704 18.5665 46.9254 18.2512 45.2201 17.685C44.8036 17.5054 44.3206 17.6975 44.1409 18.1141C43.9613 18.5306 44.1535 19.0136 44.57 19.1932C44.6024 19.2072 44.6359 19.2191 44.67 19.229C46.551 19.8623 48.516 20.211 50.5 20.2636C52.4868 20.2114 54.4546 19.8629 56.3383 19.229C56.7684 19.0853 57.0006 18.6201 56.8569 18.1898Z" fill="#A49E8C"/>
<path d="M100.179 84.0988H96.3852V78.5314C96.3852 78.078 96.0175 77.7103 95.5641 77.7103H81.4076C85.1128 74.9486 85.8777 69.7061 83.1158 66.0009C81.5452 63.8938 79.0758 62.6469 76.448 62.6342H71.168L69.7967 41.2846C69.7922 37.483 66.7091 34.4035 62.9074 34.4035H55.2133C57.8857 32.2174 59.4005 28.9212 59.319 25.4695C59.3122 24.6418 59.2242 23.8165 59.0563 23.0061C59.3055 22.5469 59.6744 22.1638 60.1237 21.8975C60.7271 21.907 61.2867 22.2145 61.6182 22.7187C62.037 23.5651 61.9179 24.579 61.3144 25.3053C60.2387 27.0215 59.861 31.0532 59.861 31.8744C59.861 32.3279 60.2286 32.6955 60.6821 32.6955C61.1356 32.6955 61.5033 32.3279 61.5033 31.8744C61.5033 30.9219 61.9302 27.391 62.7103 26.1264C64.0488 23.9915 63.4658 22.4723 62.9895 21.758C62.3741 20.8346 61.3626 20.2514 60.2551 20.1814C60.2514 16.8186 58.5129 13.6956 55.6567 11.9207C55.5543 10.6944 55.0187 9.54476 54.1459 8.67722C54.3181 5.57599 53.2451 2.53429 51.1651 0.227712C51.0664 0.119116 50.9379 0.0419294 50.7956 0.00600457H50.7463C50.6753 -0.00200152 50.6039 -0.00200152 50.5328 0.00600457C50.4647 -0.00200152 50.3957 -0.00200152 50.3276 0.00600457H50.2783C50.136 0.0419294 50.0075 0.119116 49.9088 0.227712C47.8272 2.52115 46.748 5.55136 46.9116 8.64438C46.0406 9.50308 45.5046 10.6445 45.4007 11.8632C42.5257 13.6361 40.7734 16.7708 40.7695 20.1485C39.6571 20.2097 38.6395 20.7946 38.0269 21.7251C37.5507 22.4395 36.9676 23.9586 38.3061 26.0936C39.1272 27.3335 39.5132 30.8644 39.5132 31.8415C39.5132 32.295 39.8808 32.6627 40.3343 32.6627C40.7878 32.6627 41.1554 32.295 41.1554 31.8415C41.1554 30.9711 40.7777 26.9558 39.702 25.2724C39.0985 24.5459 38.9794 23.5322 39.3982 22.6858C39.7297 22.1817 40.2894 21.8741 40.8927 21.8647C41.3404 22.1332 41.7087 22.5157 41.9602 22.9732C41.7957 23.7841 41.7105 24.6092 41.7056 25.4367C41.6229 28.8885 43.1379 32.1854 45.8113 34.3706H38.7249C34.9437 34.3706 31.8708 37.4214 31.8437 41.2025L30.4724 62.6342H24.552C19.9309 62.6566 16.2029 66.4209 16.2253 71.042C16.238 73.6847 17.4987 76.1662 19.6252 77.7349H5.43594C4.98246 77.7349 4.6148 78.1026 4.6148 78.5561V84.1234H0.821138C0.367665 84.1234 0 84.4911 0 84.9445V94.9049C0 95.3584 0.367665 95.7261 0.821138 95.7261H100.179C100.632 95.7261 101 95.3584 101 94.9049V84.9199C101 84.4664 100.632 84.0988 100.179 84.0988ZM77.2773 64.3093C80.6407 64.731 83.1663 67.5873 83.1731 70.977C83.1731 74.6924 80.1634 77.7058 76.448 77.7103H75.4462C77.1541 74.4832 77.2855 67.0355 77.2773 64.3093ZM75.635 64.2765C75.6679 68.8584 75.1341 75.912 73.6233 77.4886C73.4098 77.7103 73.262 77.7103 73.2127 77.7103H69.8542L55.706 70.6075C56.6899 68.647 57.159 66.4683 57.0691 64.2765H75.635ZM66.1919 77.7103H48.3404C50.9611 76.3979 53.2089 74.4465 54.8767 72.0362L66.1919 77.7103ZM59.4093 36.0376H62.9156C65.8224 36.0511 68.168 38.4186 68.1545 41.3255C68.1545 41.3284 68.1545 41.331 68.1545 41.3339L69.5176 62.6342H54.852L62.5872 57.4939C62.8366 57.327 62.9751 57.0373 62.9485 56.7384L62.1273 47.4349C62.0885 46.9831 61.6907 46.6483 61.2388 46.6871C61.2366 46.6873 61.2343 46.6875 61.2323 46.6877C60.7813 46.7269 60.4471 47.1235 60.485 47.5745L61.2487 56.3936L52.0684 62.4864C52.0232 62.5232 51.9819 62.5644 51.9452 62.6096H50.0812C50.6068 59.6453 52.0273 53.9466 54.2937 52.099C54.6472 51.8149 54.7036 51.2982 54.4195 50.9445C54.4187 50.9435 54.4176 50.9422 54.4168 50.9412C54.13 50.59 53.6127 50.5374 53.2615 50.8242C53.2607 50.8248 53.2598 50.8254 53.259 50.8262C50.229 53.2897 48.8085 60.335 48.4143 62.6096H44.752C42.3789 49.5781 59.1219 36.3332 59.2944 36.1607C59.3348 36.1217 59.3732 36.0807 59.4093 36.0376ZM50.5 2.08348C51.7136 3.6845 52.42 5.61192 52.5282 7.61796C51.2548 7.08196 49.8191 7.08196 48.5457 7.61796C48.6407 5.62136 49.3202 3.69682 50.5 2.08348ZM50.5 8.81682C51.936 8.80491 53.2356 9.66587 53.7846 10.9928C52.7306 10.6149 51.6196 10.4205 50.5 10.418C49.3997 10.4197 48.308 10.6114 47.2729 10.9846C47.8182 9.68148 49.0874 8.82872 50.5 8.81682ZM43.3479 25.4613C43.3415 23.8931 43.6807 22.3426 44.3415 20.9204C44.5656 20.5262 44.4279 20.0249 44.0337 19.8006C43.6396 19.5762 43.1383 19.7141 42.9139 20.1083C42.8946 20.1424 42.8776 20.1777 42.8634 20.2142C42.732 20.477 42.6335 20.7562 42.5267 21.0354L42.4118 20.9204V20.1732C42.2693 15.6949 45.7842 11.9488 50.2625 11.8064C54.7408 11.6639 58.4868 15.1788 58.6293 19.6571C58.6348 19.8291 58.6348 20.0011 58.6293 20.1732V20.9204C58.5888 20.9567 58.5506 20.9949 58.5143 21.0354C58.3911 20.7151 58.268 20.3949 58.1202 20.091C57.9206 19.6829 57.4279 19.5138 57.0198 19.7133C56.6117 19.9129 56.4426 20.4055 56.6421 20.8136C57.3425 22.2623 57.702 23.8523 57.6932 25.4613C57.6932 30.3881 54.4743 34.3953 50.5164 34.3953C46.5585 34.3953 43.3479 30.3881 43.3479 25.4613ZM33.486 41.2846C33.486 38.3913 35.8316 36.0458 38.7249 36.0458H56.8885C54.2159 38.3805 51.7664 40.959 49.5721 43.748C44.8341 49.8327 42.5678 55.7613 42.9045 61.0823C41.682 60.0454 40.3776 59.1089 39.0041 58.2822L40.7941 47.6074C40.8691 47.1539 40.562 46.7257 40.1085 46.6508C39.655 46.5758 39.2268 46.8829 39.1519 47.3364L37.2879 58.5285C37.2446 58.8603 37.4072 59.1852 37.6985 59.3497C37.6985 59.3497 41.5989 61.5667 43.4464 63.8741C45.108 66.0795 45.3572 69.0426 44.0869 71.4943C43.8159 71.9952 43.5203 72.2662 43.2658 72.2251C42.6499 72.2251 41.5742 71.1905 40.8024 69.3922C39.6528 66.7563 33.9951 63.7756 32.1558 62.8231L33.486 41.2846ZM31.039 64.2765C33.1658 65.3029 38.3554 68.1358 39.2504 70.1394C40.0305 71.9295 41.4593 73.8756 43.1426 73.9577H43.2493C44.252 73.9187 45.14 73.2998 45.5239 72.3729C46.8326 69.8368 46.8509 66.8282 45.5732 64.2765H55.4268C55.5652 66.4741 55.0327 68.662 53.8995 70.55C53.8995 70.55 53.8502 70.5993 53.8338 70.6321C53.8174 70.6649 53.8338 70.6732 53.8338 70.6896C52.3311 73.153 49.5146 75.8053 44.2922 77.7349L33.601 77.7103C28.8137 76.224 27.2946 67.1505 26.9333 64.2765H31.039ZM17.8269 70.9934C17.8269 70.9879 17.8269 70.9825 17.8269 70.977C17.8405 67.2724 20.8475 64.2765 24.552 64.2765H25.2746C25.5538 66.7399 26.7116 74.2123 30.4889 77.7349H24.552C20.8333 77.7304 17.8224 74.7121 17.8269 70.9934ZM6.25707 79.3526H94.7429V84.0988H6.25707V79.3526ZM99.3577 94.0838H1.64228V85.741H5.13211C5.22942 85.7774 5.33206 85.7969 5.43594 85.7985C5.53714 85.7977 5.63732 85.7782 5.73154 85.741H95.2356C95.3298 85.7782 95.43 85.7977 95.5312 85.7985C95.6351 85.7969 95.7377 85.7774 95.835 85.741H99.3249V89.0913H69.6654C69.2119 89.0913 68.8442 89.4589 68.8442 89.9124C68.8442 90.3659 69.2119 90.7336 69.6654 90.7336H99.3577V94.0838Z" fill="#A49E8C"/>
<path d="M59.1054 89.0913H50.4999C50.0464 89.0913 49.6788 89.459 49.6788 89.9124C49.6788 90.3659 50.0464 90.7336 50.4999 90.7336H59.1054C59.5589 90.7336 59.9266 90.3659 59.9266 89.9124C59.9266 89.459 59.5589 89.0913 59.1054 89.0913Z" fill="#A49E8C"/>
</svg>
