<svg width="1140" height="186" viewBox="0 0 1140 186" fill="none" xmlns="http://www.w3.org/2000/svg">
<path d="M0.0443726 183V182.524H26.2244V4.97618H0.0443726V4.50017H105.954V4.97618H77.3944V182.524H105.954V183H0.0443726Z" fill="white"/>
<path d="M192.969 185.38L126.805 4.50017H178.213L218.911 112.314L237.832 58.4072L256.753 4.50017H257.229L193.921 185.38H192.969ZM324.821 4.50017V4.97618H308.161V182.524H324.821V183H237.951V182.524H256.991V4.50017H324.821Z" fill="white"/>
<path d="M437.741 0.930176L500.692 182.524H517.471V183H424.651V182.524H441.192L397.995 49.0062C379.546 101.148 369.202 130.382 350.752 182.524H379.431V183H327.071V182.524H350.038L366.133 137.126L382.228 91.7272L414.417 0.930176H437.741Z" fill="white"/>
<path d="M616.027 114.932H704.087V115.408H694.567V148.49C688.617 152.854 683.024 157.217 677.788 161.58C672.552 165.864 667.118 169.831 661.485 173.48C655.853 177.05 649.466 179.946 642.326 182.167C635.266 184.309 626.896 185.38 617.217 185.38C598.336 185.38 582.033 181.771 568.308 174.551C554.663 167.332 544.112 156.9 536.654 143.254C529.276 129.53 525.587 113.028 525.587 93.7502C525.587 79.3115 528.245 66.4198 533.56 55.0752C538.876 43.7305 546.055 34.1312 555.099 26.2772C564.143 18.4232 574.338 12.4335 585.682 8.30818C597.027 4.18284 608.729 2.12017 620.787 2.12017C626.737 2.12017 632.449 3.15151 637.923 5.21418C643.477 7.27685 648.713 10.0932 653.631 13.6632L688.141 4.50017H688.617V60.4302H688.141C685.761 54.9562 682.509 48.9665 678.383 42.4612C674.337 35.8765 669.538 29.6488 663.984 23.7782C658.51 17.9075 652.402 13.0682 645.658 9.26018C638.994 5.45218 631.894 3.54818 624.357 3.54818C616.979 3.54818 610.593 6.16618 605.198 11.4022C599.804 16.6382 595.361 23.6592 591.87 32.4652C588.38 41.1918 585.762 50.8705 584.016 61.5012C582.35 72.1319 581.517 82.8815 581.517 93.7502C581.517 104.54 582.033 115.329 583.064 126.118C584.175 136.908 586.039 146.745 588.657 155.63C591.355 164.436 595.004 171.537 599.605 176.931C604.286 182.247 610.157 184.904 617.217 184.904C619.835 184.904 622.295 183.992 624.595 182.167C626.975 180.263 629.197 177.764 631.259 174.67C633.322 171.497 635.147 168.046 636.733 164.317C638.399 160.589 639.827 156.9 641.017 153.25V115.408H616.027V114.932Z" fill="white"/>
<path d="M705.231 183V182.524H731.411V4.97618H705.231V4.50017H811.141V4.97618H782.581V182.524H811.141V183H705.231Z" fill="white"/>
<path d="M988.358 4.50017V4.97618H963.368C963.368 75.4283 963.368 114.928 963.368 185.38H962.892L837.228 4.50017H897.918L962.892 98.0342V51.5052V4.97618H936.712V4.50017H988.358Z" fill="white"/>
<path d="M990.654 183V182.524H1012.07V4.97618H990.654V4.50017H1137.02V53.2902H1136.55C1134.17 44.8015 1130.08 36.9078 1124.29 29.6092C1118.58 22.2312 1111.68 16.2812 1103.59 11.7592C1095.49 7.23718 1086.81 4.97618 1077.52 4.97618H1063.24V182.524H1075.14C1086.01 182.524 1095.81 180.224 1104.54 175.622C1113.26 170.942 1120.56 164.595 1126.43 156.582C1132.38 148.57 1136.55 139.526 1138.93 129.45H1139.4V183H990.654ZM1103.23 123.976C1100.85 118.661 1097.56 113.465 1093.35 108.387C1089.23 103.31 1084.7 99.1449 1079.79 95.8922C1074.87 92.5602 1070.15 90.8942 1065.62 90.8942H1052.53V90.4182H1065.62C1070.15 90.4182 1074.87 88.8712 1079.79 85.7772C1084.7 82.6832 1089.23 78.7165 1093.35 73.8772C1097.56 68.9585 1100.85 63.8415 1103.23 58.5262H1103.7V123.976H1103.23Z" fill="white"/>
</svg>
