<svg width="76" height="35" viewBox="0 0 76 35" fill="none" xmlns="http://www.w3.org/2000/svg">
<path d="M13.1513 0.936942V11.16L21.1501 0.936942H34.6339L23.9134 14.9494L36.2959 34.188H21.1501L14.2109 22.4242L13.4422 23.7775V34.188H0V0.936942H13.1513Z" fill="white"/>
<path d="M62.9318 13.5753C62.9318 11.2294 61.8099 10.0565 59.5661 10.0565C58.5965 10.0565 57.5161 10.6673 56.325 11.8888C54.5382 13.7349 53.2917 15.935 52.5853 18.489C52.3637 19.2941 52.2529 20.0367 52.2529 20.7168C52.2529 23.021 53.4163 24.1731 55.7432 24.1731C56.6712 24.187 57.7308 23.5693 58.922 22.32C60.6533 20.4878 61.8791 18.2669 62.5994 15.6573C62.821 14.8523 62.9318 14.1582 62.9318 13.5753ZM57.2599 35C52.3429 35 48.0769 33.4037 44.4618 30.2112C43.3122 29.1979 42.3149 28.0389 41.47 26.7341C39.6694 23.9718 38.7691 20.8834 38.7691 17.4688C38.7691 14.0403 39.6002 11.0073 41.2623 8.37002C42.9244 5.7327 45.1543 3.67837 47.9522 2.20702C50.75 0.735673 53.6449 0 56.6366 0C59.6422 0 62.2877 0.402538 64.5731 1.20761C66.8585 2.01269 68.8461 3.17172 70.5359 4.68471C72.2395 6.18382 73.5761 8.023 74.5457 10.2023C75.5152 12.3815 76 14.8453 76 17.5937C76 21.0083 75.1343 24.0482 73.403 26.7133C71.6716 29.3645 69.3655 31.4119 66.4845 32.8554C63.6036 34.2851 60.5287 35 57.2599 35Z" fill="white"/>
</svg>
