<svg width="83" height="91" viewBox="0 0 83 91" fill="none" xmlns="http://www.w3.org/2000/svg">
<path d="M17.0286 76.9118C16.4883 75.4637 16.0893 73.9497 15.8381 72.4168C15.7344 71.776 15.1313 71.3362 14.4842 71.443C13.8434 71.5467 13.4068 72.1529 13.5104 72.7968C13.7837 74.4805 14.2266 76.1422 14.814 77.7254C15.6025 79.9022 17.0631 81.7586 19.0295 83.0905C19.2305 83.2256 19.4598 83.2915 19.686 83.2915C20.0661 83.2915 20.4367 83.1093 20.6629 82.7732C21.0273 82.2361 20.8859 81.5042 20.3457 81.1367C18.8002 80.0875 17.6505 78.63 17.0286 76.9118Z" fill="#A49E8C"/>
<path d="M25.6636 82.7482C25.073 82.7482 24.4919 82.6948 23.9296 82.5912C23.2825 82.4655 22.6763 82.8959 22.5569 83.5367C22.4376 84.1775 22.8616 84.79 23.5024 84.9094C24.2092 85.0413 24.9348 85.1072 25.6636 85.1072C26.3138 85.1072 26.8415 84.5795 26.8415 83.9293C26.8415 83.2791 26.3138 82.7482 25.6636 82.7482Z" fill="#A49E8C"/>
<path d="M79.3337 41.85L82.2958 40.5559C82.5408 40.4491 82.5408 40.1004 82.2958 39.9936L79.3337 38.6994C79.2614 38.668 79.2049 38.6115 79.1766 38.5424L77.8825 35.5802C77.7757 35.3352 77.427 35.3352 77.3202 35.5802L76.026 38.5424C75.9946 38.6146 75.9381 38.6712 75.869 38.6994L72.9068 39.9936C72.6618 40.1004 72.6618 40.4491 72.9068 40.5559L75.869 41.85C75.9412 41.8815 75.9977 41.938 76.026 42.0071L77.3202 44.9692C77.427 45.2143 77.7757 45.2143 77.8825 44.9692L79.1766 42.0071C79.2049 41.938 79.2614 41.8815 79.3337 41.85Z" fill="#A49E8C"/>
<path d="M67.0831 32.194C67.5914 32.194 68.0034 31.7819 68.0034 31.2736C68.0034 30.7653 67.5914 30.3533 67.0831 30.3533C66.5748 30.3533 66.1627 30.7653 66.1627 31.2736C66.1627 31.7819 66.5748 32.194 67.0831 32.194Z" fill="#A49E8C"/>
<path d="M10.1869 45.3995L11.9743 44.6174C12.1219 44.5514 12.1219 44.3409 11.9743 44.2781L10.1869 43.496C10.143 43.4771 10.1084 43.4426 10.0927 43.4017L9.31055 41.6144C9.24459 41.4668 9.03413 41.4668 8.9713 41.6144L8.18915 43.4017C8.1703 43.4457 8.13575 43.4803 8.09491 43.496L6.30758 44.2781C6.15994 44.3441 6.15994 44.5545 6.30758 44.6174L8.09491 45.3995C8.13889 45.4184 8.17344 45.4529 8.18915 45.4937L8.9713 47.2811C9.03727 47.4287 9.24773 47.4287 9.31055 47.2811L10.0927 45.4937C10.1116 45.4529 10.1461 45.4184 10.1869 45.3995Z" fill="#A49E8C"/>
<path d="M2.35903 58.4449C3.66188 58.4449 4.71806 57.3887 4.71806 56.0858C4.71806 54.783 3.66188 53.7268 2.35903 53.7268C1.05617 53.7268 0 54.783 0 56.0858C0 57.3887 1.05617 58.4449 2.35903 58.4449Z" fill="#A49E8C"/>
<path d="M73.0798 56.4691C70.168 48.9522 64.5013 42.6824 57.3677 38.9444C55.574 38.0083 54.4589 36.199 54.4589 34.2263V27.5262C57.6504 27.3629 60.2041 24.74 60.2041 21.5077C60.2041 18.423 57.8734 15.8975 54.8861 15.5332V10.0141C54.8861 7.60167 52.9229 5.63843 50.5104 5.63843H32.7314C30.3189 5.63843 28.3557 7.60167 28.3557 10.0141V15.5332C25.3684 15.8975 23.0377 18.423 23.0377 21.5077C23.0377 24.7368 25.5914 27.3629 28.7829 27.5262V34.2201C28.7829 36.1927 27.6678 38.002 25.871 38.9413C14.8235 44.7179 7.96312 55.9539 7.96312 68.2611C7.96312 72.131 8.63219 75.9224 9.95777 79.5316C12.3199 85.9805 18.6306 90.3122 25.6605 90.3122H57.5781C64.5987 90.3122 70.9062 85.9868 73.2746 79.5505C74.6033 75.9444 75.2787 72.1436 75.2787 68.2642C75.2787 64.1335 74.2389 60.3767 73.0798 56.4691ZM67.8372 64.0644C60.9015 67.0454 53.2527 66.1627 45.0982 61.4415C53.3501 54.2357 60.8324 51.572 67.3252 53.6357C68.723 54.11 69.7942 54.9958 70.3973 56.1392C70.6172 56.6481 70.7679 57.1852 70.9596 57.7067C71.4653 60.05 70.6015 62.8739 67.8372 64.0644ZM32.7314 7.99432H50.5073C51.6193 7.99432 52.5271 8.90212 52.5271 10.0141V15.4578H30.7116V10.0141C30.7116 8.89898 31.6194 7.99432 32.7314 7.99432ZM25.3935 21.5077C25.3935 19.4722 27.049 17.8137 29.0876 17.8137H54.1542C56.1897 17.8137 57.8483 19.4691 57.8483 21.5077C57.8483 23.5432 56.1928 25.1986 54.1542 25.1986H29.0876C27.049 25.1986 25.3935 23.5432 25.3935 21.5077ZM26.9641 41.027C29.5399 39.6826 31.1388 37.0723 31.1388 34.2201V27.5576H52.103V34.2295C52.103 37.0817 53.7019 39.6889 56.2745 41.0364C61.0051 43.5148 64.8594 47.0958 67.6959 51.3207C60.2544 49.1281 51.9114 52.1437 42.8868 60.2479C28.5818 52.6996 17.6537 54.8325 12.6686 56.6324C15.3889 50.0579 20.3519 44.4854 26.9641 41.027ZM71.0632 78.7338C69.034 84.2465 63.6155 87.9531 57.5781 87.9531H25.6574C19.6138 87.9531 14.1921 84.2434 12.1692 78.7212C10.941 75.3727 10.319 71.8514 10.319 68.2611C10.319 65.2895 10.7713 62.3933 11.588 59.6259C14.5627 58.1779 26.1349 53.7362 42.5256 62.7012C42.8365 62.8551 43.1318 63.0278 43.4334 63.2069L43.8229 63.4331C49.8131 66.9229 55.0903 68.1166 59.5099 68.1166C63.2354 68.1166 66.3514 67.2684 68.767 66.2256C70.4632 65.4937 71.6412 64.3283 72.4014 62.9776C72.706 64.7084 72.9197 66.4643 72.9197 68.2611C72.9228 71.8609 72.2977 75.3853 71.0632 78.7338Z" fill="#A49E8C"/>
<path d="M71.0881 5.6731C66.8475 5.6731 63.3985 9.12212 63.3985 13.3627C63.3985 17.6033 66.8475 21.0492 71.0881 21.0492C75.3287 21.0492 78.7746 17.6002 78.7746 13.3627C78.7746 9.12526 75.3256 5.6731 71.0881 5.6731ZM71.0881 18.6933C68.148 18.6933 65.7544 16.3029 65.7544 13.3627C65.7544 10.4226 68.148 8.02898 71.0881 8.02898C74.0282 8.02898 76.4187 10.4226 76.4187 13.3627C76.4187 16.3029 74.0282 18.6933 71.0881 18.6933Z" fill="#A49E8C"/>
<path d="M18.7847 28.1575C18.7847 24.209 15.5744 20.9956 11.626 20.9956C7.67748 20.9956 4.46719 24.209 4.46719 28.1575C4.46719 32.106 7.67748 35.3163 11.626 35.3163C15.5744 35.3163 18.7847 32.106 18.7847 28.1575ZM6.82308 28.1575C6.82308 25.5063 8.97793 23.3515 11.626 23.3515C14.274 23.3515 16.4288 25.5063 16.4288 28.1575C16.4288 30.8055 14.274 32.9604 11.626 32.9604C8.97793 32.9604 6.82308 30.8055 6.82308 28.1575Z" fill="#A49E8C"/>
<path d="M17.7542 9.77222C20.4462 9.77222 22.6387 7.57968 22.6387 4.88454C22.6387 2.19255 20.4462 0 17.7542 0C15.0591 0 12.8665 2.19255 12.8665 4.88454C12.8665 7.57968 15.0591 9.77222 17.7542 9.77222ZM17.7542 2.35589C19.1489 2.35589 20.2828 3.48985 20.2828 4.88454C20.2828 6.27923 19.1489 7.41633 17.7542 7.41633C16.3595 7.41633 15.2224 6.28237 15.2224 4.88454C15.2224 3.48985 16.3595 2.35589 17.7542 2.35589Z" fill="#A49E8C"/>
</svg>
