<svg width="82" height="97" viewBox="0 0 82 97" fill="none" xmlns="http://www.w3.org/2000/svg">
<path fill-rule="evenodd" clip-rule="evenodd" d="M39.3967 59.0232C39.2188 59.0232 39.0405 58.9601 38.8991 58.8322C38.5935 58.5571 38.5701 58.0873 38.845 57.7823C41.3981 54.9495 40.5774 50.9783 38.7326 48.4867C38.489 48.1568 38.5586 47.6914 38.8876 47.4471C39.2188 47.203 39.6831 47.2725 39.9269 47.6022C42.6078 51.223 42.6174 55.819 39.9481 58.778C39.8012 58.9405 39.5997 59.0232 39.3967 59.0232Z" fill="#A49E8C"/>
<path fill-rule="evenodd" clip-rule="evenodd" d="M60.0025 59.0232C59.799 59.0232 59.5957 58.9407 59.4488 58.778C54.9021 53.7337 59.3617 47.6592 59.406 47.5984C59.6521 47.27 60.1184 47.2038 60.4474 47.4499C60.7747 47.696 60.8422 48.1617 60.5966 48.49C60.4341 48.7071 56.8338 53.6568 60.554 57.7823C60.8288 58.0872 60.8036 58.5573 60.4996 58.8324C60.3565 58.9599 60.1784 59.0232 60.0025 59.0232Z" fill="#A49E8C"/>
<path fill-rule="evenodd" clip-rule="evenodd" d="M55.5372 40.0531V50.8373L67.524 41.0566C67.4756 31.6381 65.5109 23.7483 61.8353 18.2215C58.603 13.3624 54.2809 10.6865 49.6646 10.6865C45.0483 10.6863 40.7263 13.3624 37.496 18.2215C33.8206 23.7483 31.8557 31.6384 31.8073 41.0568L43.7943 50.8373V40.0531L37.6721 36.5181C37.4418 36.3859 37.3005 36.1405 37.3005 35.8751V27.4812C37.3005 27.2274 37.4302 26.9913 37.6449 26.8547C37.86 26.7178 38.1288 26.7009 38.3591 26.8083L47.2047 30.9405C47.4659 31.0624 47.6324 31.325 47.6324 31.6138V35.1317H51.6988V31.6136C51.6988 31.325 51.8653 31.0626 52.1266 30.9405L60.9722 26.8081C61.2025 26.7004 61.4713 26.7183 61.6862 26.8547C61.9013 26.9909 62.0308 27.2276 62.0308 27.4817V35.8751C62.0308 36.1403 61.8895 36.3859 61.6592 36.5186L55.5372 40.0531ZM54.794 53.1468C54.6855 53.1468 54.5769 53.123 54.4744 53.0748C54.2152 52.9518 54.0507 52.6905 54.0507 52.4037V39.6243C54.0507 39.3586 54.1918 39.1134 54.4222 38.9807L60.5442 35.4455V28.6488L53.1856 32.0866V35.8751C53.1856 36.2852 52.8524 36.6182 52.4422 36.6182L46.8891 36.618C46.4789 36.618 46.1459 36.2854 46.1459 35.8751V32.0866L38.787 28.6488V35.4455L44.909 38.9805C45.1395 39.1134 45.2806 39.3588 45.2806 39.6243L45.2808 52.4034C45.2808 52.6903 45.1161 52.952 44.8566 53.0748C44.5974 53.1976 44.2896 53.1608 44.0671 52.9794L30.5938 41.9846C30.4218 41.8435 30.3208 41.6322 30.3208 41.4088C30.321 31.5414 32.3744 23.2385 36.2571 17.3981C39.774 12.1113 44.5354 9.2002 49.6646 9.2002C54.7958 9.19997 59.5572 12.1115 63.0722 17.3981C66.9567 23.2383 69.0103 31.5414 69.0103 41.4088C69.0105 41.6317 68.9097 41.8437 68.7374 41.9848L55.2644 52.9792C55.1286 53.0897 54.9621 53.1468 54.794 53.1468Z" fill="#A49E8C"/>
<path fill-rule="evenodd" clip-rule="evenodd" d="M49.2371 48.4282C45.9776 48.4282 44.1309 46.6751 44.0187 46.5641C43.7245 46.2768 43.7187 45.8063 44.0069 45.5131C44.2936 45.2202 44.7619 45.2149 45.0561 45.4998C45.2073 45.6438 48.5517 48.7256 54.426 45.387C54.7822 45.1837 55.2369 45.309 55.4402 45.6658C55.6417 46.0225 55.5176 46.4763 55.1596 46.6791C52.8584 47.9876 50.8705 48.4287 49.2371 48.4282Z" fill="#A49E8C"/>
<path fill-rule="evenodd" clip-rule="evenodd" d="M31.3369 96.6262C30.9247 96.6262 30.5937 96.2936 30.5937 95.8832V83.2507C30.5937 82.8401 30.9247 82.5076 31.3369 82.5076C31.7475 82.5073 32.0802 82.8401 32.0802 83.2507V95.8832C32.0802 96.2934 31.7472 96.6266 31.3369 96.6262Z" fill="#A49E8C"/>
<path fill-rule="evenodd" clip-rule="evenodd" d="M67.9943 96.6262C67.5839 96.6262 67.2509 96.2936 67.2509 95.8832V83.2507C67.2509 82.8401 67.5839 82.5076 67.9941 82.5076C68.4044 82.5073 68.7374 82.8401 68.7374 83.2507V95.8832C68.7374 96.2934 68.4044 96.6266 67.9943 96.6262Z" fill="#A49E8C"/>
<path fill-rule="evenodd" clip-rule="evenodd" d="M18.969 95.1399H80.3623V77.0816C80.3623 67.1241 72.2619 59.0234 62.3035 59.0234H60.6895C60.434 60.7585 59.2823 62.3491 57.3834 63.563C55.3202 64.8817 52.591 65.6086 49.6975 65.6086C46.8058 65.6086 44.0766 64.8822 42.0135 63.563C40.1146 62.3489 38.9628 60.7585 38.7074 59.0234H37.0274C27.0692 59.0234 18.9688 67.1243 18.9688 77.0818L18.969 95.1399ZM81.1055 96.6263H18.2258C17.8153 96.6263 17.4825 96.2937 17.4825 95.8833V77.0816C17.4825 66.3045 26.2503 57.5371 37.0274 57.5371H39.3966C39.5941 57.5371 39.7818 57.6153 39.9211 57.7547C40.0604 57.8942 40.1397 58.0832 40.1397 58.2803C40.14 59.7768 41.0882 61.2081 42.8128 62.3105C44.6419 63.4786 47.0865 64.1221 49.6975 64.1221C54.9698 64.1218 59.2571 61.5014 59.2589 58.28C59.2591 57.8697 59.5899 57.5371 60.0023 57.5371H62.3037C73.0808 57.5371 81.8486 66.3047 81.8486 77.0818V95.8833C81.8486 96.2935 81.5159 96.6267 81.1055 96.6263Z" fill="#A49E8C"/>
<path fill-rule="evenodd" clip-rule="evenodd" d="M53.2417 11.209C52.8312 11.209 52.4981 10.8764 52.4981 10.466V6.02227C52.4981 4.46017 51.2285 3.18919 49.6666 3.18919C48.1027 3.18919 46.8329 4.4604 46.8329 6.02249L46.8331 10.466C46.8331 10.8762 46.5001 11.2092 46.0897 11.2092C45.6796 11.209 45.3463 10.8764 45.3463 10.466L45.3466 6.02227C45.3466 3.64056 47.284 1.70288 49.6646 1.70288C52.0472 1.70244 53.9847 3.64057 53.9847 6.02249L53.9849 10.466C53.9849 10.8762 53.6519 11.2092 53.2417 11.209Z" fill="#A49E8C"/>
<path fill-rule="evenodd" clip-rule="evenodd" d="M52.4826 2.08821C54.5287 2.6584 56.6382 3.78115 58.8331 4.94804C64.2895 7.8491 69.4631 10.5999 73.8045 4.9895C66.9683 5.37668 63.461 3.93362 60.6041 2.75781C57.966 1.67161 56.0671 0.89034 52.4826 2.08821ZM67.9632 9.74511C64.6883 9.74511 61.2991 7.9425 58.1343 6.26026C55.0899 4.64111 52.2116 3.11133 49.6877 3.1889C49.3355 3.19759 49.0259 2.96266 48.9425 2.62117C48.8614 2.27946 49.0277 1.92683 49.3451 1.77526C55.2602 -1.0498 57.8673 0.0241442 61.1693 1.38318C64.0862 2.5835 67.7173 4.07761 75.2329 3.39308C75.5155 3.36834 75.7845 3.50342 75.9337 3.7437C76.0808 3.98355 76.0806 4.28736 75.9317 4.52676C73.5065 8.4126 70.7773 9.74488 67.9632 9.74511Z" fill="#A49E8C"/>
<path fill-rule="evenodd" clip-rule="evenodd" d="M34.6005 66.8796H21.764C21.3537 66.8796 21.0207 66.5468 21.0207 66.1362C21.0207 65.7259 21.3535 65.3931 21.7638 65.3931L33.8571 65.3926V58.437C33.8571 58.0264 34.1901 57.6938 34.6003 57.6938C35.0106 57.6936 35.3436 58.0266 35.3436 58.437V66.1362C35.3436 66.5464 35.0106 66.8796 34.6005 66.8796Z" fill="#A49E8C"/>
<path fill-rule="evenodd" clip-rule="evenodd" d="M77.5671 66.8796H64.7309C64.3205 66.8796 63.9875 66.5468 63.9875 66.1362V58.437C63.9875 58.0264 64.3205 57.6938 64.7307 57.6938C65.1413 57.6936 65.4741 58.0266 65.4741 58.437L65.4743 65.3926H77.5671C77.9777 65.3926 78.3105 65.7259 78.3105 66.1362C78.3107 66.5464 77.9775 66.8796 77.5671 66.8796Z" fill="#A49E8C"/>
<path fill-rule="evenodd" clip-rule="evenodd" d="M31.372 59.8968C31.1823 59.8968 30.9906 59.8243 30.8453 59.6788L23.1904 52.0029C22.8999 51.7125 22.9019 51.2422 23.1921 50.9522C23.4826 50.6622 23.9529 50.6629 24.2434 50.9535L31.8985 58.6291C32.1887 58.9196 32.1867 59.3904 31.8965 59.6801C31.7513 59.8246 31.5614 59.897 31.372 59.8968ZM23.3163 64.9921C23.1264 64.9921 22.9367 64.9196 22.7916 64.7743L16.6059 58.589C16.3154 58.299 16.3152 57.8285 16.6056 57.5383C16.8961 57.2476 17.3664 57.248 17.6566 57.5383L23.8426 63.7231C24.133 64.0135 24.133 64.4843 23.8426 64.7743C23.6977 64.9194 23.5058 64.9921 23.3163 64.9921Z" fill="#A49E8C"/>
<path fill-rule="evenodd" clip-rule="evenodd" d="M23.4284 46.221C22.9505 46.221 22.4741 46.4031 22.1103 46.7662L12.419 56.4578C11.6933 57.1838 11.6933 58.3654 12.419 59.0914C13.145 59.8171 14.3275 59.8176 15.0533 59.0916L24.7446 49.3998C25.4704 48.6738 25.4704 47.4922 24.7446 46.766C24.3826 46.4027 23.9045 46.2215 23.4284 46.221ZM13.7353 61.122C12.8778 61.122 12.0203 60.7955 11.368 60.1426C10.0616 58.8366 10.0616 56.7126 11.368 55.4068L21.0594 45.7146C22.3658 44.4095 24.4909 44.4095 25.7956 45.715C27.102 47.0206 27.102 49.1453 25.7956 50.4508L16.1045 60.1426C15.4521 60.7955 14.5925 61.122 13.7353 61.122Z" fill="#A49E8C"/>
<path fill-rule="evenodd" clip-rule="evenodd" d="M18.9207 49.6492C18.729 49.6492 18.5393 49.577 18.3942 49.4316L5.48018 36.5169C5.18996 36.2267 5.18974 35.7564 5.48018 35.466C5.77062 35.1755 6.24072 35.176 6.53116 35.466L19.4452 48.3802C19.7354 48.6706 19.7354 49.1416 19.445 49.4316C19.3001 49.5765 19.1102 49.6494 18.9207 49.6492ZM14.5599 54.0094C14.3682 54.0094 14.1785 53.9371 14.0334 53.792L1.11955 40.8776C0.829336 40.5873 0.829113 40.1168 1.11933 39.8266C1.40977 39.5361 1.88009 39.5366 2.17031 39.8266L15.0843 52.7408C15.3746 53.0308 15.3746 53.502 15.0843 53.792C14.9392 53.9371 14.7495 54.0098 14.5599 54.0094Z" fill="#A49E8C"/>
<path fill-rule="evenodd" clip-rule="evenodd" d="M3.82527 35.8325C3.22522 35.8325 2.62717 36.061 2.17023 36.517C1.25878 37.4292 1.25878 38.9141 2.17023 39.8265C3.08212 40.7388 4.56642 40.7388 5.48009 39.8265C6.39176 38.9137 6.39176 37.4294 5.48009 36.517C5.02359 36.0608 4.42532 35.8327 3.82527 35.8325ZM3.82527 41.9966C2.84606 41.9966 1.8644 41.6235 1.11924 40.8774C-0.373081 39.3853 -0.373081 36.9579 1.11924 35.4658C2.61179 33.974 5.03875 33.974 6.53107 35.4658C8.0234 36.9575 8.0234 39.3856 6.53107 40.8774C5.78413 41.6235 4.80448 41.9966 3.82527 41.9966Z" fill="#A49E8C"/>
</svg>
