<svg width="675" height="675" viewBox="0 0 675 675" fill="none" xmlns="http://www.w3.org/2000/svg">
<g opacity="0.16" clip-path="url(#clip0_2303_921)">
<path d="M299.342 116.391L298.561 117.015L298.561 117.015L298.561 117.015L298.563 117.017L298.569 117.025L298.593 117.055L298.689 117.176L299.07 117.653L300.554 119.515C301.85 121.14 303.747 123.521 306.158 126.548C306.916 127.649 307.867 128.772 308.839 129.92C309.295 130.458 309.756 131.002 310.203 131.551C311.649 133.327 313.064 135.279 314.132 137.648L314.147 137.681L314.164 137.712C316.706 142.426 319.584 147.733 322.72 153.504C324.944 159.647 327.355 166.298 329.912 173.346C330.443 175.787 331.01 178.252 331.584 180.748C332.746 185.797 333.937 190.971 334.91 196.328C335.178 199.314 335.549 202.276 335.921 205.245C336.584 210.547 337.25 215.87 337.341 221.384L337.341 221.386C337.38 223.579 337.448 225.768 337.515 227.957C337.714 234.422 337.912 240.879 337.386 247.385L337.383 247.414L337.383 247.443C337.114 259.232 335.771 270.861 334.181 282.271C330.684 279.158 325.161 273.352 319.435 267.119C314.871 262.15 310.219 256.955 306.423 252.717C304.802 250.907 303.337 249.271 302.102 247.901C293.053 237.632 284.175 225.67 276.825 212.756L276.82 212.746L276.814 212.737C269.128 199.917 263.473 185.974 259.072 171.992L259.072 171.992C250.239 143.952 249.695 115.489 251.766 91.0745C252.92 78.6601 253.863 67.2027 253.451 57.7048L253.45 57.6761L253.447 57.6475C253.289 56.0855 253.18 54.481 253.074 52.9228C253.037 52.3679 253 51.8189 252.961 51.2798C252.815 49.2611 252.645 47.3586 252.329 45.9249C252.039 44.4939 251.804 43.3979 251.642 42.658C251.624 42.5741 251.606 42.4948 251.59 42.4201C251.667 42.3943 251.75 42.3668 251.837 42.3376C252.563 42.0955 253.637 41.736 255.038 41.2641C255.321 41.1884 255.622 41.1059 255.938 41.019C258.804 40.2326 262.997 39.0818 267.679 39.2512L267.713 39.2524L267.747 39.2513C278.64 38.9027 294.315 42.4559 309.523 50.6937C324.7 58.9339 339.2 71.5133 350.606 86.4711L350.612 86.4787L350.618 86.4862C362.379 101.314 370.781 118.678 376.269 136.513C381.551 154.421 383.981 172.828 382.671 190.484L382.67 190.495L382.67 190.506C381.764 208.126 377.736 224.932 371.717 239.446C365.5 253.975 357.816 266.162 350.299 274.61L350.282 274.629L350.266 274.649C350.074 274.889 349.867 275.115 349.648 275.339C350.029 266.16 350.115 256.846 349.779 247.44C349.83 240.732 349.135 234.025 348.453 227.451C348.212 225.12 347.972 222.807 347.768 220.515L347.768 220.513C347.242 214.792 346.109 209.119 345.011 203.618C344.409 200.605 343.818 197.643 343.342 194.753L343.334 194.708L343.323 194.665C341.876 189.071 340.204 183.641 338.6 178.433C337.849 175.994 337.113 173.604 336.422 171.269L336.403 171.204L336.376 171.142C333.196 164.073 330.207 157.42 327.455 151.252L327.424 151.184L327.383 151.12C325.613 148.357 323.915 145.701 322.298 143.172C320.608 140.53 319.007 138.026 317.504 135.68C316.141 133.172 314.432 131.164 312.789 129.423C312.231 128.832 311.692 128.282 311.177 127.758C310.134 126.694 309.192 125.734 308.401 124.743L308.38 124.716L308.357 124.691C305.733 121.827 303.662 119.582 302.248 118.053C301.541 117.288 300.997 116.702 300.631 116.308C300.447 116.11 300.308 115.961 300.215 115.861L300.109 115.747L300.083 115.719L300.076 115.711L300.074 115.71L300.074 115.709L300.074 115.709L299.342 116.391ZM299.342 116.391L298.561 117.015L300.074 115.709L299.342 116.391Z" fill="white" stroke="white" stroke-width="2"/>
<path d="M293.156 314.107L293.151 314.099C292.25 312.655 290.872 309.933 289.779 307.325C289.234 306.024 288.772 304.778 288.477 303.753C288.329 303.24 288.229 302.802 288.179 302.452C288.126 302.08 288.144 301.899 288.157 301.85L288.164 301.821L288.17 301.791C288.228 301.488 288.269 301.179 288.299 300.87C293.42 307.459 298.019 313.971 302.319 320.378L302.672 320.904L303.298 320.809C312.603 319.407 322.127 318.6 331.817 318.6C332.334 318.6 332.843 318.657 333.412 318.723L333.485 318.732C334.018 318.794 334.609 318.863 335.223 318.872L336.041 318.885L336.215 318.086C337.585 311.826 338.896 305.429 340.084 298.668L340.086 298.655C340.451 296.408 341.451 292.473 342.633 288.914C343.223 287.137 343.849 285.481 344.451 284.192C344.753 283.547 345.04 283.013 345.304 282.609C345.581 282.184 345.78 281.985 345.88 281.918L345.918 281.892L345.954 281.863C346.48 281.434 346.967 280.966 347.427 280.492C346.698 293.819 345.34 306.541 343.691 318.47L343.545 319.528L344.61 319.604C345.629 319.677 346.638 319.739 347.64 319.799C350.019 319.944 352.353 320.086 354.658 320.375L355.276 320.452L355.618 319.931C360.541 312.43 366.084 304.589 372.205 296.756C372.234 297.065 372.273 297.375 372.33 297.682L372.337 297.72L372.347 297.758C372.358 297.799 372.378 297.973 372.326 298.343C372.277 298.69 372.178 299.125 372.03 299.636C371.735 300.658 371.271 301.902 370.723 303.203C369.626 305.808 368.24 308.533 367.338 309.978L367.334 309.985C365.937 312.263 364.674 314.498 363.429 316.703C362.867 317.698 362.308 318.687 361.742 319.671L361.022 320.924L362.448 321.157C427.904 331.849 482.057 376.153 506.651 435.793C503.158 433.451 499.717 431.17 496.374 428.987L496.373 428.986C462.129 406.679 419.811 404.944 371.823 424.153L371.822 424.154C355.411 430.741 339.292 431.621 323.551 426.883C293.086 417.661 262.982 416.811 234.652 416.728H234.649C215.483 416.728 199.556 424.377 188.609 438.826C186.011 442.231 184.47 446.204 183.996 450.331C170.144 447.893 161.814 446.606 156.269 446.557L153.057 446.15C174.92 382.909 229.292 334.889 296.22 322.105L297.607 321.84L296.897 320.62C296.424 319.806 295.962 318.983 295.496 318.153C294.747 316.82 293.989 315.469 293.156 314.107Z" fill="white" stroke="white" stroke-width="2"/>
<path d="M446.603 293.349C435.905 297.067 424.84 299.465 414.532 300.815C413.1 300.985 411.384 301.197 409.481 301.431C399.761 302.629 385.177 304.426 378.831 304.433L446.603 293.349ZM446.603 293.349C457.426 289.868 467.681 284.699 477.159 278.933L446.603 293.349ZM462.198 230.556C460.841 231.058 459.422 231.588 457.944 232.139C455.278 233.134 452.423 234.199 449.398 235.304L462.198 230.556ZM462.198 230.556C464.161 229.662 466.108 229.245 467.922 228.943M462.198 230.556L467.922 228.943M467.922 228.943C468.342 228.905 468.766 228.871 469.188 228.838C470.334 228.746 471.467 228.656 472.475 228.48C472.475 228.48 472.476 228.48 472.476 228.48L467.922 228.943ZM401.884 261.577L401.881 261.579C400.65 262.756 399.385 263.932 398.11 265.118C394.427 268.543 390.657 272.048 387.364 275.884C382.626 280.935 378.189 286.118 373.944 291.36C373.944 291.348 373.945 291.335 373.945 291.322L373.946 291.295L373.946 291.267C373.864 282.723 375.552 272.005 379.253 260.64C383.066 249.391 389.116 237.865 397.327 227.39L397.332 227.382L397.338 227.375C405.4 216.682 415.919 207.43 427.828 199.864C439.794 192.436 453.193 186.754 467.252 184.169L467.261 184.168L467.27 184.166C481.203 181.338 495.689 181.4 508.407 184.244C521.153 187.119 531.778 192.903 537.792 198.489L537.817 198.512L537.843 198.533C540.433 200.632 542.156 203.183 543.414 205.046C543.623 205.356 543.82 205.648 544.005 205.914C544.562 206.869 544.991 207.613 545.281 208.119C545.282 208.122 545.284 208.125 545.286 208.129C544.827 208.467 544.153 208.965 543.282 209.611L543.281 209.612C542.376 210.284 541.315 211.298 540.221 212.379C539.916 212.68 539.607 212.988 539.295 213.299C538.468 214.123 537.621 214.967 536.77 215.765L536.749 215.785L536.729 215.806C531.774 221.03 526.592 228.035 521.046 235.679C510.082 250.588 495.651 266.508 476.64 278.078C467.205 283.818 457.023 288.947 446.297 292.397L446.286 292.401L446.275 292.404C435.652 296.096 424.657 298.48 414.408 299.823C412.971 299.994 411.252 300.206 409.348 300.44C405.112 300.962 399.96 301.597 394.964 302.148C388.853 302.823 383.064 303.361 379.491 303.427C384.194 296.264 389.137 289.106 394.756 282.367L394.774 282.346L394.791 282.323C397.743 278.344 401.084 274.757 404.439 271.156C405.546 269.967 406.656 268.776 407.753 267.569L407.755 267.566C410.589 264.427 413.645 261.707 416.705 258.984C418.35 257.52 419.996 256.055 421.608 254.524C424.907 251.884 428.239 249.475 431.499 247.117C432.977 246.049 434.44 244.991 435.878 243.927L436.087 243.811C440.965 241.116 445.576 238.567 449.815 236.217C452.815 235.12 455.653 234.061 458.3 233.074C459.776 232.523 461.193 231.994 462.545 231.494L462.58 231.481L462.613 231.466C464.364 230.668 466.118 230.267 467.819 229.975C468.325 229.888 468.839 229.809 469.352 229.731C470.494 229.556 471.627 229.382 472.63 229.124C475.508 228.612 477.775 228.204 479.325 227.924C480.103 227.783 480.701 227.675 481.103 227.601L481.56 227.518L481.676 227.497L481.705 227.492L481.712 227.49L481.714 227.49L481.715 227.49L481.715 227.49L481.535 226.506L481.715 227.49L481.429 225.512L481.429 225.512L481.429 225.512L481.427 225.512L481.419 225.513L481.39 225.516L481.274 225.528L480.814 225.577C480.408 225.62 479.807 225.684 479.022 225.768C477.453 225.935 475.152 226.181 472.227 226.495L472.193 226.498L472.159 226.504C471.237 226.668 470.257 226.746 469.16 226.833C468.591 226.878 467.991 226.925 467.351 226.988C465.545 227.167 463.556 227.467 461.507 228.22C459.687 228.746 457.786 229.304 455.795 229.888C453.391 230.592 450.854 231.336 448.167 232.111L448.094 232.132L448.025 232.164C445.139 233.499 442.102 234.892 438.934 236.346C437.015 237.227 435.048 238.13 433.036 239.055L432.975 239.083L432.917 239.12C431.315 240.138 429.655 241.164 427.96 242.211C424.491 244.354 420.879 246.585 417.328 249.027L417.292 249.052L417.258 249.08C415.488 250.543 413.649 251.958 411.775 253.399C411.056 253.952 410.332 254.509 409.605 255.074C406.993 257.102 404.363 259.221 401.884 261.577ZM403.735 270.443C400.372 274.054 396.976 277.699 393.988 281.727L435.337 243.084C433.899 244.147 432.428 245.211 430.938 246.289C427.657 248.662 424.28 251.104 420.95 253.77C419.378 255.264 417.745 256.717 416.1 258.182C413.012 260.931 409.879 263.721 407.013 266.896C405.934 268.083 404.836 269.261 403.735 270.443ZM461.819 229.17C463.89 228.404 465.916 228.123 467.795 227.95L448.445 233.072C451.12 232.3 453.671 231.552 456.084 230.845C458.093 230.256 460.007 229.695 461.819 229.17ZM428.456 243.08C430.157 242.029 431.829 240.997 433.454 239.964L388.109 276.552C391.365 272.757 395.079 269.302 398.756 265.883C400.04 264.689 401.319 263.5 402.572 262.302C405.688 259.341 409.059 256.749 412.371 254.202C414.25 252.757 416.111 251.326 417.895 249.851C421.426 247.423 425 245.215 428.456 243.08Z" fill="white" stroke="white" stroke-width="2"/>
<path d="M123.765 219.955L123.747 219.936L123.729 219.919C122.942 219.174 122.163 218.395 121.397 217.629C121.022 217.254 120.649 216.881 120.281 216.518C119.192 215.443 118.129 214.438 117.213 213.779C116.35 213.119 115.685 212.617 115.231 212.276C115.231 212.276 115.231 212.276 115.231 212.276C115.523 211.773 115.952 211.031 116.506 210.069C116.628 209.89 116.755 209.699 116.889 209.499C118.138 207.632 119.955 204.917 122.662 202.704L122.687 202.683L122.711 202.661C128.698 197.072 139.398 191.293 152.124 188.418L152.124 188.418C164.84 185.539 179.344 185.5 193.26 188.339L193.269 188.341L193.279 188.343C207.348 190.933 220.73 196.621 232.721 204.032C244.623 211.598 255.124 220.855 263.174 231.554L263.181 231.563L263.188 231.571C271.433 242.034 277.482 253.571 281.277 264.813C284.985 276.184 286.666 286.908 286.567 295.427L286.566 295.465L286.569 295.502C286.569 295.503 286.569 295.503 286.569 295.504C282.329 290.265 277.881 285.074 273.165 280.057C269.86 276.232 266.135 272.767 262.499 269.385C261.183 268.16 259.878 266.946 258.609 265.73L258.607 265.729C255.436 262.7 251.946 260.015 248.575 257.422C246.741 256.011 244.942 254.627 243.249 253.23L243.215 253.202L243.178 253.177C239.316 250.525 235.405 248.107 231.68 245.802C230.285 244.939 228.916 244.092 227.585 243.255L227.529 243.22L227.469 243.193C224.874 242.005 222.352 240.847 219.908 239.725C217.33 238.541 214.839 237.398 212.443 236.301L212.377 236.271L212.308 236.251C210.901 235.839 209.526 235.435 208.187 235.042C204.891 234.074 201.812 233.169 198.999 232.358C196.945 231.608 194.958 231.311 193.155 231.133C192.535 231.072 191.95 231.025 191.396 230.981C190.282 230.892 189.287 230.813 188.351 230.643L188.315 230.637L188.278 230.633C185.351 230.322 183.054 230.078 181.489 229.911L179.702 229.721L179.245 229.673L179.129 229.66L179.1 229.657L179.093 229.656L179.091 229.656L179.09 229.656L179.09 229.656L178.812 231.636L178.812 231.636L178.813 231.636L178.815 231.636L178.822 231.637L178.85 231.642L178.964 231.662L179.415 231.742C179.814 231.812 180.406 231.917 181.179 232.055C182.719 232.331 184.977 232.738 187.858 233.268C188.857 233.522 189.98 233.693 191.111 233.866C191.634 233.946 192.158 234.026 192.673 234.115C194.37 234.407 196.122 234.809 197.883 235.61L197.914 235.624L197.945 235.636C201.724 237.057 205.999 238.641 210.661 240.354C213.341 241.844 216.181 243.413 219.132 245.043C220.917 246.029 222.743 247.038 224.598 248.065C226.11 249.186 227.653 250.3 229.213 251.426C232.402 253.729 235.664 256.084 238.886 258.662C240.549 260.251 242.253 261.769 243.957 263.288C246.955 265.959 249.954 268.632 252.739 271.697C253.964 273.062 255.204 274.4 256.441 275.734C259.658 279.203 262.852 282.648 265.686 286.473L265.703 286.496L265.722 286.518C271.342 293.259 276.303 300.394 280.988 307.552C277.427 307.496 271.641 306.962 265.527 306.29C260.575 305.747 255.471 305.12 251.255 304.602C249.304 304.363 247.543 304.147 246.075 303.973C235.837 302.63 224.825 300.258 214.215 296.555L214.204 296.551L214.193 296.548C203.443 293.074 193.291 287.963 183.833 282.217C164.851 270.647 150.407 254.726 139.425 239.812C133.899 232.187 128.745 225.18 123.765 219.955Z" fill="white" stroke="white" stroke-width="2"/>
<path d="M375.532 438.882L375.532 438.881C410.082 425.051 446.934 420.624 479.225 441.645C519.458 467.854 557.553 497.319 586.648 536.786C603.666 559.912 616.286 574.121 629.299 587.984C632.098 590.966 634.914 593.93 637.794 596.962C647.96 607.665 658.933 619.218 672.836 635.396L505.203 635.757C491.562 612.559 474.675 595.62 454.56 584.498C434.305 573.299 410.834 568.03 384.215 568.152H384.213C373.662 568.216 363.091 568.109 352.514 568.002C332.899 567.803 313.262 567.604 293.691 568.496C267.293 569.686 242.803 565.75 219.788 552.781L219.787 552.78C210.323 547.464 199.815 545.169 189.463 542.908C187.683 542.52 185.908 542.132 184.144 541.73L184.142 541.73C167.336 537.932 150.819 533.418 134.237 528.886C121.868 525.506 109.463 522.116 96.875 519.005L96.875 519.005C64.4673 511.001 51.5303 505.666 32.6454 497.878C27.525 495.766 21.9673 493.474 15.4657 490.9L15.4648 490.9C14.1191 490.368 12.7209 490.087 11.4004 489.862C11.073 489.806 10.753 489.754 10.4393 489.703C9.45629 489.544 8.53603 489.394 7.64984 489.17C6.50086 488.879 5.50416 488.483 4.66789 487.846C3.84366 487.218 3.12228 486.315 2.58521 484.928C0.386936 479.202 0.141223 473.426 4.05711 468.774L4.05777 468.773C7.6851 464.455 11.2828 461.329 15.5464 459.361C19.8047 457.395 24.8094 456.545 31.3083 456.914C31.8121 456.945 32.4111 456.963 33.0068 456.905C33.5948 456.848 34.2497 456.711 34.8265 456.383C46.6358 449.707 52.3433 448.745 58.0194 449.55C60.1357 449.85 62.2391 450.392 64.692 451.025C65.6343 451.268 66.6282 451.525 67.6941 451.786C71.4943 452.716 76.0757 453.666 82.1797 454.164L150.225 462.87L150.325 462.883L150.426 462.875C151.804 462.773 154.418 463 158.053 463.494C161.653 463.983 166.157 464.721 171.256 465.601C174.982 466.245 179.027 466.965 183.262 467.718C190.599 469.024 198.507 470.431 206.318 471.719C218.641 473.749 230.79 475.492 240.194 476.079C244.889 476.372 248.951 476.38 252.025 475.976C253.56 475.774 254.898 475.464 255.962 475.006C257.017 474.552 257.913 473.906 258.384 472.965L259.11 471.517H257.49C243.798 471.517 228.895 466.159 217.882 460.117C212.38 457.098 207.904 453.938 205.066 451.243C203.64 449.889 202.681 448.701 202.193 447.752C201.688 446.77 201.819 446.338 201.959 446.153C208.834 437.098 218.415 433.034 230.062 433.08L230.063 433.08C257.854 433.163 285.108 434.054 312.197 442.232C332.846 448.5 354.091 447.451 375.532 438.882Z" fill="white" stroke="white" stroke-width="2"/>
</g>
<defs>
<clipPath id="clip0_2303_921">
<rect width="675" height="675" fill="white"/>
</clipPath>
</defs>
</svg>
