<svg width="48" height="42" viewBox="0 0 48 42" fill="none" xmlns="http://www.w3.org/2000/svg">
<path d="M14.466 15.5518C14.466 15.5518 9.63594 20.5557 6.73721 25.5755C3.83849 30.5953 1.21271 37.5555 1.21271 40.594C1.21271 41.8769 7.08041 42.4033 7.32226 40.9016C7.63896 38.9318 9.26626 34.076 10.3246 31.1365C11.74 27.2093 15.3309 22.3148 16.744 20.6195C18.3667 18.6735 19.9893 17.459 19.9893 17.459L14.466 15.5518Z" fill="white"/>
<path d="M4.82652 41.8723C4.58352 41.8723 4.33591 41.862 4.08945 41.8426C2.67637 41.7321 1.15503 41.2946 1.15503 40.5939C1.15503 37.6294 3.68868 30.7388 6.6876 25.5469C9.55753 20.5795 14.3761 15.5619 14.4244 15.5118L14.4498 15.4856L20.1102 17.4395L20.0238 17.5033C20.0077 17.5159 18.3861 18.7361 16.7876 20.6536C15.5876 22.0937 11.8332 27.1135 10.3775 31.1535C9.41703 33.8173 7.70566 38.8702 7.37744 40.9084C7.26918 41.5931 6.10946 41.8723 4.82652 41.8723ZM14.482 15.6178C14.0997 16.0188 9.54141 20.8347 6.78664 25.6039C3.79578 30.781 1.26904 37.6465 1.26904 40.5939C1.26904 41.1146 2.4852 41.6034 4.09752 41.7287C5.53939 41.8415 7.1448 41.6273 7.26343 40.8913C7.5928 38.8439 9.30762 33.7831 10.2693 31.1159C11.7307 27.0611 15.4955 22.0264 16.699 20.5818C18.0982 18.9024 19.5159 17.7551 19.8706 17.4771L14.482 15.6178Z" fill="#C9C8C8"/>
<path d="M46.3439 4.82038C46.3439 5.91869 44.5381 6.93041 41.5035 7.73591C37.27 6.61026 30.6468 5.88679 23.2013 5.88679C15.7559 5.88679 9.13153 6.61026 4.89804 7.73591C1.86342 6.93041 0.0576172 5.91869 0.0576172 4.82038C0.0576172 4.76114 0.0633755 4.70076 0.0737404 4.64151C0.529797 2.09399 10.7093 0.0568848 23.2013 0.0568848C35.6922 0.0568848 45.8717 2.09399 46.3278 4.64151C46.3382 4.70076 46.3439 4.76114 46.3439 4.82038Z" fill="#EFEFEF"/>
<path d="M41.5035 7.79523L41.4885 7.79181C37.073 6.61831 30.4084 5.94498 23.2013 5.94498C15.9942 5.94498 9.32843 6.61831 4.91297 7.79181L4.898 7.79523L4.88303 7.79181C1.68833 6.94302 0 5.91535 0 4.82047C0 4.76008 0.00575829 4.69628 0.0172749 4.63248C0.481393 2.03483 10.6655 0 23.2013 0C35.736 0 45.9189 2.03483 46.3842 4.63134C46.3957 4.69628 46.4015 4.75894 46.4015 4.82047C46.4015 5.91535 44.7131 6.94302 41.5184 7.79067L41.5035 7.79523ZM23.2013 5.8299C30.4095 5.8299 37.0788 6.50324 41.5035 7.67674C44.5876 6.85643 46.2863 5.84244 46.2863 4.82047C46.2863 4.76578 46.2817 4.70881 46.2713 4.65185C46.0548 3.44189 43.5672 2.30485 39.2669 1.45036C34.9333 0.587889 29.2279 0.113932 23.2013 0.113932C17.1735 0.113932 11.4682 0.587889 7.13567 1.45036C2.83538 2.30485 0.347801 3.44189 0.130137 4.65185C0.119772 4.70881 0.115166 4.76578 0.115166 4.82047C0.115166 5.84244 1.81386 6.85643 4.898 7.67674C9.32267 6.50324 15.9919 5.8299 23.2013 5.8299Z" fill="#C9C8C8"/>
<path d="M46.3439 4.82056V10.6505C46.3439 10.8384 46.2909 11.023 46.1884 11.2053C44.8525 13.5751 35.0703 15.414 23.2013 15.414C11.3312 15.414 1.54901 13.5751 0.213091 11.2053C0.110593 11.023 0.0576172 10.8384 0.0576172 10.6505V4.82056C0.126717 5.97241 1.86342 6.93058 4.89804 7.73608C9.13153 8.86059 15.7559 9.58406 23.2013 9.58406C30.6468 9.58406 37.27 8.86059 41.5035 7.73608C44.5381 6.93058 46.3439 5.91886 46.3439 4.82056Z" fill="white"/>
<path d="M23.2013 15.4709C11.4291 15.4709 1.5248 13.6492 0.162384 11.2327C0.0552796 11.0412 0 10.8453 0 10.6505V4.82056L0.115166 4.81714C0.179659 5.88924 1.79428 6.8531 4.91297 7.68139C9.32958 8.85489 15.9954 9.52709 23.2013 9.52709C30.4061 9.52709 37.0719 8.85375 41.4885 7.68139C44.5818 6.85994 46.2863 5.84481 46.2863 4.82056H46.4015V10.6505C46.4015 10.8453 46.3462 11.0412 46.2391 11.2327C44.8767 13.6492 34.9724 15.4709 23.2013 15.4709ZM0.115166 5.2854V10.6505C0.115166 10.8248 0.164687 11.0025 0.26373 11.178C1.60656 13.5603 11.4682 15.357 23.2013 15.357C34.9344 15.357 44.7949 13.5603 46.1377 11.178C46.2356 11.0037 46.2863 10.8259 46.2863 10.6505V5.31274C45.8567 6.22306 44.2294 7.07185 41.5184 7.79191C37.0926 8.96768 30.4165 9.64216 23.2013 9.64216C15.9862 9.64216 9.30886 8.96768 4.88303 7.79191C2.10753 7.05476 0.537824 6.23104 0.115166 5.2854Z" fill="#C9C8C8"/>
<path d="M27.1539 10.1174C27.1539 10.1174 30.5075 11.8879 33.9014 14.8752C37.4451 17.9936 40.5822 22.3196 42.4156 25.5757C45.5643 31.1698 47.6534 37.7676 47.9402 40.5943C48.0691 41.8703 42.0725 42.4035 41.8306 40.9019C41.5139 38.932 39.7657 33.4245 38.4539 30.5215C36.2508 25.6464 33.0008 21.4389 28.9965 17.8876C27.0974 16.2037 21.748 12.6034 21.748 12.6034L27.1539 10.1174Z" fill="white"/>
<path d="M44.3607 41.8713C43.0386 41.8713 41.8812 41.5785 41.7741 40.9108C41.4643 38.9842 39.7403 33.5075 38.4021 30.5453C36.2807 25.8501 33.1033 21.6062 28.9596 17.9307C27.0859 16.2685 21.771 12.6864 21.718 12.6511L21.6339 12.5942L27.1561 10.0535L27.1814 10.0671C27.2148 10.0854 30.58 11.8752 33.9405 14.8329C37.5855 18.0412 40.7353 22.4721 42.4663 25.5482C45.4848 30.9121 47.6879 37.5316 47.9977 40.5884C48.0633 41.2401 46.7447 41.6434 45.5953 41.7904C45.1853 41.8439 44.7661 41.8713 44.3607 41.8713ZM21.8654 12.6124C22.5541 13.0784 27.2862 16.2935 29.0356 17.8453C33.192 21.5321 36.3786 25.7886 38.5069 30.4986C39.8485 33.4676 41.5772 38.9603 41.8881 40.8926C42.0125 41.6651 43.8632 41.8986 45.5803 41.6776C47.0038 41.4953 47.9297 41.0624 47.8825 40.5998C47.5739 37.5533 45.3765 30.9543 42.3649 25.6029C40.6374 22.5347 37.498 18.1164 33.8622 14.9172C30.6664 12.1042 27.4659 10.3508 27.1515 10.1799L21.8654 12.6124Z" fill="#C9C8C8"/>
<path d="M18.6026 9.48926C18.6026 9.48926 17.4026 9.94043 16.2152 11.556C15.0278 13.1715 14.3092 14.8634 14.4082 15.4137C14.5073 15.9629 16.4133 16.8937 17.5016 17.1387C18.5899 17.3836 20.6099 17.5044 20.6099 17.5044L21.0902 15.596L20.6767 12.9517L18.6026 9.48926Z" fill="white"/>
<path d="M20.6537 17.5635L20.6065 17.56C20.5857 17.5589 18.5703 17.4359 17.4889 17.1932C16.3822 16.9448 14.4578 16.014 14.3518 15.4227C14.2516 14.8678 14.9576 13.168 16.168 11.5216C17.3519 9.91064 18.5323 9.45378 18.5819 9.43555L18.6268 9.41846L20.7332 12.9424L21.1478 15.5981L21.1455 15.6095L20.6537 17.5635ZM18.5784 9.56201C18.3515 9.66227 17.2966 10.1818 16.2613 11.59C15.0854 13.1885 14.3714 14.8838 14.4647 15.4033C14.5534 15.8932 16.358 16.8218 17.5143 17.0827C18.4932 17.3026 20.2529 17.4245 20.565 17.4438L21.0314 15.5924L20.6214 12.9697L18.5784 9.56201Z" fill="#C9C8C8"/>
<path d="M20.4073 13.0394C20.6353 12.9494 25.6761 11.4785 27.217 10.4622C28.7579 9.44597 29.2739 8.17335 27.9483 7.73585C26.6228 7.29835 20.0341 7.3895 19.2337 7.73585C18.5473 8.03207 18.2433 8.96176 18.8537 10.117C18.9608 10.3198 20.4073 13.0394 20.4073 13.0394Z" fill="white"/>
<path d="M20.3808 13.111L20.3566 13.0654C20.3566 13.0654 18.909 10.3459 18.8031 10.1431C18.4691 9.50849 18.3804 8.8887 18.5566 8.39651C18.6741 8.06839 18.9067 7.81432 19.2119 7.68216C20.0353 7.32669 26.6401 7.24124 27.9668 7.67988C28.5599 7.87584 28.7234 8.21194 28.758 8.45917C28.8386 9.05618 28.2605 9.84117 27.2493 10.5077C25.9468 11.3667 22.1233 12.5596 20.8668 12.9515C20.633 13.0244 20.4637 13.0768 20.4303 13.0905L20.3808 13.111ZM23.6907 7.49189C21.6903 7.49189 19.6852 7.6024 19.2568 7.78697C18.9816 7.9066 18.7708 8.13675 18.6637 8.43525C18.499 8.89667 18.5842 9.48456 18.9044 10.0907C19.0034 10.2775 20.2484 12.62 20.435 12.9686C20.5064 12.9447 20.64 12.9037 20.8311 12.8433C22.0841 12.4525 25.8961 11.2642 27.1848 10.4142C28.1591 9.77167 28.7177 9.02883 28.6428 8.47512C28.6014 8.16637 28.3549 7.92825 27.9299 7.78811C27.3046 7.58304 25.4999 7.49189 23.6907 7.49189Z" fill="#C9C8C8"/>
<path d="M20.4072 13.04C20.4072 13.04 20.7434 13.932 20.7688 15.4132C20.793 16.8943 20.4578 18.0211 20.588 18.1669C20.7193 18.3139 24.8019 18.0552 25.8914 16.7029C26.9797 15.3505 23.6168 11.9963 23.6168 11.9963L20.4072 13.04Z" fill="white"/>
<path d="M20.9198 18.2603C20.5939 18.2603 20.5616 18.2227 20.5444 18.2045C20.4707 18.1225 20.4948 17.9174 20.5616 17.4218C20.6296 16.9159 20.7229 16.2232 20.7102 15.4132C20.686 13.9605 20.3555 13.0684 20.3532 13.0593L20.3325 13.0035L23.632 11.9314L23.6573 11.9565C23.7966 12.0943 27.0443 15.363 25.9364 16.7382C24.9978 17.9037 22.0219 18.2341 21.0534 18.258C21.0039 18.2603 20.9601 18.2603 20.9198 18.2603ZM20.481 13.0764C20.5536 13.2952 20.8058 14.1451 20.8265 15.412C20.8403 16.2301 20.7459 16.9285 20.6768 17.4377C20.6342 17.7556 20.5893 18.0837 20.6307 18.1293C20.8645 18.2489 24.7917 17.9755 25.8454 16.6676C26.8416 15.4302 23.9026 12.3712 23.5997 12.0613L20.481 13.0764Z" fill="#C9C8C8"/>
</svg>
